<svg width="72" height="63" viewBox="0 0 72 63" fill="none" xmlns="http://www.w3.org/2000/svg">
<path d="M70.6315 53.9132H17.9817C17.2263 53.9132 16.6133 53.2979 16.6133 52.5398C16.6133 51.7818 17.2263 51.1665 17.9817 51.1665H68.2614L41.199 4.12273L40.2442 5.70593C39.8674 6.3633 39.0309 6.58944 38.3759 6.21131C37.7209 5.83319 37.4955 4.99363 37.8723 4.33626L40.0112 0.688495C40.2548 0.262763 40.7072 0.000915551 41.1962 0C41.6852 0 42.1368 0.261848 42.3813 0.686664L71.8166 51.8532C72.061 52.278 72.061 52.8017 71.8166 53.2265C71.5721 53.6513 71.1205 53.9132 70.6315 53.9132Z" fill="#8734B3"/>
<path d="M5.59039 53.9132H1.3684C0.879427 53.9132 0.427855 53.6513 0.183366 53.2265C-0.0611221 52.8017 -0.0611221 52.278 0.183366 51.8532L29.6187 0.686664C29.8632 0.261848 30.3147 0 30.8037 0C31.2927 0 31.7443 0.261848 31.9887 0.686664L58.2411 46.3205C58.7996 47.3588 58.5218 47.915 57.8677 48.2941C57.3593 48.5887 56.512 48.6342 55.7495 47.4438L30.8037 4.11998L3.73848 51.1665H5.59039C6.34575 51.1665 6.9588 51.7818 6.9588 52.5398C6.9588 53.2979 6.34575 53.9132 5.59039 53.9132Z" fill="#8734B3"/>
<path d="M65.4354 62.9988H6.56567C6.07669 62.9988 5.62512 62.7369 5.38063 62.3121C5.13614 61.8873 5.13614 61.3636 5.38063 60.9388L31.6897 15.2062C32.0674 14.5498 32.9048 14.3245 33.5589 14.7036C34.213 15.0826 34.4375 15.9231 34.0598 16.5795L8.93575 60.2521H63.069L62.2739 58.6761C61.8971 58.0187 62.1224 57.1792 62.7774 56.801C63.4324 56.4229 64.269 56.649 64.6458 57.3064L66.6222 60.9416C66.8658 61.3664 66.8658 61.8901 66.6213 62.314C66.3768 62.7388 65.9253 62.9997 65.4363 62.9997L65.4354 62.9988Z" fill="#8734B3"/>
</svg>
