<svg width="197" height="56" viewBox="0 0 197 56" fill="none" xmlns="http://www.w3.org/2000/svg">
<path d="M6.9351 52.3076C7.06998 52.3076 7.19175 52.3587 7.3004 52.461C7.4128 52.5597 7.469 52.6708 7.469 52.7942C7.469 52.893 7.45027 52.9776 7.4128 53.0481C7.22547 53.436 6.95945 53.7975 6.61476 54.1325C6.27381 54.464 5.8673 54.7302 5.39522 54.9313C4.92313 55.1323 4.39298 55.2328 3.80475 55.2328C3.22402 55.2328 2.69948 55.1287 2.23115 54.9207C1.76281 54.7126 1.36192 54.4287 1.02846 54.069C0.698755 53.7058 0.443981 53.2897 0.264141 52.8207C0.0880469 52.3481 0 51.8491 0 51.3237C0 50.8053 0.0899203 50.3116 0.269761 49.8426C0.449601 49.3736 0.706249 48.9592 1.0397 48.5995C1.37316 48.2363 1.77218 47.9507 2.23677 47.7426C2.70135 47.5345 3.2184 47.4305 3.78789 47.4305C4.36488 47.4305 4.88754 47.5275 5.35588 47.7214C5.82796 47.9119 6.23635 48.1675 6.58104 48.4884C6.92948 48.8058 7.20112 49.1549 7.39594 49.5358C7.43716 49.6098 7.45776 49.6874 7.45776 49.7685C7.45776 49.899 7.40718 50.0189 7.30602 50.1282C7.20861 50.234 7.09434 50.2869 6.9632 50.2869C6.83581 50.2869 6.71967 50.2622 6.61476 50.2129C6.5136 50.16 6.43679 50.0824 6.38434 49.9801C6.17453 49.5711 5.84482 49.2202 5.39522 48.9275C4.94936 48.6348 4.41359 48.4884 3.78789 48.4884C3.24462 48.4884 2.77254 48.6189 2.37165 48.8799C1.9745 49.1408 1.66727 49.4882 1.44996 49.9219C1.23266 50.3522 1.124 50.8229 1.124 51.3343C1.124 51.8491 1.23078 52.3217 1.44434 52.7519C1.66165 53.1821 1.96888 53.526 2.36603 53.7834C2.76692 54.0408 3.24275 54.1695 3.79351 54.1695C4.20565 54.1695 4.58219 54.099 4.92313 53.958C5.26783 53.8134 5.56569 53.6229 5.81672 53.3867C6.06775 53.1504 6.25883 52.8965 6.38996 52.625C6.49112 52.4134 6.67283 52.3076 6.9351 52.3076Z" fill="white"/>
<path d="M14.3169 54.7355C14.3169 54.8731 14.2626 54.993 14.1539 55.0952C14.049 55.194 13.9347 55.2433 13.8111 55.2433C13.7062 55.2433 13.6144 55.2081 13.5357 55.1376C13.457 55.0705 13.4027 55.0194 13.3727 54.9842C13.0318 54.7585 12.7358 54.5028 12.4848 54.2171C12.2375 53.928 12.0258 53.6141 11.8497 53.2756C11.6961 52.9723 11.5387 52.736 11.3776 52.5668C11.2203 52.3975 11.0292 52.2776 10.8044 52.2071C10.5796 52.1365 10.2873 52.0995 9.92765 52.096L9.41623 52.0907L9.42185 54.6509V54.6615C9.42185 54.8025 9.36565 54.926 9.25325 55.0318C9.14459 55.1376 9.01346 55.1904 8.85985 55.1904C8.70623 55.1904 8.57322 55.134 8.46082 55.0212C8.35217 54.9083 8.29784 54.7743 8.29784 54.6192L8.28098 48.0547C8.28098 47.9066 8.33531 47.7831 8.44396 47.6844C8.55636 47.5821 8.6875 47.5292 8.83737 47.5257L10.3323 47.5204H10.4615C11.106 47.5204 11.6811 47.6104 12.1869 47.7902C12.6927 47.9665 13.0917 48.2328 13.384 48.5889C13.6762 48.9416 13.8223 49.3806 13.8223 49.9061C13.8223 50.2446 13.7474 50.5461 13.5975 50.8106C13.4514 51.0751 13.2584 51.299 13.0187 51.4824C12.7789 51.6658 12.5203 51.8086 12.2431 51.9109C12.3705 52.0625 12.4979 52.2494 12.6253 52.4716C12.8426 52.863 13.0543 53.2103 13.2603 53.5136C13.4664 53.8134 13.738 54.0779 14.0752 54.3071C14.1427 54.3494 14.1989 54.4093 14.2438 54.4869C14.2925 54.561 14.3169 54.6438 14.3169 54.7355ZM10.4896 48.5784H9.40499L9.41623 51.1068L10.5009 51.0962C11.1903 51.0892 11.7298 50.9904 12.1195 50.8C12.5129 50.6096 12.7096 50.3046 12.7096 49.8849C12.7096 49.4547 12.5016 49.1302 12.0857 48.9116C11.6699 48.6894 11.1378 48.5784 10.4896 48.5784Z" fill="white"/>
<path d="M15.1626 48.0494C15.1626 47.9083 15.2169 47.7884 15.3256 47.6897C15.438 47.5874 15.571 47.5363 15.7246 47.5363L20.5409 47.5416H20.5466C20.7002 47.5416 20.8313 47.5945 20.94 47.7003C21.0524 47.8025 21.1086 47.926 21.1086 48.0706C21.1086 48.2151 21.0524 48.3403 20.94 48.4461C20.8313 48.5484 20.7002 48.5995 20.5466 48.5995H20.5409L16.2866 48.5942L16.2922 50.763L20.0801 50.7894C20.2412 50.7894 20.3742 50.8423 20.4791 50.9481C20.5878 51.0539 20.6421 51.1897 20.6421 51.3554C20.6421 51.4965 20.584 51.6164 20.4679 51.7151C20.3517 51.8103 20.2225 51.858 20.0801 51.858H20.0745L16.2978 51.8315L16.3034 54.069L20.5409 54.0637H20.5466C20.7002 54.0637 20.8313 54.1166 20.94 54.2224C21.0524 54.3247 21.1086 54.4481 21.1086 54.5927C21.1086 54.7373 21.0524 54.8625 20.94 54.9683C20.8313 55.0705 20.7002 55.1217 20.5466 55.1217H20.5409L15.7414 55.127C15.5878 55.127 15.4548 55.0758 15.3424 54.9736C15.2338 54.8678 15.1794 54.7444 15.1794 54.6033L15.1626 48.0494Z" fill="white"/>
<path d="M24.9272 47.7373C24.9685 47.6491 25.0378 47.5751 25.1352 47.5151C25.2363 47.4517 25.3394 47.4199 25.4443 47.4199C25.5455 47.4199 25.6466 47.4517 25.7478 47.5151C25.8527 47.5751 25.9239 47.6491 25.9613 47.7373L29.0523 54.4869C29.0861 54.5575 29.1029 54.6297 29.1029 54.7038C29.1029 54.8484 29.0467 54.9736 28.9343 55.0794C28.8257 55.1816 28.6945 55.2328 28.5409 55.2328C28.436 55.2328 28.333 55.201 28.2318 55.1376C28.1307 55.0741 28.0595 54.9983 28.0183 54.9101L27.0572 52.8101L23.8538 52.7678L22.8703 54.9154C22.8329 55.0035 22.7635 55.0794 22.6624 55.1428C22.5612 55.2098 22.4582 55.2433 22.3533 55.2433C22.1997 55.2433 22.0667 55.1922 21.9543 55.0899C21.8456 54.9842 21.7913 54.859 21.7913 54.7144C21.7913 54.6403 21.8081 54.568 21.8419 54.4975L24.9272 47.7373ZM25.4443 49.2872L24.3371 51.7151L26.5683 51.7416L25.4443 49.2872Z" fill="white"/>
<path d="M29.6339 48.0758C29.6339 47.9313 29.6882 47.8078 29.7969 47.7056C29.9093 47.5998 30.0423 47.5469 30.1959 47.5469H30.2015L35.8159 47.5151H35.8272C35.9808 47.5151 36.1119 47.568 36.2206 47.6738C36.333 47.7761 36.3892 47.8995 36.3892 48.0441C36.3892 48.1887 36.333 48.3139 36.2206 48.4197C36.1119 48.5219 35.9808 48.5731 35.8272 48.5731H35.8215L33.5848 48.5836L33.5567 54.6562V54.6615C33.5567 54.8025 33.5005 54.9242 33.3881 55.0265C33.2794 55.1287 33.1483 55.1799 32.9947 55.1799C32.8411 55.1799 32.708 55.1287 32.5956 55.0265C32.487 54.9242 32.4327 54.8025 32.4327 54.6615V54.6509L32.4608 48.5889L30.2015 48.6048H30.1959C30.0423 48.6048 29.9093 48.5537 29.7969 48.4514C29.6882 48.3456 29.6339 48.2204 29.6339 48.0758Z" fill="white"/>
<path d="M37.7744 55.1693C37.6208 55.1693 37.4878 55.1182 37.3754 55.0159C37.2667 54.9101 37.2124 54.7849 37.2124 54.6403L37.2068 48.0229C37.2068 47.8889 37.2592 47.7673 37.3641 47.658C37.469 47.5486 37.5945 47.494 37.7407 47.494C37.913 47.494 38.0535 47.5451 38.1622 47.6474C38.2746 47.7461 38.3308 47.8713 38.3308 48.0229L38.3364 54.6403C38.3364 54.7849 38.2802 54.9101 38.1678 55.0159C38.0591 55.1182 37.928 55.1693 37.7744 55.1693Z" fill="white"/>
<path d="M39.1596 48.0282C39.1596 47.9048 39.2139 47.792 39.3226 47.6897C39.435 47.5874 39.5586 47.5363 39.6935 47.5363C39.9633 47.5363 40.145 47.6421 40.2386 47.8537L42.9531 53.6617L45.3978 47.7955C45.4877 47.5733 45.6713 47.4622 45.9486 47.4622C46.0872 47.4622 46.2109 47.5134 46.3195 47.6156C46.4282 47.7144 46.4825 47.8272 46.4825 47.9542C46.4825 48.0529 46.4694 48.134 46.4431 48.1975L43.5095 55.201C43.472 55.2892 43.4046 55.3668 43.3072 55.4338C43.2135 55.5043 43.1067 55.5396 42.9868 55.5396C42.7508 55.5396 42.5803 55.4338 42.4754 55.2222L39.2102 48.2874C39.1765 48.224 39.1596 48.1376 39.1596 48.0282Z" fill="white"/>
<path d="M47.1652 48.0494C47.1652 47.9083 47.2195 47.7884 47.3282 47.6897C47.4406 47.5874 47.5736 47.5363 47.7272 47.5363L52.5436 47.5416H52.5492C52.7028 47.5416 52.8339 47.5945 52.9426 47.7003C53.055 47.8025 53.1112 47.926 53.1112 48.0706C53.1112 48.2151 53.055 48.3403 52.9426 48.4461C52.8339 48.5484 52.7028 48.5995 52.5492 48.5995H52.5436L48.2892 48.5942L48.2948 50.763L52.0827 50.7894C52.2438 50.7894 52.3768 50.8423 52.4817 50.9481C52.5904 51.0539 52.6447 51.1897 52.6447 51.3554C52.6447 51.4965 52.5867 51.6164 52.4705 51.7151C52.3544 51.8103 52.2251 51.858 52.0827 51.858H52.0771L48.3004 51.8315L48.3061 54.069L52.5436 54.0637H52.5492C52.7028 54.0637 52.8339 54.1166 52.9426 54.2224C53.055 54.3247 53.1112 54.4481 53.1112 54.5927C53.1112 54.7373 53.055 54.8625 52.9426 54.9683C52.8339 55.0705 52.7028 55.1217 52.5492 55.1217H52.5436L47.7441 55.127C47.5905 55.127 47.4574 55.0758 47.345 54.9736C47.2364 54.8678 47.1821 54.7444 47.1821 54.6033L47.1652 48.0494Z" fill="white"/>
<path d="M59.5881 51.4814C59.5881 50.8169 60.1786 50.2617 60.8853 50.2617C61.592 50.2617 62.1824 50.8169 62.1824 51.4814C62.1824 52.1459 61.592 52.7011 60.8853 52.7011C60.1786 52.7011 59.5881 52.1459 59.5881 51.4814Z" fill="white"/>
<path d="M119.18 51.4814C119.18 50.8169 119.77 50.2617 120.477 50.2617C121.184 50.2617 121.774 50.8169 121.774 51.4814C121.774 52.1459 121.184 52.7011 120.477 52.7011C119.77 52.7011 119.18 52.1459 119.18 51.4814Z" fill="white"/>
<path d="M71.2862 47.535H71.3724C72.0468 47.535 72.6388 47.6482 73.1485 47.8747C73.6581 48.0975 74.0834 48.4006 74.4245 48.7842C74.7694 49.164 75.028 49.5914 75.2004 50.0662C75.3767 50.5374 75.4648 51.0195 75.4648 51.5126C75.4648 52.265 75.2867 52.9353 74.9303 53.5234C74.5778 54.1114 74.0547 54.5735 73.3611 54.9095C72.6714 55.2455 71.8207 55.4136 70.8091 55.4136H70.539L69.2285 55.4026C69.0752 55.3989 68.9411 55.3423 68.8261 55.2328C68.715 55.1232 68.6594 54.9917 68.6594 54.8383L68.6997 48.1157C68.6997 47.9696 68.7552 47.8436 68.8663 47.7377C68.9775 47.6281 69.1097 47.5715 69.2629 47.5679L71.2862 47.535ZM74.4417 51.4797C74.4417 50.8004 74.2904 50.2525 73.9876 49.8361C73.6849 49.4197 73.2596 49.1165 72.7116 48.9266C72.1637 48.733 71.5199 48.6362 70.7804 48.6362C70.6233 48.6362 70.4662 48.6381 70.309 48.6417C70.1558 48.6454 70.0006 48.6508 69.8435 48.6581L69.809 54.2959L70.5505 54.3068C71.3207 54.3068 71.997 54.2192 72.5794 54.0438C73.1657 53.8649 73.6217 53.569 73.9474 53.1563C74.277 52.7435 74.4417 52.1847 74.4417 51.4797Z" fill="white"/>
<path d="M77.5481 55.4629C77.391 55.4629 77.2549 55.4099 77.14 55.304C77.0289 55.1944 76.9733 55.0647 76.9733 54.915L76.9675 48.0609C76.9675 47.9221 77.0212 47.7961 77.1285 47.6829C77.2358 47.5697 77.3641 47.5131 77.5136 47.5131C77.6899 47.5131 77.8335 47.566 77.9447 47.6719C78.0596 47.7742 78.1171 47.9039 78.1171 48.0609L78.1229 54.915C78.1229 55.0647 78.0654 55.1944 77.9504 55.304C77.8393 55.4099 77.7052 55.4629 77.5481 55.4629Z" fill="white"/>
<path d="M79.3727 51.5784C79.3727 51.0414 79.4723 50.5246 79.6715 50.0279C79.8746 49.5311 80.1601 49.0891 80.528 48.702C80.8997 48.3111 81.3403 48.0025 81.85 47.776C82.3634 47.5496 82.9306 47.4364 83.5513 47.4364C84.1223 47.4364 84.6396 47.5112 85.1032 47.661C85.5707 47.8107 86.0076 48.0226 86.4137 48.2965C86.5785 48.4025 86.6609 48.5486 86.6609 48.7348C86.6609 48.8809 86.6034 49.0088 86.4885 49.1184C86.3773 49.2243 86.2432 49.2772 86.0861 49.2772C85.9635 49.2772 85.8504 49.2426 85.747 49.1732C85.4481 48.9796 85.1109 48.8262 84.7354 48.7129C84.3598 48.596 83.9747 48.5376 83.5801 48.5376C83.1317 48.5376 82.7198 48.6198 82.3443 48.7842C81.9726 48.9449 81.6488 49.1677 81.3729 49.4526C81.1008 49.7338 80.8882 50.0552 80.7349 50.4168C80.5854 50.7785 80.5107 51.1583 80.5107 51.5564C80.5107 52.1007 80.6353 52.5846 80.8843 53.0083C81.1372 53.432 81.4879 53.7644 81.9362 54.0055C82.3883 54.2466 82.9133 54.3671 83.5111 54.3671C83.8406 54.3671 84.1663 54.336 84.4882 54.274C84.8139 54.2119 85.1109 54.1406 85.3791 54.0603L85.3619 52.192H83.6088C83.4517 52.192 83.3157 52.139 83.2007 52.0331C83.0896 51.9235 83.034 51.7939 83.034 51.6441C83.034 51.4944 83.0896 51.3665 83.2007 51.2606C83.3157 51.151 83.4517 51.0962 83.6088 51.0962H85.9367C86.0938 51.0962 86.2279 51.1492 86.339 51.2551C86.454 51.361 86.5114 51.4889 86.5114 51.6386L86.5344 54.4383V54.4438C86.5344 54.5461 86.4999 54.6447 86.431 54.7397C86.362 54.8346 86.2758 54.9004 86.1723 54.9369C85.8045 55.0757 85.3983 55.1999 84.9538 55.3095C84.5093 55.4154 84.0418 55.4683 83.5513 55.4683C82.7466 55.4683 82.0281 55.3021 81.3959 54.9698C80.7675 54.6374 80.2732 54.179 79.913 53.5946C79.5528 53.0102 79.3727 52.3381 79.3727 51.5784Z" fill="white"/>
<path d="M88.6004 55.4629C88.4433 55.4629 88.3073 55.4099 88.1923 55.304C88.0812 55.1944 88.0256 55.0647 88.0256 54.915L88.0199 48.0609C88.0199 47.9221 88.0735 47.7961 88.1808 47.6829C88.2881 47.5697 88.4165 47.5131 88.5659 47.5131C88.7422 47.5131 88.8859 47.566 88.997 47.6719C89.112 47.7742 89.1695 47.9039 89.1695 48.0609L89.1752 54.915C89.1752 55.0647 89.1177 55.1944 89.0028 55.304C88.8917 55.4099 88.7575 55.4629 88.6004 55.4629Z" fill="white"/>
<path d="M90.2526 48.1157C90.2526 47.966 90.3081 47.8381 90.4193 47.7322C90.5342 47.6226 90.6703 47.5679 90.8274 47.5679H90.8331L96.5752 47.535H96.5867C96.7438 47.535 96.8779 47.5898 96.989 47.6993C97.104 47.8053 97.1615 47.9331 97.1615 48.0829C97.1615 48.2326 97.104 48.3623 96.989 48.4719C96.8779 48.5778 96.7438 48.6307 96.5867 48.6307H96.5809L94.2933 48.6417L94.2646 54.9314V54.9369C94.2646 55.083 94.2071 55.209 94.0921 55.3149C93.981 55.4209 93.8469 55.4738 93.6898 55.4738C93.5327 55.4738 93.3966 55.4209 93.2817 55.3149C93.1706 55.209 93.115 55.083 93.115 54.9369V54.9259L93.1437 48.6472L90.8331 48.6636H90.8274C90.6703 48.6636 90.5342 48.6107 90.4193 48.5047C90.3081 48.3952 90.2526 48.2655 90.2526 48.1157Z" fill="white"/>
<path d="M101.153 47.7651C101.195 47.6738 101.266 47.5971 101.366 47.535C101.469 47.4692 101.574 47.4364 101.682 47.4364C101.785 47.4364 101.889 47.4692 101.992 47.535C102.099 47.5971 102.172 47.6738 102.211 47.7651L105.372 54.7561C105.406 54.8291 105.424 54.904 105.424 54.9807C105.424 55.1305 105.366 55.2601 105.251 55.3697C105.14 55.4756 105.006 55.5286 104.849 55.5286C104.742 55.5286 104.636 55.4957 104.533 55.43C104.429 55.3642 104.356 55.2857 104.314 55.1944L103.331 53.0193L100.055 52.9755L99.0493 55.1999C99.0109 55.2912 98.9401 55.3697 98.8366 55.4355C98.7331 55.5049 98.6278 55.5396 98.5205 55.5396C98.3634 55.5396 98.2273 55.4866 98.1124 55.3807C98.0012 55.2711 97.9457 55.1414 97.9457 54.9917C97.9457 54.915 97.9629 54.8401 97.9974 54.767L101.153 47.7651ZM101.682 49.3704L100.549 51.8852L102.831 51.9126L101.682 49.3704Z" fill="white"/>
<path d="M107.196 55.4519C107.039 55.4519 106.903 55.3989 106.788 55.293C106.677 55.1834 106.622 55.0556 106.622 54.9095L106.604 47.9568V47.9514C106.604 47.8053 106.66 47.6811 106.771 47.5788C106.886 47.4729 107.022 47.4199 107.179 47.4199C107.336 47.4199 107.47 47.4729 107.582 47.5788C107.697 47.6811 107.754 47.8053 107.754 47.9514L107.771 54.3561L112.122 54.3452H112.128C112.285 54.3452 112.419 54.4 112.53 54.5095C112.645 54.6155 112.703 54.7433 112.703 54.8931C112.703 55.0428 112.645 55.1725 112.53 55.2821C112.419 55.388 112.285 55.4409 112.128 55.4409H112.122L107.196 55.4519Z" fill="white"/>
<path d="M128.819 55.1693C128.665 55.1693 128.532 55.1182 128.42 55.0159C128.311 54.9101 128.257 54.7849 128.257 54.6403L128.251 48.0229C128.251 47.8889 128.303 47.7673 128.408 47.658C128.513 47.5486 128.639 47.494 128.785 47.494C128.958 47.494 129.098 47.5451 129.207 47.6474C129.32 47.7461 129.376 47.8713 129.376 48.0229L129.382 54.6403C129.382 54.7849 129.325 54.9101 129.213 55.0159C129.104 55.1182 128.973 55.1693 128.819 55.1693Z" fill="white"/>
<path d="M130.717 48.0494C130.717 47.9013 130.773 47.7796 130.886 47.6844C131.002 47.5857 131.139 47.5363 131.296 47.5363C131.473 47.5363 131.617 47.6033 131.729 47.7373L135.976 53.1592V48.0653C135.976 47.9242 136.03 47.8043 136.139 47.7056C136.252 47.6033 136.385 47.5522 136.538 47.5522C136.692 47.5522 136.823 47.6033 136.932 47.7056C137.045 47.8043 137.101 47.9242 137.101 48.0653L137.095 54.6985C137.095 54.8466 137.037 54.97 136.921 55.0688C136.808 55.164 136.673 55.2116 136.516 55.2116C136.34 55.2116 136.195 55.1411 136.083 55L131.842 49.5834V54.6932C131.842 54.8343 131.786 54.9559 131.673 55.0582C131.564 55.1569 131.433 55.2063 131.279 55.2063C131.126 55.2063 130.993 55.1569 130.88 55.0582C130.771 54.9559 130.717 54.8343 130.717 54.6932V48.0494Z" fill="white"/>
<path d="M138.296 48.0494C138.296 47.9013 138.352 47.7796 138.464 47.6844C138.581 47.5857 138.718 47.5363 138.875 47.5363C139.051 47.5363 139.196 47.6033 139.308 47.7373L143.555 53.1592V48.0653C143.555 47.9242 143.609 47.8043 143.718 47.7056C143.83 47.6033 143.963 47.5522 144.117 47.5522C144.271 47.5522 144.402 47.6033 144.511 47.7056C144.623 47.8043 144.68 47.9242 144.68 48.0653L144.674 54.6985C144.674 54.8466 144.616 54.97 144.5 55.0688C144.387 55.164 144.252 55.2116 144.095 55.2116C143.918 55.2116 143.774 55.1411 143.662 55L139.421 49.5834V54.6932C139.421 54.8343 139.364 54.9559 139.252 55.0582C139.143 55.1569 139.012 55.2063 138.858 55.2063C138.704 55.2063 138.571 55.1569 138.459 55.0582C138.35 54.9559 138.296 54.8343 138.296 54.6932V48.0494Z" fill="white"/>
<path d="M149.671 47.4411C150.245 47.4411 150.772 47.5469 151.252 47.7585C151.735 47.9665 152.155 48.2539 152.511 48.6207C152.868 48.9839 153.143 49.4035 153.338 49.8796C153.533 50.3522 153.631 50.8547 153.631 51.3872C153.631 51.9197 153.533 52.4204 153.338 52.8894C153.147 53.3549 152.875 53.7658 152.523 54.1219C152.17 54.4781 151.752 54.7567 151.268 54.9577C150.788 55.1587 150.258 55.2592 149.677 55.2592C149.084 55.2592 148.546 55.1587 148.062 54.9577C147.579 54.7532 147.162 54.4728 146.814 54.1166C146.469 53.7569 146.203 53.3426 146.015 52.8736C145.828 52.401 145.734 51.895 145.734 51.3554C145.734 50.83 145.831 50.3328 146.026 49.8637C146.225 49.3947 146.501 48.9786 146.853 48.6154C147.209 48.2486 147.626 47.9612 148.102 47.7532C148.582 47.5451 149.105 47.4411 149.671 47.4411ZM149.694 48.5149C149.139 48.5149 148.647 48.6507 148.22 48.9222C147.796 49.1937 147.462 49.5534 147.219 50.0013C146.979 50.4456 146.859 50.9323 146.859 51.4612C146.859 51.8209 146.932 52.1648 147.078 52.4927C147.224 52.8207 147.427 53.1134 147.686 53.3708C147.944 53.6247 148.242 53.8257 148.58 53.9738C148.921 54.1184 149.285 54.1907 149.671 54.1907C150.057 54.1907 150.421 54.1149 150.762 53.9632C151.107 53.8116 151.411 53.6071 151.673 53.3496C151.94 53.0922 152.148 52.803 152.298 52.4821C152.448 52.1577 152.523 51.8262 152.523 51.4877C152.523 50.9411 152.395 50.4439 152.14 49.996C151.889 49.5446 151.55 49.1849 151.122 48.9169C150.695 48.6489 150.218 48.5149 149.694 48.5149Z" fill="white"/>
<path d="M154.398 48.0282C154.398 47.9048 154.452 47.792 154.561 47.6897C154.674 47.5874 154.797 47.5363 154.932 47.5363C155.202 47.5363 155.384 47.6421 155.478 47.8537L158.195 53.6617L160.641 47.7955C160.731 47.5733 160.915 47.4622 161.193 47.4622C161.331 47.4622 161.455 47.5134 161.564 47.6156C161.673 47.7144 161.727 47.8272 161.727 47.9542C161.727 48.0529 161.714 48.134 161.688 48.1975L158.751 55.201C158.714 55.2892 158.647 55.3668 158.549 55.4338C158.455 55.5043 158.348 55.5396 158.228 55.5396C157.992 55.5396 157.822 55.4338 157.717 55.2222L154.449 48.2874C154.415 48.224 154.398 48.1376 154.398 48.0282Z" fill="white"/>
<path d="M165.638 47.7373C165.68 47.6491 165.749 47.5751 165.847 47.5151C165.948 47.4517 166.051 47.4199 166.156 47.4199C166.257 47.4199 166.358 47.4517 166.46 47.5151C166.565 47.5751 166.636 47.6491 166.673 47.7373L169.767 54.4869C169.801 54.5575 169.817 54.6297 169.817 54.7038C169.817 54.8484 169.761 54.9736 169.649 55.0794C169.54 55.1816 169.409 55.2328 169.255 55.2328C169.15 55.2328 169.047 55.201 168.946 55.1376C168.844 55.0741 168.773 54.9983 168.732 54.9101L167.77 52.8101L164.564 52.7678L163.58 54.9154C163.542 55.0035 163.473 55.0794 163.372 55.1428C163.27 55.2098 163.167 55.2433 163.062 55.2433C162.909 55.2433 162.776 55.1922 162.663 55.0899C162.554 54.9842 162.5 54.859 162.5 54.7144C162.5 54.6403 162.517 54.568 162.551 54.4975L165.638 47.7373ZM166.156 49.2872L165.048 51.7151L167.281 51.7416L166.156 49.2872Z" fill="white"/>
<path d="M170.579 48.0758C170.579 47.9313 170.634 47.8078 170.742 47.7056C170.855 47.5998 170.988 47.5469 171.142 47.5469H171.147L176.766 47.5151H176.777C176.931 47.5151 177.062 47.568 177.171 47.6738C177.284 47.7761 177.34 47.8995 177.34 48.0441C177.34 48.1887 177.284 48.3139 177.171 48.4197C177.062 48.5219 176.931 48.5731 176.777 48.5731H176.772L174.533 48.5836L174.505 54.6562V54.6615C174.505 54.8025 174.449 54.9242 174.336 55.0265C174.228 55.1287 174.096 55.1799 173.943 55.1799C173.789 55.1799 173.656 55.1287 173.543 55.0265C173.435 54.9242 173.38 54.8025 173.38 54.6615V54.6509L173.408 48.5889L171.147 48.6048H171.142C170.988 48.6048 170.855 48.5537 170.742 48.4514C170.634 48.3456 170.579 48.2204 170.579 48.0758Z" fill="white"/>
<path d="M178.957 55.1693C178.803 55.1693 178.67 55.1182 178.557 55.0159C178.449 54.9101 178.394 54.7849 178.394 54.6403L178.389 48.0229C178.389 47.8889 178.441 47.7673 178.546 47.658C178.651 47.5486 178.777 47.494 178.923 47.494C179.095 47.494 179.236 47.5451 179.345 47.6474C179.457 47.7461 179.513 47.8713 179.513 48.0229L179.519 54.6403C179.519 54.7849 179.463 54.9101 179.35 55.0159C179.242 55.1182 179.11 55.1693 178.957 55.1693Z" fill="white"/>
<path d="M184.651 47.4411C185.225 47.4411 185.752 47.5469 186.232 47.7585C186.715 47.9665 187.135 48.2539 187.492 48.6207C187.848 48.9839 188.123 49.4035 188.318 49.8796C188.513 50.3522 188.611 50.8547 188.611 51.3872C188.611 51.9197 188.513 52.4204 188.318 52.8894C188.127 53.3549 187.855 53.7658 187.503 54.1219C187.15 54.4781 186.732 54.7567 186.249 54.9577C185.769 55.1587 185.238 55.2592 184.657 55.2592C184.064 55.2592 183.526 55.1587 183.043 54.9577C182.559 54.7532 182.143 54.4728 181.794 54.1166C181.449 53.7569 181.183 53.3426 180.995 52.8736C180.808 52.401 180.714 51.895 180.714 51.3554C180.714 50.83 180.811 50.3328 181.006 49.8637C181.205 49.3947 181.481 48.9786 181.833 48.6154C182.189 48.2486 182.606 47.9612 183.082 47.7532C183.562 47.5451 184.085 47.4411 184.651 47.4411ZM184.674 48.5149C184.119 48.5149 183.627 48.6507 183.2 48.9222C182.776 49.1937 182.443 49.5534 182.199 50.0013C181.959 50.4456 181.839 50.9323 181.839 51.4612C181.839 51.8209 181.912 52.1648 182.058 52.4927C182.204 52.8207 182.407 53.1134 182.666 53.3708C182.924 53.6247 183.223 53.8257 183.56 53.9738C183.901 54.1184 184.265 54.1907 184.651 54.1907C185.037 54.1907 185.401 54.1149 185.742 53.9632C186.087 53.8116 186.391 53.6071 186.653 53.3496C186.92 53.0922 187.128 52.803 187.278 52.4821C187.428 52.1577 187.503 51.8262 187.503 51.4877C187.503 50.9411 187.375 50.4439 187.12 49.996C186.869 49.5446 186.53 49.1849 186.102 48.9169C185.675 48.6489 185.199 48.5149 184.674 48.5149Z" fill="white"/>
<path d="M189.659 48.0494C189.659 47.9013 189.716 47.7796 189.828 47.6844C189.944 47.5857 190.081 47.5363 190.239 47.5363C190.415 47.5363 190.559 47.6033 190.672 47.7373L194.918 53.1592V48.0653C194.918 47.9242 194.973 47.8043 195.082 47.7056C195.194 47.6033 195.327 47.5522 195.481 47.5522C195.635 47.5522 195.766 47.6033 195.875 47.7056C195.987 47.8043 196.043 47.9242 196.043 48.0653L196.038 54.6985C196.038 54.8466 195.98 54.97 195.863 55.0688C195.751 55.164 195.616 55.2116 195.458 55.2116C195.282 55.2116 195.138 55.1411 195.025 55L190.784 49.5834V54.6932C190.784 54.8343 190.728 54.9559 190.616 55.0582C190.507 55.1569 190.376 55.2063 190.222 55.2063C190.068 55.2063 189.935 55.1569 189.823 55.0582C189.714 54.9559 189.659 54.8343 189.659 54.6932V48.0494Z" fill="white"/>
<path d="M34.3077 35.1768C34.3077 36.7166 33.0064 37.9698 31.4519 37.9698C30.2127 37.9698 29.1423 37.2096 28.8071 36.2042L26.4553 30.1057H7.85245L5.50064 36.2042C5.10082 37.1902 4.03051 37.9698 2.85588 37.9698C1.28142 37.9698 0 36.6972 0 35.1768C0 34.849 0.104285 34.458 0.230936 34.1301L12.5758 3.86377C13.2488 2.09811 15.0542 0.78418 17.1328 0.78418C19.2113 0.78418 21.0168 2.09811 21.732 3.86377L34.0768 34.1301C34.2034 34.4167 34.3077 34.8077 34.3077 35.1768ZM24.6077 25.2386L17.1328 5.85528L9.71988 25.2386H24.6053H24.6077Z" fill="white"/>
<path d="M70.9874 21.3992V29.7976C70.9874 31.2767 70.5875 32.3842 69.475 33.3702C65.9908 36.4498 61.4537 38.4219 55.8909 38.4219C45.1628 38.4219 36.4685 30.8444 36.4685 19.4271C36.4685 8.00985 45.1826 0.473633 55.8909 0.473633C61.4959 0.473633 65.6133 2.40443 68.7622 5.46215C69.2663 5.89446 69.5395 6.55021 69.5395 7.2691C69.5395 8.70688 68.3649 9.79494 66.8948 9.79494C66.2218 9.79494 65.5512 9.52778 65.0471 9.07604C62.7376 6.81736 59.5465 5.33829 55.8934 5.33829C48.0832 5.33829 42.2448 11.1696 42.2448 19.4028C42.2448 27.6361 48.0807 33.5087 55.8934 33.5087C60.0506 33.5087 63.577 31.5366 65.3849 29.8753V23.2839H55.5581C54.2146 23.2839 53.0797 22.1958 53.0797 20.8188C53.0797 19.4417 54.1923 18.4581 55.5581 18.4581H68.0296C69.9195 18.4775 70.9898 19.5267 70.9898 21.3944L70.9874 21.3992Z" fill="white"/>
<path d="M78.1689 35.2401V3.55542C78.1689 2.07635 79.4702 0.803711 81.0248 0.803711C82.5794 0.803711 83.7764 2.07635 83.7764 3.55542V35.2401C83.7764 36.7192 82.5372 37.9918 81.0248 37.9918C79.5124 37.9918 78.1689 36.7192 78.1689 35.2401Z" fill="white"/>
<path d="M92.1528 34.8078V3.55542C92.1528 2.07635 93.4541 0.803711 95.0087 0.803711C96.5633 0.803711 97.7602 2.07635 97.7602 3.55542V32.877H112.521C113.865 32.877 115.042 33.9237 115.042 35.2377C115.042 36.5516 113.867 37.7028 112.521 37.7028H95.1999C93.2257 37.7222 92.1553 36.6754 92.1553 34.8078H92.1528Z" fill="white"/>
<path d="M120.98 35.2401V3.55542C120.98 2.07635 122.281 0.803711 123.836 0.803711C125.39 0.803711 126.587 2.07635 126.587 3.55542V35.2401C126.587 36.7192 125.348 37.9918 123.836 37.9918C122.323 37.9918 120.98 36.7192 120.98 35.2401Z" fill="white"/>
<path d="M144.117 35.2401V5.91858H134.668C133.325 5.91858 132.19 4.87182 132.19 3.5579C132.19 2.24398 133.302 1.09277 134.668 1.09277H159.107C160.45 1.09277 161.628 2.18083 161.628 3.5579C161.628 4.93496 160.453 5.91858 159.107 5.91858H149.722V35.2401C149.722 36.7192 148.421 37.9918 146.909 37.9918C145.396 37.9918 144.117 36.7192 144.117 35.2401Z" fill="white"/>
<path d="M195.558 4.86933L183.549 22.385V35.2401C183.549 36.7192 182.309 37.9918 180.735 37.9918C179.16 37.9918 177.921 36.7192 177.921 35.2401V22.385L165.85 4.91063C165.576 4.51961 165.407 3.98772 165.407 3.43155C165.407 1.95248 166.647 0.803711 168.094 0.803711C169.038 0.803711 169.9 1.23602 170.404 2.01562L180.735 17.4985L191.001 2.01562C191.505 1.29673 192.345 0.803711 193.311 0.803711C194.781 0.803711 195.998 1.95248 195.998 3.43155C195.998 3.98529 195.829 4.47831 195.556 4.86933H195.558Z" fill="white"/>
</svg>
