<svg width="72" height="64" viewBox="0 0 72 64" fill="none" xmlns="http://www.w3.org/2000/svg">
<path d="M70.6315 54.3868H17.9817C17.2263 54.3868 16.6133 53.7715 16.6133 53.0135C16.6133 52.2554 17.2263 51.6401 17.9817 51.6401H68.2614L41.199 4.59636L40.2442 6.17956C39.8674 6.83693 39.0309 7.06307 38.3759 6.68495C37.7209 6.30682 37.4955 5.46726 37.8723 4.8099L40.0112 1.16213C40.2548 0.736396 40.7072 0.474548 41.1962 0.473633C41.6852 0.473633 42.1368 0.735481 42.3813 1.1603L71.8166 52.3268C72.061 52.7516 72.061 53.2753 71.8166 53.7001C71.5721 54.1249 71.1205 54.3868 70.6315 54.3868Z" fill="white"/>
<path d="M5.59039 54.3868H1.3684C0.879427 54.3868 0.427855 54.1249 0.183366 53.7001C-0.0611221 53.2753 -0.0611221 52.7516 0.183366 52.3268L29.6187 1.1603C29.8632 0.735481 30.3147 0.473633 30.8037 0.473633C31.2927 0.473633 31.7443 0.735481 31.9887 1.1603L58.2411 46.7941C58.7996 47.8324 58.5218 48.3887 57.8677 48.7677C57.3593 49.0623 56.512 49.1078 55.7495 47.9175L30.8037 4.59361L3.73848 51.6401H5.59039C6.34575 51.6401 6.9588 52.2554 6.9588 53.0135C6.9588 53.7715 6.34575 54.3868 5.59039 54.3868Z" fill="white"/>
<path d="M65.4354 63.4724H6.56567C6.07669 63.4724 5.62512 63.2106 5.38063 62.7858C5.13614 62.361 5.13614 61.8373 5.38063 61.4124L31.6897 15.6799C32.0674 15.0234 32.9048 14.7982 33.5589 15.1772C34.213 15.5563 34.4375 16.3967 34.0598 17.0532L8.93575 60.7258H63.069L62.2739 59.1497C61.8971 58.4923 62.1224 57.6528 62.7774 57.2747C63.4324 56.8965 64.269 57.1227 64.6458 57.78L66.6222 61.4152C66.8658 61.84 66.8658 62.3637 66.6213 62.7876C66.3768 63.2124 65.9253 63.4734 65.4363 63.4734L65.4354 63.4724Z" fill="white"/>
</svg>
