<svg width="197" height="56" viewBox="0 0 197 56" fill="none" xmlns="http://www.w3.org/2000/svg">
<path d="M6.9351 51.8339C7.06998 51.8339 7.19175 51.8851 7.3004 51.9873C7.4128 52.0861 7.469 52.1972 7.469 52.3206C7.469 52.4193 7.45027 52.504 7.4128 52.5745C7.22547 52.9624 6.95945 53.3239 6.61476 53.6589C6.27381 53.9904 5.8673 54.2566 5.39522 54.4576C4.92313 54.6586 4.39298 54.7591 3.80475 54.7591C3.22402 54.7591 2.69948 54.6551 2.23115 54.447C1.76281 54.239 1.36192 53.9551 1.02846 53.5954C0.698755 53.2322 0.443981 52.8161 0.264141 52.347C0.0880469 51.8745 0 51.3755 0 50.8501C0 50.3317 0.0899203 49.838 0.269761 49.369C0.449601 48.8999 0.706249 48.4856 1.0397 48.1259C1.37316 47.7627 1.77218 47.477 2.23677 47.269C2.70135 47.0609 3.2184 46.9569 3.78789 46.9569C4.36488 46.9569 4.88754 47.0538 5.35588 47.2478C5.82796 47.4382 6.23635 47.6939 6.58104 48.0148C6.92948 48.3322 7.20112 48.6813 7.39594 49.0622C7.43716 49.1362 7.45776 49.2138 7.45776 49.2949C7.45776 49.4254 7.40718 49.5453 7.30602 49.6546C7.20861 49.7604 7.09434 49.8133 6.9632 49.8133C6.83581 49.8133 6.71967 49.7886 6.61476 49.7392C6.5136 49.6863 6.43679 49.6088 6.38434 49.5065C6.17453 49.0974 5.84482 48.7465 5.39522 48.4538C4.94936 48.1611 4.41359 48.0148 3.78789 48.0148C3.24462 48.0148 2.77254 48.1453 2.37165 48.4062C1.9745 48.6672 1.66727 49.0146 1.44996 49.4483C1.23266 49.8785 1.124 50.3493 1.124 50.8606C1.124 51.3755 1.23078 51.8481 1.44434 52.2783C1.66165 52.7085 1.96888 53.0523 2.36603 53.3098C2.76692 53.5672 3.24275 53.6959 3.79351 53.6959C4.20565 53.6959 4.58219 53.6254 4.92313 53.4843C5.26783 53.3397 5.56569 53.1493 5.81672 52.913C6.06775 52.6768 6.25883 52.4229 6.38996 52.1513C6.49112 51.9397 6.67283 51.8339 6.9351 51.8339Z" fill="#8734B3"/>
<path d="M14.3169 54.2619C14.3169 54.3994 14.2626 54.5193 14.1539 54.6216C14.049 54.7203 13.9347 54.7697 13.8111 54.7697C13.7062 54.7697 13.6144 54.7344 13.5357 54.6639C13.457 54.5969 13.4027 54.5458 13.3727 54.5105C13.0318 54.2848 12.7358 54.0292 12.4848 53.7435C12.2375 53.4543 12.0258 53.1405 11.8497 52.802C11.6961 52.4987 11.5387 52.2624 11.3776 52.0931C11.2203 51.9239 11.0292 51.804 10.8044 51.7334C10.5796 51.6629 10.2873 51.6259 9.92765 51.6224L9.41623 51.6171L9.42185 54.1773V54.1878C9.42185 54.3289 9.36565 54.4523 9.25325 54.5581C9.14459 54.6639 9.01346 54.7168 8.85985 54.7168C8.70623 54.7168 8.57322 54.6604 8.46082 54.5475C8.35217 54.4347 8.29784 54.3007 8.29784 54.1455L8.28098 47.581C8.28098 47.4329 8.33531 47.3095 8.44396 47.2108C8.55636 47.1085 8.6875 47.0556 8.83737 47.0521L10.3323 47.0468H10.4615C11.106 47.0468 11.6811 47.1367 12.1869 47.3166C12.6927 47.4929 13.0917 47.7591 13.384 48.1153C13.6762 48.468 13.8223 48.907 13.8223 49.4324C13.8223 49.771 13.7474 50.0725 13.5975 50.337C13.4514 50.6015 13.2584 50.8254 13.0187 51.0088C12.7789 51.1921 12.5203 51.335 12.2431 51.4372C12.3705 51.5889 12.4979 51.7758 12.6253 51.9979C12.8426 52.3894 13.0543 52.7367 13.2603 53.04C13.4664 53.3397 13.738 53.6042 14.0752 53.8334C14.1427 53.8758 14.1989 53.9357 14.2438 54.0133C14.2925 54.0873 14.3169 54.1702 14.3169 54.2619ZM10.4896 48.1047H9.40499L9.41623 50.6332L10.5009 50.6226C11.1903 50.6156 11.7298 50.5168 12.1195 50.3264C12.5129 50.136 12.7096 49.8309 12.7096 49.4113C12.7096 48.981 12.5016 48.6566 12.0857 48.438C11.6699 48.2158 11.1378 48.1047 10.4896 48.1047Z" fill="#8734B3"/>
<path d="M15.1626 47.5758C15.1626 47.4347 15.2169 47.3148 15.3256 47.2161C15.438 47.1138 15.571 47.0627 15.7246 47.0627L20.5409 47.068H20.5466C20.7002 47.068 20.8313 47.1208 20.94 47.2266C21.0524 47.3289 21.1086 47.4523 21.1086 47.5969C21.1086 47.7415 21.0524 47.8667 20.94 47.9725C20.8313 48.0748 20.7002 48.1259 20.5466 48.1259H20.5409L16.2866 48.1206L16.2922 50.2894L20.0801 50.3158C20.2412 50.3158 20.3742 50.3687 20.4791 50.4745C20.5878 50.5803 20.6421 50.7161 20.6421 50.8818C20.6421 51.0229 20.584 51.1428 20.4679 51.2415C20.3517 51.3367 20.2225 51.3843 20.0801 51.3843H20.0745L16.2978 51.3579L16.3034 53.5954L20.5409 53.5901H20.5466C20.7002 53.5901 20.8313 53.643 20.94 53.7488C21.0524 53.8511 21.1086 53.9745 21.1086 54.1191C21.1086 54.2637 21.0524 54.3889 20.94 54.4946C20.8313 54.5969 20.7002 54.648 20.5466 54.648H20.5409L15.7414 54.6533C15.5878 54.6533 15.4548 54.6022 15.3424 54.4999C15.2338 54.3941 15.1794 54.2707 15.1794 54.1297L15.1626 47.5758Z" fill="#8734B3"/>
<path d="M24.9272 47.2637C24.9685 47.1755 25.0378 47.1015 25.1352 47.0415C25.2363 46.978 25.3394 46.9463 25.4443 46.9463C25.5455 46.9463 25.6466 46.978 25.7478 47.0415C25.8527 47.1015 25.9239 47.1755 25.9613 47.2637L29.0523 54.0133C29.0861 54.0838 29.1029 54.1561 29.1029 54.2302C29.1029 54.3747 29.0467 54.4999 28.9343 54.6057C28.8257 54.708 28.6945 54.7591 28.5409 54.7591C28.436 54.7591 28.333 54.7274 28.2318 54.6639C28.1307 54.6004 28.0595 54.5246 28.0183 54.4365L27.0572 52.3365L23.8538 52.2941L22.8703 54.4418C22.8329 54.5299 22.7635 54.6057 22.6624 54.6692C22.5612 54.7362 22.4582 54.7697 22.3533 54.7697C22.1997 54.7697 22.0667 54.7186 21.9543 54.6163C21.8456 54.5105 21.7913 54.3853 21.7913 54.2407C21.7913 54.1667 21.8081 54.0944 21.8419 54.0239L24.9272 47.2637ZM25.4443 48.8135L24.3371 51.2415L26.5683 51.2679L25.4443 48.8135Z" fill="#8734B3"/>
<path d="M29.6339 47.6022C29.6339 47.4576 29.6882 47.3342 29.7969 47.2319C29.9093 47.1261 30.0423 47.0732 30.1959 47.0732H30.2015L35.8159 47.0415H35.8272C35.9808 47.0415 36.1119 47.0944 36.2206 47.2002C36.333 47.3025 36.3892 47.4259 36.3892 47.5705C36.3892 47.7151 36.333 47.8402 36.2206 47.946C36.1119 48.0483 35.9808 48.0994 35.8272 48.0994H35.8215L33.5848 48.11L33.5567 54.1826V54.1878C33.5567 54.3289 33.5005 54.4506 33.3881 54.5528C33.2794 54.6551 33.1483 54.7062 32.9947 54.7062C32.8411 54.7062 32.708 54.6551 32.5956 54.5528C32.487 54.4506 32.4327 54.3289 32.4327 54.1878V54.1773L32.4608 48.1153L30.2015 48.1312H30.1959C30.0423 48.1312 29.9093 48.08 29.7969 47.9778C29.6882 47.872 29.6339 47.7468 29.6339 47.6022Z" fill="#8734B3"/>
<path d="M37.7744 54.6957C37.6208 54.6957 37.4878 54.6445 37.3754 54.5423C37.2667 54.4365 37.2124 54.3113 37.2124 54.1667L37.2068 47.5493C37.2068 47.4153 37.2592 47.2936 37.3641 47.1843C37.469 47.075 37.5945 47.0203 37.7407 47.0203C37.913 47.0203 38.0535 47.0715 38.1622 47.1737C38.2746 47.2725 38.3308 47.3977 38.3308 47.5493L38.3364 54.1667C38.3364 54.3113 38.2802 54.4365 38.1678 54.5423C38.0591 54.6445 37.928 54.6957 37.7744 54.6957Z" fill="#8734B3"/>
<path d="M39.1596 47.5546C39.1596 47.4312 39.2139 47.3183 39.3226 47.2161C39.435 47.1138 39.5586 47.0627 39.6935 47.0627C39.9633 47.0627 40.145 47.1685 40.2386 47.38L42.9531 53.1881L45.3978 47.3219C45.4877 47.0997 45.6713 46.9886 45.9486 46.9886C46.0872 46.9886 46.2109 47.0397 46.3195 47.142C46.4282 47.2407 46.4825 47.3536 46.4825 47.4805C46.4825 47.5793 46.4694 47.6604 46.4431 47.7239L43.5095 54.7274C43.472 54.8156 43.4046 54.8931 43.3072 54.9601C43.2135 55.0307 43.1067 55.0659 42.9868 55.0659C42.7508 55.0659 42.5803 54.9601 42.4754 54.7486L39.2102 47.8138C39.1765 47.7503 39.1596 47.6639 39.1596 47.5546Z" fill="#8734B3"/>
<path d="M47.1652 47.5758C47.1652 47.4347 47.2195 47.3148 47.3282 47.2161C47.4406 47.1138 47.5736 47.0627 47.7272 47.0627L52.5436 47.068H52.5492C52.7028 47.068 52.8339 47.1208 52.9426 47.2266C53.055 47.3289 53.1112 47.4523 53.1112 47.5969C53.1112 47.7415 53.055 47.8667 52.9426 47.9725C52.8339 48.0748 52.7028 48.1259 52.5492 48.1259H52.5436L48.2892 48.1206L48.2948 50.2894L52.0827 50.3158C52.2438 50.3158 52.3768 50.3687 52.4817 50.4745C52.5904 50.5803 52.6447 50.7161 52.6447 50.8818C52.6447 51.0229 52.5867 51.1428 52.4705 51.2415C52.3544 51.3367 52.2251 51.3843 52.0827 51.3843H52.0771L48.3004 51.3579L48.3061 53.5954L52.5436 53.5901H52.5492C52.7028 53.5901 52.8339 53.643 52.9426 53.7488C53.055 53.8511 53.1112 53.9745 53.1112 54.1191C53.1112 54.2637 53.055 54.3889 52.9426 54.4946C52.8339 54.5969 52.7028 54.648 52.5492 54.648H52.5436L47.7441 54.6533C47.5905 54.6533 47.4574 54.6022 47.345 54.4999C47.2364 54.3941 47.1821 54.2707 47.1821 54.1297L47.1652 47.5758Z" fill="#8734B3"/>
<path d="M59.5881 51.0078C59.5881 50.3433 60.1786 49.7881 60.8853 49.7881C61.592 49.7881 62.1824 50.3433 62.1824 51.0078C62.1824 51.6723 61.592 52.2274 60.8853 52.2274C60.1786 52.2274 59.5881 51.6723 59.5881 51.0078Z" fill="#8734B3"/>
<path d="M119.18 51.0078C119.18 50.3433 119.77 49.7881 120.477 49.7881C121.184 49.7881 121.774 50.3433 121.774 51.0078C121.774 51.6723 121.184 52.2274 120.477 52.2274C119.77 52.2274 119.18 51.6723 119.18 51.0078Z" fill="#8734B3"/>
<path d="M71.2862 47.0613H71.3724C72.0468 47.0613 72.6388 47.1746 73.1485 47.401C73.6581 47.6238 74.0834 47.927 74.4245 48.3105C74.7694 48.6904 75.028 49.1177 75.2004 49.5926C75.3767 50.0638 75.4648 50.5459 75.4648 51.039C75.4648 51.7914 75.2867 52.4617 74.9303 53.0497C74.5778 53.6378 74.0547 54.0998 73.3611 54.4359C72.6714 54.7719 71.8207 54.9399 70.8091 54.9399H70.539L69.2285 54.929C69.0752 54.9253 68.9411 54.8687 68.8261 54.7591C68.715 54.6495 68.6594 54.518 68.6594 54.3646L68.6997 47.6421C68.6997 47.496 68.7552 47.37 68.8663 47.2641C68.9775 47.1545 69.1097 47.0979 69.2629 47.0942L71.2862 47.0613ZM74.4417 51.0061C74.4417 50.3267 74.2904 49.7789 73.9876 49.3625C73.6849 48.9461 73.2596 48.6429 72.7116 48.453C72.1637 48.2594 71.5199 48.1626 70.7804 48.1626C70.6233 48.1626 70.4662 48.1644 70.309 48.1681C70.1558 48.1717 70.0006 48.1772 69.8435 48.1845L69.809 53.8222L70.5505 53.8332C71.3207 53.8332 71.997 53.7455 72.5794 53.5702C73.1657 53.3912 73.6217 53.0954 73.9474 52.6826C74.277 52.2699 74.4417 51.7111 74.4417 51.0061Z" fill="#8734B3"/>
<path d="M77.5481 54.9892C77.391 54.9892 77.2549 54.9363 77.14 54.8303C77.0289 54.7208 76.9733 54.5911 76.9733 54.4413L76.9675 47.5873C76.9675 47.4485 77.0212 47.3225 77.1285 47.2093C77.2358 47.096 77.3641 47.0394 77.5136 47.0394C77.6899 47.0394 77.8335 47.0924 77.9447 47.1983C78.0596 47.3006 78.1171 47.4303 78.1171 47.5873L78.1229 54.4413C78.1229 54.5911 78.0654 54.7208 77.9504 54.8303C77.8393 54.9363 77.7052 54.9892 77.5481 54.9892Z" fill="#8734B3"/>
<path d="M79.3727 51.1047C79.3727 50.5678 79.4723 50.051 79.6715 49.5542C79.8746 49.0575 80.1601 48.6155 80.528 48.2283C80.8997 47.8375 81.3403 47.5289 81.85 47.3024C82.3634 47.076 82.9306 46.9627 83.5513 46.9627C84.1223 46.9627 84.6396 47.0376 85.1032 47.1874C85.5707 47.3371 86.0076 47.549 86.4137 47.8229C86.5785 47.9288 86.6609 48.0749 86.6609 48.2612C86.6609 48.4073 86.6034 48.5352 86.4885 48.6447C86.3773 48.7507 86.2432 48.8036 86.0861 48.8036C85.9635 48.8036 85.8504 48.7689 85.747 48.6995C85.4481 48.5059 85.1109 48.3525 84.7354 48.2393C84.3598 48.1224 83.9747 48.064 83.5801 48.064C83.1317 48.064 82.7198 48.1462 82.3443 48.3105C81.9726 48.4712 81.6488 48.694 81.3729 48.9789C81.1008 49.2602 80.8882 49.5816 80.7349 49.9432C80.5854 50.3048 80.5107 50.6847 80.5107 51.0828C80.5107 51.627 80.6353 52.111 80.8843 52.5347C81.1372 52.9584 81.4879 53.2908 81.9362 53.5319C82.3883 53.7729 82.9133 53.8935 83.5111 53.8935C83.8406 53.8935 84.1663 53.8624 84.4882 53.8003C84.8139 53.7382 85.1109 53.667 85.3791 53.5866L85.3619 51.7184H83.6088C83.4517 51.7184 83.3157 51.6654 83.2007 51.5595C83.0896 51.4499 83.034 51.3202 83.034 51.1705C83.034 51.0207 83.0896 50.8929 83.2007 50.787C83.3157 50.6774 83.4517 50.6226 83.6088 50.6226H85.9367C86.0938 50.6226 86.2279 50.6756 86.339 50.7815C86.454 50.8874 86.5114 51.0152 86.5114 51.165L86.5344 53.9647V53.9702C86.5344 54.0724 86.4999 54.1711 86.431 54.266C86.362 54.361 86.2758 54.4267 86.1723 54.4633C85.8045 54.6021 85.3983 54.7262 84.9538 54.8358C84.5093 54.9417 84.0418 54.9947 83.5513 54.9947C82.7466 54.9947 82.0281 54.8285 81.3959 54.4961C80.7675 54.1638 80.2732 53.7054 79.913 53.1209C79.5528 52.5365 79.3727 51.8645 79.3727 51.1047Z" fill="#8734B3"/>
<path d="M88.6004 54.9892C88.4433 54.9892 88.3073 54.9363 88.1923 54.8303C88.0812 54.7208 88.0256 54.5911 88.0256 54.4413L88.0199 47.5873C88.0199 47.4485 88.0735 47.3225 88.1808 47.2093C88.2881 47.096 88.4165 47.0394 88.5659 47.0394C88.7422 47.0394 88.8859 47.0924 88.997 47.1983C89.112 47.3006 89.1695 47.4303 89.1695 47.5873L89.1752 54.4413C89.1752 54.5911 89.1177 54.7208 89.0028 54.8303C88.8917 54.9363 88.7575 54.9892 88.6004 54.9892Z" fill="#8734B3"/>
<path d="M90.2526 47.6421C90.2526 47.4923 90.3081 47.3645 90.4193 47.2586C90.5342 47.149 90.6703 47.0942 90.8274 47.0942H90.8331L96.5752 47.0613H96.5867C96.7438 47.0613 96.8779 47.1161 96.989 47.2257C97.104 47.3316 97.1615 47.4595 97.1615 47.6092C97.1615 47.759 97.104 47.8886 96.989 47.9982C96.8779 48.1042 96.7438 48.1571 96.5867 48.1571H96.5809L94.2933 48.1681L94.2646 54.4578V54.4633C94.2646 54.6094 94.2071 54.7354 94.0921 54.8413C93.981 54.9472 93.8469 55.0002 93.6898 55.0002C93.5327 55.0002 93.3966 54.9472 93.2817 54.8413C93.1706 54.7354 93.115 54.6094 93.115 54.4633V54.4523L93.1437 48.1735L90.8331 48.19H90.8274C90.6703 48.19 90.5342 48.137 90.4193 48.0311C90.3081 47.9215 90.2526 47.7919 90.2526 47.6421Z" fill="#8734B3"/>
<path d="M101.153 47.2915C101.195 47.2001 101.266 47.1234 101.366 47.0613C101.469 46.9956 101.574 46.9627 101.682 46.9627C101.785 46.9627 101.889 46.9956 101.992 47.0613C102.099 47.1234 102.172 47.2001 102.211 47.2915L105.372 54.2825C105.406 54.3555 105.424 54.4304 105.424 54.5071C105.424 54.6568 105.366 54.7865 105.251 54.8961C105.14 55.002 105.006 55.055 104.849 55.055C104.742 55.055 104.636 55.0221 104.533 54.9564C104.429 54.8906 104.356 54.8121 104.314 54.7208L103.331 52.5457L100.055 52.5018L99.0493 54.7262C99.0109 54.8176 98.9401 54.8961 98.8366 54.9618C98.7331 55.0312 98.6278 55.0659 98.5205 55.0659C98.3634 55.0659 98.2273 55.013 98.1124 54.907C98.0012 54.7975 97.9457 54.6678 97.9457 54.518C97.9457 54.4413 97.9629 54.3665 97.9974 54.2934L101.153 47.2915ZM101.682 48.8968L100.549 51.4115L102.831 51.4389L101.682 48.8968Z" fill="#8734B3"/>
<path d="M107.196 54.9783C107.039 54.9783 106.903 54.9253 106.788 54.8194C106.677 54.7098 106.622 54.582 106.622 54.4359L106.604 47.4832V47.4777C106.604 47.3316 106.66 47.2074 106.771 47.1052C106.886 46.9993 107.022 46.9463 107.179 46.9463C107.336 46.9463 107.47 46.9993 107.582 47.1052C107.697 47.2074 107.754 47.3316 107.754 47.4777L107.771 53.8825L112.122 53.8715H112.128C112.285 53.8715 112.419 53.9263 112.53 54.0359C112.645 54.1418 112.703 54.2697 112.703 54.4194C112.703 54.5692 112.645 54.6989 112.53 54.8084C112.419 54.9144 112.285 54.9673 112.128 54.9673H112.122L107.196 54.9783Z" fill="#8734B3"/>
<path d="M128.819 54.6957C128.665 54.6957 128.532 54.6445 128.42 54.5423C128.311 54.4365 128.257 54.3113 128.257 54.1667L128.251 47.5493C128.251 47.4153 128.303 47.2936 128.408 47.1843C128.513 47.075 128.639 47.0203 128.785 47.0203C128.958 47.0203 129.098 47.0715 129.207 47.1737C129.32 47.2725 129.376 47.3977 129.376 47.5493L129.382 54.1667C129.382 54.3113 129.325 54.4365 129.213 54.5423C129.104 54.6445 128.973 54.6957 128.819 54.6957Z" fill="#8734B3"/>
<path d="M130.717 47.5758C130.717 47.4276 130.773 47.306 130.886 47.2108C131.002 47.112 131.139 47.0627 131.296 47.0627C131.473 47.0627 131.617 47.1297 131.729 47.2637L135.976 52.6856V47.5916C135.976 47.4506 136.03 47.3307 136.139 47.2319C136.252 47.1297 136.385 47.0785 136.538 47.0785C136.692 47.0785 136.823 47.1297 136.932 47.2319C137.045 47.3307 137.101 47.4506 137.101 47.5916L137.095 54.2249C137.095 54.373 137.037 54.4964 136.921 54.5952C136.808 54.6904 136.673 54.738 136.516 54.738C136.34 54.738 136.195 54.6674 136.083 54.5264L131.842 49.1098V54.2196C131.842 54.3606 131.786 54.4823 131.673 54.5846C131.564 54.6833 131.433 54.7327 131.279 54.7327C131.126 54.7327 130.993 54.6833 130.88 54.5846C130.771 54.4823 130.717 54.3606 130.717 54.2196V47.5758Z" fill="#8734B3"/>
<path d="M138.296 47.5758C138.296 47.4276 138.352 47.306 138.464 47.2108C138.581 47.112 138.718 47.0627 138.875 47.0627C139.051 47.0627 139.196 47.1297 139.308 47.2637L143.555 52.6856V47.5916C143.555 47.4506 143.609 47.3307 143.718 47.2319C143.83 47.1297 143.963 47.0785 144.117 47.0785C144.271 47.0785 144.402 47.1297 144.511 47.2319C144.623 47.3307 144.68 47.4506 144.68 47.5916L144.674 54.2249C144.674 54.373 144.616 54.4964 144.5 54.5952C144.387 54.6904 144.252 54.738 144.095 54.738C143.918 54.738 143.774 54.6674 143.662 54.5264L139.421 49.1098V54.2196C139.421 54.3606 139.364 54.4823 139.252 54.5846C139.143 54.6833 139.012 54.7327 138.858 54.7327C138.704 54.7327 138.571 54.6833 138.459 54.5846C138.35 54.4823 138.296 54.3606 138.296 54.2196V47.5758Z" fill="#8734B3"/>
<path d="M149.671 46.9674C150.245 46.9674 150.772 47.0732 151.252 47.2848C151.735 47.4929 152.155 47.7803 152.511 48.147C152.868 48.5103 153.143 48.9299 153.338 49.406C153.533 49.8785 153.631 50.381 153.631 50.9135C153.631 51.446 153.533 51.9468 153.338 52.4158C153.147 52.8813 152.875 53.2921 152.523 53.6483C152.17 54.0045 151.752 54.2831 151.268 54.4841C150.788 54.6851 150.258 54.7856 149.677 54.7856C149.084 54.7856 148.546 54.6851 148.062 54.4841C147.579 54.2795 147.162 53.9992 146.814 53.643C146.469 53.2833 146.203 52.869 146.015 52.3999C145.828 51.9274 145.734 51.4214 145.734 50.8818C145.734 50.3564 145.831 49.8591 146.026 49.3901C146.225 48.9211 146.501 48.505 146.853 48.1418C147.209 47.775 147.626 47.4876 148.102 47.2795C148.582 47.0715 149.105 46.9674 149.671 46.9674ZM149.694 48.0413C149.139 48.0413 148.647 48.177 148.22 48.4486C147.796 48.7201 147.462 49.0798 147.219 49.5276C146.979 49.972 146.859 50.4586 146.859 50.9876C146.859 51.3473 146.932 51.6911 147.078 52.0191C147.224 52.347 147.427 52.6397 147.686 52.8972C147.944 53.1511 148.242 53.3521 148.58 53.5002C148.921 53.6448 149.285 53.7171 149.671 53.7171C150.057 53.7171 150.421 53.6412 150.762 53.4896C151.107 53.338 151.411 53.1334 151.673 52.876C151.94 52.6186 152.148 52.3294 152.298 52.0085C152.448 51.6841 152.523 51.3526 152.523 51.014C152.523 50.4674 152.395 49.9702 152.14 49.5224C151.889 49.071 151.55 48.7113 151.122 48.4433C150.695 48.1753 150.218 48.0413 149.694 48.0413Z" fill="#8734B3"/>
<path d="M154.398 47.5546C154.398 47.4312 154.452 47.3183 154.561 47.2161C154.674 47.1138 154.797 47.0627 154.932 47.0627C155.202 47.0627 155.384 47.1685 155.478 47.38L158.195 53.1881L160.641 47.3219C160.731 47.0997 160.915 46.9886 161.193 46.9886C161.331 46.9886 161.455 47.0397 161.564 47.142C161.673 47.2407 161.727 47.3536 161.727 47.4805C161.727 47.5793 161.714 47.6604 161.688 47.7239L158.751 54.7274C158.714 54.8156 158.647 54.8931 158.549 54.9601C158.455 55.0307 158.348 55.0659 158.228 55.0659C157.992 55.0659 157.822 54.9601 157.717 54.7486L154.449 47.8138C154.415 47.7503 154.398 47.6639 154.398 47.5546Z" fill="#8734B3"/>
<path d="M165.638 47.2637C165.68 47.1755 165.749 47.1015 165.847 47.0415C165.948 46.978 166.051 46.9463 166.156 46.9463C166.257 46.9463 166.358 46.978 166.46 47.0415C166.565 47.1015 166.636 47.1755 166.673 47.2637L169.767 54.0133C169.801 54.0838 169.817 54.1561 169.817 54.2302C169.817 54.3747 169.761 54.4999 169.649 54.6057C169.54 54.708 169.409 54.7591 169.255 54.7591C169.15 54.7591 169.047 54.7274 168.946 54.6639C168.844 54.6004 168.773 54.5246 168.732 54.4365L167.77 52.3365L164.564 52.2941L163.58 54.4418C163.542 54.5299 163.473 54.6057 163.372 54.6692C163.27 54.7362 163.167 54.7697 163.062 54.7697C162.909 54.7697 162.776 54.7186 162.663 54.6163C162.554 54.5105 162.5 54.3853 162.5 54.2407C162.5 54.1667 162.517 54.0944 162.551 54.0239L165.638 47.2637ZM166.156 48.8135L165.048 51.2415L167.281 51.2679L166.156 48.8135Z" fill="#8734B3"/>
<path d="M170.579 47.6022C170.579 47.4576 170.634 47.3342 170.742 47.2319C170.855 47.1261 170.988 47.0732 171.142 47.0732H171.147L176.766 47.0415H176.777C176.931 47.0415 177.062 47.0944 177.171 47.2002C177.284 47.3025 177.34 47.4259 177.34 47.5705C177.34 47.7151 177.284 47.8402 177.171 47.946C177.062 48.0483 176.931 48.0994 176.777 48.0994H176.772L174.533 48.11L174.505 54.1826V54.1878C174.505 54.3289 174.449 54.4506 174.336 54.5528C174.228 54.6551 174.096 54.7062 173.943 54.7062C173.789 54.7062 173.656 54.6551 173.543 54.5528C173.435 54.4506 173.38 54.3289 173.38 54.1878V54.1773L173.408 48.1153L171.147 48.1312H171.142C170.988 48.1312 170.855 48.08 170.742 47.9778C170.634 47.872 170.579 47.7468 170.579 47.6022Z" fill="#8734B3"/>
<path d="M178.957 54.6957C178.803 54.6957 178.67 54.6445 178.557 54.5423C178.449 54.4365 178.394 54.3113 178.394 54.1667L178.389 47.5493C178.389 47.4153 178.441 47.2936 178.546 47.1843C178.651 47.075 178.777 47.0203 178.923 47.0203C179.095 47.0203 179.236 47.0715 179.345 47.1737C179.457 47.2725 179.513 47.3977 179.513 47.5493L179.519 54.1667C179.519 54.3113 179.463 54.4365 179.35 54.5423C179.242 54.6445 179.11 54.6957 178.957 54.6957Z" fill="#8734B3"/>
<path d="M184.651 46.9674C185.225 46.9674 185.752 47.0732 186.232 47.2848C186.715 47.4929 187.135 47.7803 187.492 48.147C187.848 48.5103 188.123 48.9299 188.318 49.406C188.513 49.8785 188.611 50.381 188.611 50.9135C188.611 51.446 188.513 51.9468 188.318 52.4158C188.127 52.8813 187.855 53.2921 187.503 53.6483C187.15 54.0045 186.732 54.2831 186.249 54.4841C185.769 54.6851 185.238 54.7856 184.657 54.7856C184.064 54.7856 183.526 54.6851 183.043 54.4841C182.559 54.2795 182.143 53.9992 181.794 53.643C181.449 53.2833 181.183 52.869 180.995 52.3999C180.808 51.9274 180.714 51.4214 180.714 50.8818C180.714 50.3564 180.811 49.8591 181.006 49.3901C181.205 48.9211 181.481 48.505 181.833 48.1418C182.189 47.775 182.606 47.4876 183.082 47.2795C183.562 47.0715 184.085 46.9674 184.651 46.9674ZM184.674 48.0413C184.119 48.0413 183.627 48.177 183.2 48.4486C182.776 48.7201 182.443 49.0798 182.199 49.5276C181.959 49.972 181.839 50.4586 181.839 50.9876C181.839 51.3473 181.912 51.6911 182.058 52.0191C182.204 52.347 182.407 52.6397 182.666 52.8972C182.924 53.1511 183.223 53.3521 183.56 53.5002C183.901 53.6448 184.265 53.7171 184.651 53.7171C185.037 53.7171 185.401 53.6412 185.742 53.4896C186.087 53.338 186.391 53.1334 186.653 52.876C186.92 52.6186 187.128 52.3294 187.278 52.0085C187.428 51.6841 187.503 51.3526 187.503 51.014C187.503 50.4674 187.375 49.9702 187.12 49.5224C186.869 49.071 186.53 48.7113 186.102 48.4433C185.675 48.1753 185.199 48.0413 184.674 48.0413Z" fill="#8734B3"/>
<path d="M189.659 47.5758C189.659 47.4276 189.716 47.306 189.828 47.2108C189.944 47.112 190.081 47.0627 190.239 47.0627C190.415 47.0627 190.559 47.1297 190.672 47.2637L194.918 52.6856V47.5916C194.918 47.4506 194.973 47.3307 195.082 47.2319C195.194 47.1297 195.327 47.0785 195.481 47.0785C195.635 47.0785 195.766 47.1297 195.875 47.2319C195.987 47.3307 196.043 47.4506 196.043 47.5916L196.038 54.2249C196.038 54.373 195.98 54.4964 195.863 54.5952C195.751 54.6904 195.616 54.738 195.458 54.738C195.282 54.738 195.138 54.6674 195.025 54.5264L190.784 49.1098V54.2196C190.784 54.3606 190.728 54.4823 190.616 54.5846C190.507 54.6833 190.376 54.7327 190.222 54.7327C190.068 54.7327 189.935 54.6833 189.823 54.5846C189.714 54.4823 189.659 54.3606 189.659 54.2196V47.5758Z" fill="#8734B3"/>
<path d="M34.3077 34.7032C34.3077 36.243 33.0064 37.4962 31.4519 37.4962C30.2127 37.4962 29.1423 36.736 28.8071 35.7305L26.4553 29.6321H7.85245L5.50064 35.7305C5.10082 36.7166 4.03051 37.4962 2.85588 37.4962C1.28142 37.4962 0 36.2236 0 34.7032C0 34.3753 0.104285 33.9843 0.230936 33.6564L12.5758 3.39014C13.2488 1.62448 15.0542 0.310547 17.1328 0.310547C19.2113 0.310547 21.0168 1.62448 21.732 3.39014L34.0768 33.6564C34.2034 33.943 34.3077 34.334 34.3077 34.7032ZM24.6077 24.765L17.1328 5.38165L9.71988 24.765H24.6053H24.6077Z" fill="#8734B3"/>
<path d="M70.9874 20.9256V29.324C70.9874 30.803 70.5875 31.9105 69.475 32.8966C65.9908 35.9762 61.4537 37.9482 55.8909 37.9482C45.1628 37.9482 36.4685 30.3707 36.4685 18.9535C36.4685 7.53621 45.1826 0 55.8909 0C61.4959 0 65.6133 1.9308 68.7622 4.98852C69.2663 5.42083 69.5395 6.07657 69.5395 6.79546C69.5395 8.23325 68.3649 9.32131 66.8948 9.32131C66.2218 9.32131 65.5512 9.05414 65.0471 8.60241C62.7376 6.34373 59.5465 4.86465 55.8934 4.86465C48.0832 4.86465 42.2448 10.6959 42.2448 18.9292C42.2448 27.1624 48.0807 33.035 55.8934 33.035C60.0506 33.035 63.577 31.0629 65.3849 29.4017V22.8102H55.5581C54.2146 22.8102 53.0797 21.7222 53.0797 20.3451C53.0797 18.9681 54.1923 17.9844 55.5581 17.9844H68.0296C69.9195 18.0039 70.9898 19.0531 70.9898 20.9207L70.9874 20.9256Z" fill="#8734B3"/>
<path d="M78.1689 34.7665V3.08179C78.1689 1.60271 79.4702 0.330078 81.0248 0.330078C82.5794 0.330078 83.7764 1.60271 83.7764 3.08179V34.7665C83.7764 36.2455 82.5372 37.5182 81.0248 37.5182C79.5124 37.5182 78.1689 36.2455 78.1689 34.7665Z" fill="#8734B3"/>
<path d="M92.1528 34.3341V3.08179C92.1528 1.60271 93.4541 0.330078 95.0087 0.330078C96.5633 0.330078 97.7602 1.60271 97.7602 3.08179V32.4033H112.521C113.865 32.4033 115.042 33.4501 115.042 34.764C115.042 36.0779 113.867 37.2291 112.521 37.2291H95.1999C93.2257 37.2486 92.1553 36.2018 92.1553 34.3341H92.1528Z" fill="#8734B3"/>
<path d="M120.98 34.7665V3.08179C120.98 1.60271 122.281 0.330078 123.836 0.330078C125.39 0.330078 126.587 1.60271 126.587 3.08179V34.7665C126.587 36.2455 125.348 37.5182 123.836 37.5182C122.323 37.5182 120.98 36.2455 120.98 34.7665Z" fill="#8734B3"/>
<path d="M144.117 34.7665V5.44494H134.668C133.325 5.44494 132.19 4.39819 132.19 3.08427C132.19 1.77034 133.302 0.619141 134.668 0.619141H159.107C160.45 0.619141 161.628 1.7072 161.628 3.08427C161.628 4.46133 160.453 5.44494 159.107 5.44494H149.722V34.7665C149.722 36.2456 148.421 37.5182 146.909 37.5182C145.396 37.5182 144.117 36.2456 144.117 34.7665Z" fill="#8734B3"/>
<path d="M195.558 4.3957L183.549 21.9114V34.7665C183.549 36.2455 182.309 37.5182 180.735 37.5182C179.16 37.5182 177.921 36.2455 177.921 34.7665V21.9114L165.85 4.437C165.576 4.04598 165.407 3.51409 165.407 2.95792C165.407 1.47885 166.647 0.330078 168.094 0.330078C169.038 0.330078 169.9 0.762382 170.404 1.54199L180.735 17.0249L191.001 1.54199C191.505 0.823099 192.345 0.330078 193.311 0.330078C194.781 0.330078 195.998 1.47885 195.998 2.95792C195.998 3.51166 195.829 4.00468 195.556 4.3957H195.558Z" fill="#8734B3"/>
</svg>
