<svg width="164" height="49" viewBox="0 0 164 49" fill="none" xmlns="http://www.w3.org/2000/svg">
<path fill-rule="evenodd" clip-rule="evenodd" d="M37.7305 19.2476C38.3892 19.0354 38.7563 18.3132 38.5504 17.6344C38.3446 16.9556 37.6438 16.5773 36.9851 16.7894L30.321 18.9356L29.877 19.0786L29.6318 19.486L20.5996 34.4953C21.4298 34.7409 22.1537 35.2453 22.6838 35.9184L31.5104 21.2507L37.7305 19.2476ZM15.4776 37.3211C15.7383 36.4748 16.2467 35.7422 16.9151 35.2138L7.09572 28.3966C6.5234 27.9993 5.74687 28.1553 5.3613 28.7451C4.97573 29.3349 5.12713 30.1351 5.69946 30.5325L15.4776 37.3211Z" fill="black"/>
<path fill-rule="evenodd" clip-rule="evenodd" d="M19.3031 39.4646C20.0139 39.4646 20.59 38.7924 20.59 37.9632C20.59 37.134 20.0139 36.4618 19.3031 36.4618C18.5924 36.4618 18.0162 37.134 18.0162 37.9632C18.0162 38.7924 18.5924 39.4646 19.3031 39.4646ZM19.3031 42.4674C21.4353 42.4674 23.1639 40.4508 23.1639 37.9632C23.1639 35.4756 21.4353 33.459 19.3031 33.459C17.1709 33.459 15.4424 35.4756 15.4424 37.9632C15.4424 40.4508 17.1709 42.4674 19.3031 42.4674Z" fill="black"/>
<path d="M12.771 0.518145C12.9115 0.226842 13.2699 0.116368 13.55 0.278066L32.0198 10.9416C32.2989 11.1028 32.383 11.4666 32.2031 11.7338L18.1922 32.5405C18.029 32.7829 17.706 32.8576 17.4529 32.7115L2.09548 23.8449C1.84337 23.6994 1.74618 23.384 1.87261 23.1218L12.771 0.518145Z" fill="white"/>
<path d="M14.679 21.0082C14.5718 21.1378 14.2785 21.0386 13.799 20.7106C13.3262 20.3872 13.1434 20.1463 13.2509 19.9879C13.3584 19.8296 13.5244 19.5567 13.7489 19.1693C14.5254 17.8552 15.1101 16.8591 15.503 16.1811L18.7455 10.6173C19.4122 9.47923 19.8395 8.77165 20.0276 8.49455C20.162 8.29661 20.8713 8.46299 22.1556 8.99369C22.6342 9.19543 22.9917 9.37717 23.2282 9.5389C23.4646 9.70063 23.5604 9.81448 23.5157 9.88046C23.4753 9.93984 23.3391 10.1123 23.1068 10.3978L15.5334 19.9407C15.1761 20.3821 14.8913 20.738 14.679 21.0082ZM9.76873 23.1418C10.0912 22.6667 10.512 22.3797 11.0311 22.2808C11.5613 22.1797 12.0563 22.2864 12.5161 22.6009C13.2648 23.113 13.5565 23.7956 13.3911 24.6485C13.3377 24.9115 13.2303 25.1617 13.0691 25.3992C12.7557 25.8611 12.3316 26.1458 11.7969 26.2535C11.2712 26.3479 10.7653 26.2289 10.2793 25.8965C9.8195 25.582 9.53722 25.1619 9.43243 24.6362C9.33869 24.1083 9.45079 23.6102 9.76873 23.1418Z" fill="black"/>
<path d="M157.523 40.6971C156.348 40.6971 155.269 40.4243 154.284 39.8785C153.311 39.3328 152.534 38.5735 151.953 37.6007C151.383 36.6161 151.099 35.5128 151.099 34.2908C151.099 33.0689 151.383 31.9715 151.953 30.9987C152.534 30.0259 153.311 29.2666 154.284 28.7209C155.269 28.1752 156.348 27.9023 157.523 27.9023C158.697 27.9023 159.771 28.1752 160.744 28.7209C161.728 29.2666 162.499 30.0259 163.057 30.9987C163.626 31.9715 163.911 33.0689 163.911 34.2908C163.911 35.5128 163.626 36.6161 163.057 37.6007C162.488 38.5735 161.716 39.3328 160.744 39.8785C159.771 40.4243 158.697 40.6971 157.523 40.6971ZM157.523 37.9211C158.519 37.9211 159.314 37.5889 159.907 36.9245C160.512 36.2602 160.815 35.3823 160.815 34.2908C160.815 33.1875 160.512 32.3096 159.907 31.6571C159.314 30.9928 158.519 30.6606 157.523 30.6606C156.514 30.6606 155.708 30.9868 155.103 31.6393C154.509 32.2918 154.213 33.1757 154.213 34.2908C154.213 35.3941 154.509 36.278 155.103 36.9423C155.708 37.5948 156.514 37.9211 157.523 37.9211Z" fill="black"/>
<path d="M150.621 28.0811V30.519H147.311V40.5733H144.268V30.519H140.958V28.0811H150.621Z" fill="black"/>
<path d="M139.962 40.5733H136.919L131.83 32.868V40.5733H128.787V28.0811H131.83L136.919 35.822V28.0811H139.962V40.5733Z" fill="black"/>
<path d="M121.24 40.6971C120.065 40.6971 118.985 40.4243 118.001 39.8785C117.028 39.3328 116.251 38.5735 115.67 37.6007C115.1 36.6161 114.815 35.5128 114.815 34.2908C114.815 33.0689 115.1 31.9715 115.67 30.9987C116.251 30.0259 117.028 29.2666 118.001 28.7209C118.985 28.1752 120.065 27.9023 121.24 27.9023C122.414 27.9023 123.488 28.1752 124.46 28.7209C125.445 29.2666 126.216 30.0259 126.774 30.9987C127.343 31.9715 127.628 33.0689 127.628 34.2908C127.628 35.5128 127.343 36.6161 126.774 37.6007C126.204 38.5735 125.433 39.3328 124.46 39.8785C123.488 40.4243 122.414 40.6971 121.24 40.6971ZM121.24 37.9211C122.236 37.9211 123.031 37.5889 123.624 36.9245C124.229 36.2602 124.532 35.3823 124.532 34.2908C124.532 33.1875 124.229 32.3096 123.624 31.6571C123.031 30.9928 122.236 30.6606 121.24 30.6606C120.231 30.6606 119.424 30.9868 118.819 31.6393C118.226 32.2918 117.93 33.1757 117.93 34.2908C117.93 35.3941 118.226 36.278 118.819 36.9423C119.424 37.5948 120.231 37.9211 121.24 37.9211Z" fill="black"/>
<path d="M110.627 40.5733L108.029 35.8576H107.299V40.5733H104.256V28.0811H109.364C110.348 28.0811 111.185 28.2531 111.873 28.5971C112.573 28.9412 113.095 29.4157 113.439 30.0207C113.783 30.6139 113.955 31.2783 113.955 32.0138C113.955 32.8442 113.717 33.5857 113.243 34.2382C112.78 34.8907 112.092 35.3534 111.179 35.6262L114.062 40.5733H110.627ZM107.299 33.7043H109.186C109.743 33.7043 110.158 33.5679 110.431 33.2951C110.716 33.0222 110.858 32.6366 110.858 32.1384C110.858 31.6638 110.716 31.2901 110.431 31.0173C110.158 30.7444 109.743 30.608 109.186 30.608H107.299V33.7043Z" fill="black"/>
<path d="M103.206 32.1028C103.206 32.8264 103.04 33.4908 102.708 34.0958C102.376 34.689 101.865 35.1695 101.177 35.5373C100.489 35.905 99.6351 36.0889 98.6148 36.0889H96.7285V40.5733H93.6855V28.0811H98.6148C99.6114 28.0811 100.454 28.2531 101.142 28.5971C101.83 28.9412 102.346 29.4157 102.69 30.0207C103.034 30.6258 103.206 31.3198 103.206 32.1028ZM98.3835 33.6688C98.9648 33.6688 99.3978 33.5323 99.6825 33.2595C99.9673 32.9866 100.11 32.601 100.11 32.1028C100.11 31.6045 99.9673 31.2189 99.6825 30.9461C99.3978 30.6732 98.9648 30.5368 98.3835 30.5368H96.7285V33.6688H98.3835Z" fill="black"/>
<path d="M82.9016 40.6971C81.7271 40.6971 80.6476 40.4243 79.6629 39.8785C78.6901 39.3328 77.913 38.5735 77.3317 37.6007C76.7623 36.6161 76.4775 35.5128 76.4775 34.2908C76.4775 33.0689 76.7623 31.9715 77.3317 30.9987C77.913 30.0259 78.6901 29.2666 79.6629 28.7209C80.6476 28.1752 81.7271 27.9023 82.9016 27.9023C84.0761 27.9023 85.1497 28.1752 86.1226 28.7209C87.1072 29.2666 87.8783 30.0259 88.4359 30.9987C89.0054 31.9715 89.2901 33.0689 89.2901 34.2908C89.2901 35.5128 89.0054 36.6161 88.4359 37.6007C87.8665 38.5735 87.0954 39.3328 86.1226 39.8785C85.1497 40.4243 84.0761 40.6971 82.9016 40.6971ZM82.9016 37.9211C83.8981 37.9211 84.693 37.5889 85.2862 36.9245C85.8912 36.2602 86.1937 35.3823 86.1937 34.2908C86.1937 33.1875 85.8912 32.3096 85.2862 31.6571C84.693 30.9928 83.8981 30.6606 82.9016 30.6606C81.8932 30.6606 81.0865 30.9868 80.4815 31.6393C79.8883 32.2918 79.5917 33.1757 79.5917 34.2908C79.5917 35.3941 79.8883 36.278 80.4815 36.9423C81.0865 37.5948 81.8932 37.9211 82.9016 37.9211Z" fill="black"/>
<path d="M72.1835 38.3675H67.5211L66.7737 40.5741H63.5884L68.1084 28.0818H71.6318L76.1518 40.5741H72.9309L72.1835 38.3675ZM71.4005 36.0185L69.8523 31.4451L68.3219 36.0185H71.4005ZM66.311 27.2099C66.5958 25.4541 67.4144 24.5762 68.7668 24.5762C69.0278 24.5762 69.2532 24.6177 69.443 24.7007C69.6447 24.7719 69.8879 24.8846 70.1726 25.0388C70.3862 25.1575 70.5582 25.2465 70.6887 25.3058C70.8192 25.3532 70.9556 25.377 71.098 25.377C71.5369 25.377 71.792 25.11 71.8632 24.5762H73.4291C73.1444 26.332 72.3258 27.2099 70.9734 27.2099C70.7124 27.2099 70.4811 27.1743 70.2794 27.1031C70.0896 27.02 69.8523 26.9014 69.5676 26.7472C69.354 26.6286 69.182 26.5455 69.0515 26.4981C68.921 26.4387 68.7846 26.4091 68.6422 26.4091C68.2033 26.4091 67.9423 26.676 67.8592 27.2099H66.311Z" fill="black"/>
<path d="M63.4123 28.0811V30.519H60.1024V40.5733H57.0594V30.519H53.7495V28.0811H63.4123Z" fill="black"/>
<path d="M52.7545 40.5733H49.7115L44.6221 32.868V40.5733H41.5791V28.0811H44.6221L49.7115 35.822V28.0811H52.7545V40.5733Z" fill="black"/>
<path d="M35.5288 30.519V33.0459H39.6039V35.3949H35.5288V38.1354H40.1378V40.5733H32.4858V28.0811H40.1378V30.519H35.5288Z" fill="black"/>
<path d="M106.964 19.2949H108.639V19.6753H106.497V15.0107H106.964V19.2949Z" fill="black"/>
<path d="M104.313 18.5661H102.19L101.783 19.6739H101.29L102.991 15.0693H103.518L105.213 19.6739H104.72L104.313 18.5661ZM104.172 18.1791L103.251 15.6566L102.331 18.1791H104.172Z" fill="black"/>
<path d="M97.1112 15.0107V17.947C97.1112 18.4096 97.2202 18.7522 97.4382 18.9746C97.6606 19.1971 97.9631 19.3083 98.3457 19.3083C98.7283 19.3083 99.0264 19.1993 99.2399 18.9813C99.4579 18.7589 99.5669 18.4141 99.5669 17.947V15.0107H100.034V17.9403C100.034 18.532 99.8761 18.9769 99.5602 19.2749C99.2488 19.573 98.8418 19.722 98.339 19.722C97.8363 19.722 97.427 19.573 97.1112 19.2749C96.7997 18.9769 96.644 18.532 96.644 17.9403V15.0107H97.1112Z" fill="black"/>
<path d="M95.3926 15.0107V15.3978H94.098V19.6753H93.6309V15.3978H92.3296V15.0107H95.3926Z" fill="black"/>
<path d="M90.6948 19.6753L89.5404 17.7267H88.6795V19.6753H88.2124V15.0107H89.6138C90.1343 15.0107 90.528 15.1353 90.7949 15.3844C91.0663 15.6336 91.202 15.9606 91.202 16.3654C91.202 16.7035 91.1041 16.9927 90.9084 17.2329C90.7171 17.4687 90.4324 17.6222 90.0542 17.6934L91.2554 19.6753H90.6948ZM88.6795 17.3464H89.6204C89.9853 17.3464 90.2589 17.2574 90.4413 17.0794C90.6281 16.9015 90.7215 16.6635 90.7215 16.3654C90.7215 16.0584 90.6326 15.8226 90.4546 15.658C90.2766 15.489 89.9964 15.4045 89.6138 15.4045H88.6795V17.3464Z" fill="black"/>
<path d="M86.6214 15.0107V19.6753H86.1543V15.0107H86.6214Z" fill="black"/>
<path d="M84.9183 15.0107L83.1499 19.6753H82.6161L80.8477 15.0107H81.3548L82.883 19.1682L84.4245 15.0107H84.9183Z" fill="black"/>
<path d="M76.773 16.3718C76.6395 16.0648 76.4349 15.8245 76.159 15.651C75.8877 15.4731 75.5673 15.3841 75.1981 15.3841C74.8511 15.3841 74.5397 15.4642 74.2638 15.6244C73.988 15.7845 73.77 16.0136 73.6099 16.3117C73.4497 16.6053 73.3696 16.9479 73.3696 17.3394C73.3696 17.7309 73.4497 18.0756 73.6099 18.3737C73.77 18.6718 73.988 18.9009 74.2638 19.0611C74.5397 19.2212 74.8511 19.3013 75.1981 19.3013C75.5229 19.3013 75.8142 19.2323 76.0723 19.0944C76.3348 18.9521 76.5439 18.7519 76.6996 18.4938C76.8597 18.2314 76.9509 17.9266 76.9732 17.5796H75.0112V17.1992H77.467V17.5396C77.4447 17.9489 77.3335 18.3203 77.1333 18.654C76.9331 18.9832 76.664 19.2435 76.3259 19.4348C75.9922 19.6261 75.6163 19.7217 75.1981 19.7217C74.7666 19.7217 74.3751 19.6216 74.0236 19.4214C73.6722 19.2168 73.3941 18.9343 73.1895 18.5739C72.9893 18.2091 72.8892 17.7976 72.8892 17.3394C72.8892 16.8811 72.9893 16.4718 73.1895 16.1115C73.3941 15.7467 73.6722 15.4642 74.0236 15.264C74.3751 15.0594 74.7666 14.957 75.1981 14.957C75.6964 14.957 76.1323 15.0816 76.506 15.3307C76.8797 15.5799 77.1511 15.9269 77.3202 16.3718H76.773Z" fill="black"/>
<path d="M71.5104 19.6753H71.0433L68.4608 15.7515V19.6753H67.9937V15.0107H68.4608L71.0433 18.9279V15.0107H71.5104V19.6753Z" fill="black"/>
<path d="M66.4017 15.0107V19.6753H65.9346V15.0107H66.4017Z" fill="black"/>
<path d="M64.6172 16.3521C64.6172 16.7525 64.486 17.075 64.2235 17.3197C63.961 17.5644 63.5673 17.6867 63.0423 17.6867H62.1014V19.6753H61.6343V15.0107H63.0423C63.5628 15.0107 63.9543 15.1331 64.2168 15.3778C64.4837 15.6225 64.6172 15.9472 64.6172 16.3521ZM63.0423 17.2863C63.7719 17.2863 64.1367 16.9749 64.1367 16.3521C64.1367 16.0406 64.05 15.8049 63.8765 15.6447C63.703 15.4845 63.4249 15.4045 63.0423 15.4045H62.1014V17.2863H63.0423Z" fill="black"/>
<path d="M60.3169 16.3521C60.3169 16.7525 60.1857 17.075 59.9232 17.3197C59.6607 17.5644 59.267 17.6867 58.742 17.6867H57.8011V19.6753H57.334V15.0107H58.742C59.2625 15.0107 59.654 15.1331 59.9165 15.3778C60.1834 15.6225 60.3169 15.9472 60.3169 16.3521ZM58.742 17.2863C59.4716 17.2863 59.8364 16.9749 59.8364 16.3521C59.8364 16.0406 59.7497 15.8049 59.5762 15.6447C59.4027 15.4845 59.1246 15.4045 58.742 15.4045H57.8011V17.2863H58.742Z" fill="black"/>
<path d="M53.6361 19.7217C53.2045 19.7217 52.813 19.6216 52.4616 19.4214C52.1101 19.2168 51.8321 18.9343 51.6274 18.5739C51.4272 18.2091 51.3271 17.7976 51.3271 17.3394C51.3271 16.8811 51.4272 16.4718 51.6274 16.1115C51.8321 15.7467 52.1101 15.4642 52.4616 15.264C52.813 15.0594 53.2045 14.957 53.6361 14.957C54.0721 14.957 54.4658 15.0594 54.8172 15.264C55.1687 15.4642 55.4445 15.7467 55.6447 16.1115C55.8449 16.4718 55.945 16.8811 55.945 17.3394C55.945 17.7976 55.8449 18.2091 55.6447 18.5739C55.4445 18.9343 55.1687 19.2168 54.8172 19.4214C54.4658 19.6216 54.0721 19.7217 53.6361 19.7217ZM53.6361 19.3146C53.9831 19.3146 54.2945 19.2346 54.5703 19.0744C54.8462 18.9142 55.0641 18.6851 55.2243 18.3871C55.3845 18.0845 55.4645 17.7353 55.4645 17.3394C55.4645 16.9434 55.3845 16.5964 55.2243 16.2983C55.0641 16.0003 54.8462 15.7712 54.5703 15.611C54.2945 15.4508 53.9831 15.3708 53.6361 15.3708C53.2891 15.3708 52.9777 15.4508 52.7018 15.611C52.426 15.7712 52.208 16.0003 52.0479 16.2983C51.8877 16.5964 51.8076 16.9434 51.8076 17.3394C51.8076 17.7353 51.8877 18.0845 52.0479 18.3871C52.208 18.6851 52.426 18.9142 52.7018 19.0744C52.9777 19.2346 53.2891 19.3146 53.6361 19.3146Z" fill="black"/>
<path d="M49.9419 15.0107V19.6753H49.4748V17.4932H46.9456V19.6753H46.4785V15.0107H46.9456V17.1061H49.4748V15.0107H49.9419Z" fill="black"/>
<path d="M43.5397 19.7217C43.2328 19.7217 42.9614 19.6683 42.7256 19.5615C42.4943 19.4548 42.3119 19.3057 42.1784 19.1144C42.0449 18.9231 41.9737 18.7096 41.9648 18.4738H42.4587C42.4809 18.7007 42.581 18.9009 42.759 19.0744C42.9369 19.2435 43.1972 19.328 43.5397 19.328C43.8556 19.328 44.1047 19.2479 44.2871 19.0877C44.474 18.9231 44.5674 18.7163 44.5674 18.4671C44.5674 18.2669 44.5162 18.1068 44.4139 17.9867C44.3116 17.8621 44.1848 17.7709 44.0335 17.7131C43.8823 17.6508 43.6732 17.5841 43.4063 17.5129C43.0948 17.4283 42.8479 17.346 42.6655 17.266C42.4831 17.1859 42.3274 17.0613 42.1984 16.8923C42.0694 16.7232 42.0049 16.4941 42.0049 16.2049C42.0049 15.9647 42.0672 15.7511 42.1917 15.5643C42.3163 15.373 42.492 15.224 42.7189 15.1172C42.9458 15.0104 43.2061 14.957 43.4997 14.957C43.9312 14.957 44.2782 15.0638 44.5407 15.2773C44.8076 15.4864 44.9611 15.7578 45.0012 16.0915H44.494C44.4628 15.9002 44.3583 15.7311 44.1803 15.5843C44.0024 15.4331 43.7622 15.3574 43.4596 15.3574C43.1794 15.3574 42.9458 15.4331 42.759 15.5843C42.5721 15.7311 42.4787 15.9335 42.4787 16.1916C42.4787 16.3873 42.5298 16.5453 42.6322 16.6654C42.7345 16.7855 42.8613 16.8767 43.0125 16.939C43.1682 17.0013 43.3773 17.068 43.6398 17.1392C43.9423 17.2237 44.187 17.3082 44.3739 17.3928C44.5607 17.4728 44.7187 17.5974 44.8477 17.7665C44.9767 17.9355 45.0412 18.1624 45.0412 18.4471C45.0412 18.6651 44.9834 18.872 44.8677 19.0677C44.752 19.2635 44.5807 19.4214 44.3539 19.5415C44.127 19.6616 43.8556 19.7217 43.5397 19.7217Z" fill="black"/>
<path d="M96.7168 45.3757C96.7168 45.684 96.6107 45.9409 96.3983 46.1464C96.1895 46.3484 95.8693 46.4494 95.4375 46.4494H94.7262V47.9961H94.2432V44.2915H95.4375C95.8551 44.2915 96.1719 44.3925 96.3877 44.5944C96.6071 44.7964 96.7168 45.0568 96.7168 45.3757ZM95.4375 46.0508C95.7065 46.0508 95.9047 45.9923 96.0321 45.8754C96.1595 45.7584 96.2232 45.5919 96.2232 45.3757C96.2232 44.9186 95.9613 44.6901 95.4375 44.6901H94.7262V46.0508H95.4375Z" fill="#585858"/>
<path d="M99.7697 47.1722H98.1559L97.8587 47.9961H97.3491L98.6868 44.3127H99.2441L100.577 47.9961H100.067L99.7697 47.1722ZM99.6316 46.7789L98.9628 44.908L98.2939 46.7789H99.6316Z" fill="#585858"/>
<path d="M103.373 47.9961L102.492 46.4813H101.908V47.9961H101.425V44.2915H102.619C102.899 44.2915 103.134 44.3393 103.325 44.435C103.52 44.5306 103.665 44.66 103.761 44.823C103.856 44.986 103.904 45.172 103.904 45.3811C103.904 45.6362 103.83 45.8612 103.681 46.0561C103.536 46.251 103.316 46.3803 103.023 46.4441L103.952 47.9961H103.373ZM101.908 46.0933H102.619C102.881 46.0933 103.078 46.0295 103.209 45.9019C103.339 45.7708 103.405 45.5972 103.405 45.3811C103.405 45.1614 103.339 44.9913 103.209 44.8708C103.081 44.7503 102.885 44.6901 102.619 44.6901H101.908V46.0933Z" fill="#585858"/>
<path d="M104.739 46.1411C104.739 45.7797 104.821 45.4555 104.984 45.1685C105.146 44.8779 105.368 44.6511 105.647 44.4881C105.93 44.3251 106.243 44.2436 106.587 44.2436C106.99 44.2436 107.342 44.3411 107.643 44.536C107.944 44.7308 108.163 45.0072 108.301 45.3651H107.723C107.62 45.1419 107.471 44.97 107.277 44.8496C107.086 44.7291 106.856 44.6688 106.587 44.6688C106.328 44.6688 106.097 44.7291 105.891 44.8496C105.686 44.97 105.525 45.1419 105.408 45.3651C105.292 45.5848 105.233 45.8435 105.233 46.1411C105.233 46.4352 105.292 46.6939 105.408 46.9171C105.525 47.1368 105.686 47.3069 105.891 47.4274C106.097 47.5478 106.328 47.6081 106.587 47.6081C106.856 47.6081 107.086 47.5496 107.277 47.4327C107.471 47.3122 107.62 47.1404 107.723 46.9171H108.301C108.163 47.2715 107.944 47.5461 107.643 47.741C107.342 47.9323 106.99 48.028 106.587 48.028C106.243 48.028 105.93 47.9482 105.647 47.7888C105.368 47.6258 105.146 47.4008 104.984 47.1138C104.821 46.8268 104.739 46.5025 104.739 46.1411Z" fill="#585858"/>
<path d="M109.769 44.6848V45.9232H111.117V46.3218H109.769V47.5975H111.276V47.9961H109.286V44.2862H111.276V44.6848H109.769Z" fill="#585858"/>
<path d="M114.221 47.9961L113.34 46.4813H112.756V47.9961H112.273V44.2915H113.467C113.747 44.2915 113.982 44.3393 114.173 44.435C114.368 44.5306 114.513 44.66 114.608 44.823C114.704 44.986 114.752 45.172 114.752 45.3811C114.752 45.6362 114.677 45.8612 114.529 46.0561C114.384 46.251 114.164 46.3803 113.871 46.4441L114.8 47.9961H114.221ZM112.756 46.0933H113.467C113.729 46.0933 113.925 46.0295 114.056 45.9019C114.187 45.7708 114.253 45.5972 114.253 45.3811C114.253 45.1614 114.187 44.9913 114.056 44.8708C113.929 44.7503 113.733 44.6901 113.467 44.6901H112.756V46.0933Z" fill="#585858"/>
<path d="M116.251 44.2915V47.9961H115.768V44.2915H116.251Z" fill="#585858"/>
<path d="M119.527 47.1722H117.913L117.616 47.9961H117.106L118.444 44.3127H119.001L120.333 47.9961H119.824L119.527 47.1722ZM119.389 46.7789L118.72 44.908L118.051 46.7789H119.389Z" fill="#585858"/>
<path d="M122.682 46.1411C122.682 45.7797 122.763 45.4555 122.926 45.1685C123.089 44.8779 123.31 44.6511 123.59 44.4881C123.873 44.3251 124.186 44.2436 124.529 44.2436C124.933 44.2436 125.285 44.3411 125.586 44.536C125.886 44.7308 126.106 45.0072 126.244 45.3651H125.665C125.563 45.1419 125.414 44.97 125.219 44.8496C125.028 44.7291 124.798 44.6688 124.529 44.6688C124.271 44.6688 124.039 44.7291 123.834 44.8496C123.629 44.97 123.468 45.1419 123.351 45.3651C123.234 45.5848 123.176 45.8435 123.176 46.1411C123.176 46.4352 123.234 46.6939 123.351 46.9171C123.468 47.1368 123.629 47.3069 123.834 47.4274C124.039 47.5478 124.271 47.6081 124.529 47.6081C124.798 47.6081 125.028 47.5496 125.219 47.4327C125.414 47.3122 125.563 47.1404 125.665 46.9171H126.244C126.106 47.2715 125.886 47.5461 125.586 47.741C125.285 47.9323 124.933 48.028 124.529 48.028C124.186 48.028 123.873 47.9482 123.59 47.7888C123.31 47.6258 123.089 47.4008 122.926 47.1138C122.763 46.8268 122.682 46.5025 122.682 46.1411Z" fill="#585858"/>
<path d="M128.906 48.0333C128.562 48.0333 128.249 47.9536 127.966 47.7941C127.683 47.6311 127.458 47.4061 127.292 47.1191C127.129 46.8285 127.048 46.5025 127.048 46.1411C127.048 45.7797 127.129 45.4555 127.292 45.1685C127.458 44.8779 127.683 44.6529 127.966 44.4934C128.249 44.3304 128.562 44.2489 128.906 44.2489C129.253 44.2489 129.568 44.3304 129.851 44.4934C130.134 44.6529 130.357 44.8761 130.519 45.1631C130.682 45.4502 130.764 45.7761 130.764 46.1411C130.764 46.5061 130.682 46.8321 130.519 47.1191C130.357 47.4061 130.134 47.6311 129.851 47.7941C129.568 47.9536 129.253 48.0333 128.906 48.0333ZM128.906 47.6134C129.164 47.6134 129.396 47.5532 129.601 47.4327C129.81 47.3122 129.973 47.1404 130.089 46.9171C130.21 46.6939 130.27 46.4352 130.27 46.1411C130.27 45.8435 130.21 45.5848 130.089 45.3651C129.973 45.1419 129.812 44.97 129.606 44.8496C129.401 44.7291 129.168 44.6688 128.906 44.6688C128.644 44.6688 128.41 44.7291 128.205 44.8496C128 44.97 127.837 45.1419 127.717 45.3651C127.6 45.5848 127.542 45.8435 127.542 46.1411C127.542 46.4352 127.6 46.6939 127.717 46.9171C127.837 47.1404 128 47.3122 128.205 47.4327C128.414 47.5532 128.647 47.6134 128.906 47.6134Z" fill="#585858"/>
<path d="M135.42 44.318V47.9961H134.937V45.2535L133.716 47.9961H133.376L132.15 45.2482V47.9961H131.667V44.318H132.187L133.546 47.3583L134.905 44.318H135.42Z" fill="#585858"/>
<path d="M149.606 47.1345C149.606 47.2732 149.491 47.386 149.355 47.386C149.246 47.386 149.151 47.3176 149.122 47.227L148.915 46.6779H147.279L147.072 47.227C147.037 47.3158 146.943 47.386 146.84 47.386C146.701 47.386 146.588 47.2714 146.588 47.1345C146.588 47.105 146.598 47.0698 146.609 47.0403L147.694 44.3151C147.754 44.1561 147.912 44.0378 148.095 44.0378C148.278 44.0378 148.437 44.1561 148.5 44.3151L149.585 47.0403C149.597 47.0661 149.606 47.1013 149.606 47.1345ZM148.753 46.2397L148.095 44.4944L147.443 46.2397H148.753Z" fill="#BC01FD"/>
<path d="M152.832 45.8939V46.6501C152.832 46.7833 152.797 46.883 152.699 46.9718C152.392 47.2491 151.993 47.4267 151.504 47.4267C150.56 47.4267 149.796 46.7444 149.796 45.7164C149.796 44.6883 150.562 44.0098 151.504 44.0098C151.997 44.0098 152.359 44.1836 152.636 44.4589C152.68 44.4979 152.704 44.5569 152.704 44.6216C152.704 44.7511 152.601 44.8491 152.472 44.8491C152.413 44.8491 152.354 44.825 152.309 44.7843C152.106 44.581 151.826 44.4478 151.504 44.4478C150.817 44.4478 150.304 44.9728 150.304 45.7142C150.304 46.4555 150.817 46.9843 151.504 46.9843C151.87 46.9843 152.18 46.8067 152.339 46.6571V46.0636H151.475C151.357 46.0636 151.257 45.9657 151.257 45.8417C151.257 45.7177 151.355 45.6291 151.475 45.6291H152.572C152.738 45.6309 152.832 45.7258 152.832 45.8939Z" fill="#BC01FD"/>
<path d="M153.463 47.1402V44.2872C153.463 44.1541 153.578 44.0395 153.715 44.0395C153.851 44.0395 153.957 44.1541 153.957 44.2872V47.1402C153.957 47.2733 153.848 47.3879 153.715 47.3879C153.582 47.3879 153.463 47.2733 153.463 47.1402Z" fill="#BC01FD"/>
<path d="M154.693 47.1012V44.2872C154.693 44.1541 154.808 44.0395 154.944 44.0395C155.081 44.0395 155.186 44.1541 155.186 44.2872V46.9274H156.485C156.603 46.9274 156.706 47.0216 156.706 47.1399C156.706 47.2583 156.603 47.3619 156.485 47.3619H154.961C154.788 47.3637 154.693 47.2694 154.693 47.1012Z" fill="#BC01FD"/>
<path d="M157.229 47.1402V44.2872C157.229 44.1541 157.343 44.0395 157.48 44.0395C157.616 44.0395 157.722 44.1541 157.722 44.2872V47.1402C157.722 47.2733 157.613 47.3879 157.48 47.3879C157.347 47.3879 157.229 47.2733 157.229 47.1402Z" fill="#BC01FD"/>
<path d="M159.264 47.1402V44.5001H158.432C158.314 44.5001 158.214 44.4058 158.214 44.2875C158.214 44.1692 158.312 44.0655 158.432 44.0655H160.582C160.7 44.0655 160.804 44.1635 160.804 44.2875C160.804 44.4115 160.7 44.5001 160.582 44.5001H159.756V47.1402C159.756 47.2734 159.642 47.388 159.509 47.388C159.376 47.388 159.264 47.2734 159.264 47.1402Z" fill="#BC01FD"/>
<path d="M163.788 44.4056L162.731 45.9827V47.1402C162.731 47.2733 162.623 47.3879 162.484 47.3879C162.346 47.3879 162.237 47.2733 162.237 47.1402V45.9827L161.175 44.4093C161.151 44.3741 161.136 44.3262 161.136 44.2761C161.136 44.1429 161.245 44.0395 161.372 44.0395C161.455 44.0395 161.531 44.0784 161.575 44.1486L162.484 45.5427L163.387 44.1486C163.431 44.0839 163.505 44.0395 163.59 44.0395C163.719 44.0395 163.826 44.1429 163.826 44.2761C163.826 44.326 163.812 44.3703 163.788 44.4056Z" fill="#BC01FD"/>
<path d="M147.187 48.611C147.199 48.611 147.209 48.6148 147.219 48.6224C147.228 48.6298 147.233 48.6381 147.233 48.6473C147.233 48.6546 147.232 48.6609 147.228 48.6662C147.212 48.6951 147.189 48.7221 147.16 48.747C147.13 48.7717 147.095 48.7916 147.054 48.8066C147.013 48.8216 146.968 48.829 146.917 48.829C146.867 48.829 146.822 48.8213 146.781 48.8058C146.741 48.7903 146.706 48.7691 146.677 48.7423C146.649 48.7152 146.627 48.6842 146.611 48.6492C146.596 48.614 146.588 48.5768 146.588 48.5376C146.588 48.499 146.596 48.4622 146.612 48.4272C146.627 48.3923 146.649 48.3614 146.678 48.3346C146.707 48.3075 146.741 48.2862 146.782 48.2707C146.822 48.2552 146.866 48.2474 146.915 48.2474C146.965 48.2474 147.01 48.2547 147.051 48.2691C147.092 48.2833 147.127 48.3024 147.157 48.3263C147.187 48.35 147.21 48.376 147.227 48.4044C147.231 48.4099 147.232 48.4157 147.232 48.4217C147.232 48.4314 147.228 48.4404 147.219 48.4485C147.211 48.4564 147.201 48.4604 147.19 48.4604C147.179 48.4604 147.169 48.4585 147.16 48.4548C147.151 48.4509 147.144 48.4451 147.14 48.4375C147.122 48.407 147.093 48.3808 147.054 48.359C147.016 48.3372 146.969 48.3263 146.915 48.3263C146.869 48.3263 146.828 48.336 146.793 48.3555C146.759 48.3749 146.732 48.4008 146.714 48.4332C146.695 48.4652 146.685 48.5003 146.685 48.5384C146.685 48.5768 146.695 48.612 146.713 48.6441C146.732 48.6762 146.758 48.7018 146.793 48.721C146.827 48.7402 146.868 48.7498 146.916 48.7498C146.952 48.7498 146.984 48.7445 147.013 48.734C147.043 48.7232 147.069 48.709 147.091 48.6914C147.112 48.6738 147.129 48.6549 147.14 48.6346C147.149 48.6189 147.165 48.611 147.187 48.611Z" fill="#BC01FD"/>
<path d="M147.825 48.792C147.825 48.8022 147.82 48.8112 147.81 48.8188C147.801 48.8262 147.792 48.8298 147.781 48.8298C147.772 48.8298 147.764 48.8272 147.757 48.8219C147.75 48.817 147.746 48.8131 147.743 48.8105C147.714 48.7937 147.688 48.7746 147.666 48.7533C147.645 48.7318 147.627 48.7084 147.612 48.6831C147.598 48.6605 147.585 48.6429 147.571 48.6303C147.557 48.6177 147.541 48.6088 147.521 48.6035C147.502 48.5982 147.477 48.5955 147.446 48.5952L147.401 48.5948L147.402 48.7857C147.402 48.7962 147.397 48.8062 147.387 48.8141C147.378 48.8219 147.367 48.8259 147.353 48.8259C147.34 48.8259 147.329 48.8217 147.319 48.8133C147.31 48.8049 147.305 48.7949 147.305 48.7833L147.303 48.294C147.303 48.2829 147.308 48.2737 147.317 48.2664C147.327 48.2587 147.338 48.2548 147.351 48.2545L147.48 48.2541H147.492C147.547 48.2541 147.597 48.2608 147.641 48.2742C147.684 48.2874 147.719 48.3072 147.744 48.3338C147.769 48.3601 147.782 48.3928 147.782 48.432C147.782 48.4572 147.775 48.4797 147.762 48.4994C147.75 48.5191 147.733 48.5358 147.712 48.5495C147.692 48.5631 147.669 48.5738 147.645 48.5814C147.656 48.5927 147.667 48.6067 147.678 48.6232C147.697 48.6524 147.716 48.6783 147.733 48.7009C147.751 48.7232 147.775 48.743 147.804 48.76C147.809 48.7632 147.814 48.7677 147.818 48.7734C147.822 48.779 147.825 48.7851 147.825 48.792ZM147.494 48.333H147.4L147.401 48.5215L147.495 48.5207C147.555 48.5202 147.601 48.5128 147.635 48.4986C147.669 48.4844 147.686 48.4617 147.686 48.4304C147.686 48.3983 147.668 48.3741 147.632 48.3578C147.596 48.3413 147.55 48.333 147.494 48.333Z" fill="#BC01FD"/>
<path d="M147.898 48.2936C147.898 48.2831 147.902 48.2741 147.912 48.2668C147.921 48.2591 147.933 48.2553 147.946 48.2553L148.362 48.2557C148.376 48.2557 148.387 48.2597 148.396 48.2675C148.406 48.2752 148.411 48.2844 148.411 48.2951C148.411 48.3059 148.406 48.3153 148.396 48.3231C148.387 48.3308 148.376 48.3346 148.362 48.3346L147.995 48.3342L147.995 48.4959L148.322 48.4978C148.336 48.4978 148.347 48.5018 148.357 48.5097C148.366 48.5175 148.371 48.5277 148.371 48.54C148.371 48.5505 148.366 48.5595 148.356 48.5668C148.346 48.5739 148.334 48.5775 148.322 48.5775L147.996 48.5755L147.996 48.7423L148.362 48.7419C148.375 48.7419 148.387 48.7458 148.396 48.7537C148.406 48.7614 148.411 48.7706 148.411 48.7813C148.411 48.7921 148.406 48.8014 148.396 48.8093C148.387 48.817 148.376 48.8208 148.362 48.8208L147.948 48.8212C147.934 48.8212 147.923 48.8173 147.913 48.8097C147.904 48.8018 147.899 48.7926 147.899 48.7821L147.898 48.2936Z" fill="#BC01FD"/>
<path d="M148.741 48.2703C148.744 48.2637 148.75 48.2582 148.759 48.2537C148.767 48.249 148.776 48.2466 148.785 48.2466C148.794 48.2466 148.803 48.249 148.811 48.2537C148.82 48.2582 148.827 48.2637 148.83 48.2703L149.097 48.7734C149.1 48.7787 149.101 48.7841 149.101 48.7896C149.101 48.8004 149.096 48.8097 149.087 48.8176C149.077 48.8252 149.066 48.829 149.053 48.829C149.044 48.829 149.035 48.8267 149.026 48.8219C149.017 48.8172 149.011 48.8116 149.007 48.805L148.924 48.6484L148.648 48.6453L148.563 48.8054C148.56 48.812 148.554 48.8176 148.545 48.8223C148.536 48.8273 148.527 48.8298 148.518 48.8298C148.505 48.8298 148.494 48.826 148.484 48.8184C148.475 48.8105 148.47 48.8012 148.47 48.7904C148.47 48.7849 148.471 48.7795 148.474 48.7742L148.741 48.2703ZM148.785 48.3858L148.69 48.5668L148.882 48.5688L148.785 48.3858Z" fill="#BC01FD"/>
<path d="M149.147 48.2955C149.147 48.2848 149.152 48.2756 149.161 48.2679C149.171 48.2601 149.182 48.2561 149.195 48.2561L149.681 48.2537H149.682C149.695 48.2537 149.706 48.2577 149.716 48.2656C149.725 48.2732 149.73 48.2824 149.73 48.2932C149.73 48.304 149.725 48.3133 149.716 48.3212C149.706 48.3288 149.695 48.3326 149.682 48.3326L149.488 48.3334L149.486 48.7861C149.486 48.7966 149.481 48.806 149.471 48.8137C149.462 48.8213 149.45 48.8251 149.437 48.8251C149.424 48.8251 149.412 48.8213 149.403 48.8137C149.393 48.806 149.389 48.797 149.389 48.7865L149.391 48.3338L149.196 48.335C149.183 48.335 149.171 48.3312 149.161 48.3235C149.152 48.3157 149.147 48.3063 149.147 48.2955Z" fill="#BC01FD"/>
<path d="M149.85 48.8243C149.837 48.8243 149.825 48.8205 149.815 48.8129C149.806 48.805 149.801 48.7957 149.801 48.7849L149.801 48.2916C149.801 48.2816 149.805 48.2725 149.814 48.2644C149.823 48.2562 149.834 48.2522 149.847 48.2522C149.862 48.2522 149.874 48.256 149.883 48.2636C149.893 48.271 149.898 48.2803 149.898 48.2916L149.898 48.7849C149.898 48.7957 149.893 48.805 149.884 48.8129C149.874 48.8205 149.863 48.8243 149.85 48.8243Z" fill="#BC01FD"/>
<path d="M149.969 48.292C149.969 48.2828 149.974 48.2744 149.983 48.2668C149.993 48.2591 150.004 48.2553 150.015 48.2553C150.039 48.2553 150.054 48.2632 150.063 48.279L150.297 48.7119L150.508 48.2746C150.516 48.2581 150.532 48.2498 150.556 48.2498C150.567 48.2498 150.578 48.2536 150.588 48.2612C150.597 48.2686 150.602 48.277 150.602 48.2865C150.602 48.2938 150.6 48.2999 150.598 48.3046L150.345 48.8267C150.342 48.8332 150.336 48.839 150.327 48.844C150.319 48.8493 150.31 48.8519 150.3 48.8519C150.279 48.8519 150.265 48.844 150.256 48.8283L149.974 48.3113C149.971 48.3066 149.969 48.3001 149.969 48.292Z" fill="#BC01FD"/>
<path d="M150.661 48.2936C150.661 48.2831 150.665 48.2741 150.675 48.2668C150.684 48.2591 150.696 48.2553 150.709 48.2553L151.125 48.2557C151.139 48.2557 151.15 48.2597 151.159 48.2675C151.169 48.2752 151.174 48.2844 151.174 48.2951C151.174 48.3059 151.169 48.3153 151.159 48.3231C151.15 48.3308 151.139 48.3346 151.125 48.3346L150.758 48.3342L150.758 48.4959L151.085 48.4978C151.099 48.4978 151.111 48.5018 151.12 48.5097C151.129 48.5175 151.134 48.5277 151.134 48.54C151.134 48.5505 151.129 48.5595 151.119 48.5668C151.109 48.5739 151.097 48.5775 151.085 48.5775L150.759 48.5755L150.759 48.7423L151.125 48.7419C151.138 48.7419 151.15 48.7458 151.159 48.7537C151.169 48.7614 151.174 48.7706 151.174 48.7813C151.174 48.7921 151.169 48.8014 151.159 48.8093C151.15 48.817 151.139 48.8208 151.125 48.8208L150.711 48.8212C150.697 48.8212 150.686 48.8173 150.676 48.8097C150.667 48.8018 150.662 48.7926 150.662 48.7821L150.661 48.2936Z" fill="#BC01FD"/>
<path d="M151.733 48.5494C151.733 48.4999 151.784 48.4585 151.845 48.4585C151.906 48.4585 151.957 48.4999 151.957 48.5494C151.957 48.5989 151.906 48.6403 151.845 48.6403C151.784 48.6403 151.733 48.5989 151.733 48.5494Z" fill="#BC01FD"/>
<path d="M156.878 48.5494C156.878 48.4999 156.929 48.4585 156.99 48.4585C157.051 48.4585 157.102 48.4999 157.102 48.5494C157.102 48.5989 157.051 48.6403 156.99 48.6403C156.929 48.6403 156.878 48.5989 156.878 48.5494Z" fill="#BC01FD"/>
<path d="M152.743 48.2552H152.751C152.809 48.2552 152.86 48.2637 152.904 48.2805C152.948 48.2972 152.985 48.3198 153.014 48.3483C153.044 48.3767 153.066 48.4085 153.081 48.4439C153.096 48.479 153.104 48.515 153.104 48.5517C153.104 48.6078 153.088 48.6578 153.058 48.7016C153.027 48.7455 152.982 48.7799 152.922 48.8049C152.863 48.83 152.789 48.8425 152.702 48.8425H152.679L152.565 48.8417C152.552 48.8414 152.541 48.8372 152.531 48.829C152.521 48.8209 152.516 48.8111 152.516 48.7996L152.52 48.2985C152.52 48.2876 152.525 48.2782 152.534 48.2703C152.544 48.2622 152.555 48.2579 152.568 48.2577L152.743 48.2552ZM153.016 48.5493C153.016 48.4986 153.002 48.4578 152.976 48.4268C152.95 48.3957 152.913 48.3731 152.866 48.359C152.819 48.3445 152.763 48.3373 152.699 48.3373C152.686 48.3373 152.672 48.3374 152.659 48.3377C152.645 48.338 152.632 48.3384 152.619 48.3389L152.616 48.7592L152.68 48.76C152.746 48.76 152.804 48.7535 152.855 48.7404C152.905 48.7271 152.945 48.705 152.973 48.6743C153.001 48.6435 153.016 48.6018 153.016 48.5493Z" fill="#BC01FD"/>
<path d="M153.284 48.8462C153.27 48.8462 153.258 48.8422 153.249 48.8344C153.239 48.8262 153.234 48.8165 153.234 48.8054L153.234 48.2944C153.234 48.2841 153.238 48.2747 153.248 48.2663C153.257 48.2578 153.268 48.2536 153.281 48.2536C153.296 48.2536 153.308 48.2575 153.318 48.2654C153.328 48.2731 153.333 48.2827 153.333 48.2944L153.333 48.8054C153.333 48.8165 153.328 48.8262 153.318 48.8344C153.309 48.8422 153.297 48.8462 153.284 48.8462Z" fill="#BC01FD"/>
<path d="M153.441 48.5566C153.441 48.5166 153.45 48.4781 153.467 48.4411C153.485 48.404 153.509 48.3711 153.541 48.3422C153.573 48.3131 153.611 48.2901 153.655 48.2732C153.699 48.2563 153.748 48.2479 153.802 48.2479C153.851 48.2479 153.896 48.2535 153.936 48.2646C153.976 48.2758 154.014 48.2916 154.049 48.312C154.063 48.3199 154.071 48.3308 154.071 48.3447C154.071 48.3556 154.066 48.3651 154.056 48.3733C154.046 48.3812 154.034 48.3851 154.021 48.3851C154.01 48.3851 154.001 48.3825 153.992 48.3773C153.966 48.3629 153.937 48.3515 153.904 48.343C153.872 48.3343 153.839 48.33 153.805 48.33C153.766 48.33 153.73 48.3361 153.698 48.3483C153.666 48.3603 153.638 48.3769 153.614 48.3982C153.59 48.4191 153.572 48.4431 153.559 48.47C153.546 48.497 153.54 48.5253 153.54 48.555C153.54 48.5956 153.55 48.6316 153.572 48.6632C153.594 48.6948 153.624 48.7196 153.663 48.7376C153.702 48.7555 153.747 48.7645 153.799 48.7645C153.827 48.7645 153.855 48.7622 153.883 48.7576C153.911 48.7529 153.937 48.7476 153.96 48.7416L153.958 48.6024H153.807C153.793 48.6024 153.782 48.5984 153.772 48.5905C153.762 48.5824 153.757 48.5727 153.757 48.5615C153.757 48.5504 153.762 48.5408 153.772 48.5329C153.782 48.5248 153.793 48.5207 153.807 48.5207H154.008C154.022 48.5207 154.033 48.5246 154.043 48.5325C154.053 48.5404 154.058 48.55 154.058 48.5611L154.06 48.7698C154.06 48.7774 154.057 48.7852 154.051 48.7923C154.045 48.7994 154.037 48.8043 154.028 48.807C153.997 48.8173 153.962 48.8266 153.923 48.8348C153.885 48.8427 153.844 48.8466 153.802 48.8466C153.733 48.8466 153.671 48.8342 153.616 48.8094C153.562 48.7847 153.519 48.7505 153.488 48.7069C153.457 48.6634 153.441 48.6133 153.441 48.5566Z" fill="#BC01FD"/>
<path d="M154.238 48.8462C154.224 48.8462 154.213 48.8422 154.203 48.8344C154.193 48.8262 154.188 48.8165 154.188 48.8054L154.188 48.2944C154.188 48.2841 154.192 48.2747 154.202 48.2663C154.211 48.2578 154.222 48.2536 154.235 48.2536C154.25 48.2536 154.263 48.2575 154.272 48.2654C154.282 48.2731 154.287 48.2827 154.287 48.2944L154.288 48.8054C154.288 48.8165 154.283 48.8262 154.273 48.8344C154.263 48.8422 154.252 48.8462 154.238 48.8462Z" fill="#BC01FD"/>
<path d="M154.381 48.2985C154.381 48.2874 154.385 48.2778 154.395 48.2699C154.405 48.2618 154.417 48.2577 154.43 48.2577L154.926 48.2552H154.927C154.941 48.2552 154.953 48.2593 154.962 48.2675C154.972 48.2754 154.977 48.2849 154.977 48.2961C154.977 48.3072 154.972 48.3169 154.962 48.3251C154.953 48.333 154.941 48.3369 154.927 48.3369L154.729 48.3377L154.727 48.8066C154.727 48.8175 154.722 48.8273 154.712 48.8352C154.703 48.8431 154.691 48.847 154.677 48.847C154.664 48.847 154.652 48.8431 154.642 48.8352C154.633 48.8273 154.628 48.8179 154.628 48.807V48.8062L154.63 48.3381L154.431 48.3394C154.417 48.3394 154.405 48.3354 154.395 48.3275C154.385 48.3193 154.381 48.3097 154.381 48.2985Z" fill="#BC01FD"/>
<path d="M155.322 48.2724C155.325 48.2656 155.331 48.2599 155.34 48.2552C155.349 48.2503 155.358 48.2479 155.367 48.2479C155.376 48.2479 155.385 48.2503 155.394 48.2552C155.403 48.2599 155.41 48.2656 155.413 48.2724L155.686 48.7935C155.689 48.799 155.69 48.8045 155.69 48.8103C155.69 48.8214 155.685 48.8311 155.676 48.8393C155.666 48.8471 155.654 48.8511 155.641 48.8511C155.632 48.8511 155.622 48.8486 155.614 48.8437C155.605 48.8388 155.598 48.833 155.595 48.8262L155.51 48.664L155.227 48.6608L155.14 48.8266C155.137 48.8334 155.131 48.8393 155.122 48.8442C155.113 48.8493 155.104 48.8519 155.094 48.8519C155.081 48.8519 155.069 48.848 155.059 48.8401C155.05 48.8319 155.045 48.8222 155.045 48.8111C155.045 48.8054 155.046 48.7998 155.049 48.7943L155.322 48.2724ZM155.367 48.392L155.27 48.5795L155.467 48.5815L155.367 48.392Z" fill="#BC01FD"/>
<path d="M155.843 48.8454C155.83 48.8454 155.818 48.8414 155.808 48.8335C155.799 48.8254 155.794 48.8158 155.794 48.8049L155.792 48.2867C155.792 48.2758 155.797 48.2661 155.807 48.2585C155.817 48.2506 155.828 48.2466 155.842 48.2466C155.856 48.2466 155.867 48.2506 155.877 48.2585C155.887 48.2661 155.892 48.2754 155.892 48.2863L155.893 48.7637L156.269 48.7629C156.282 48.7629 156.294 48.767 156.304 48.7751C156.314 48.783 156.319 48.7926 156.319 48.8037C156.319 48.8149 156.314 48.8245 156.304 48.8327C156.294 48.8406 156.283 48.8446 156.269 48.8446L155.843 48.8454Z" fill="#BC01FD"/>
<path d="M157.71 48.8243C157.697 48.8243 157.686 48.8205 157.676 48.8129C157.666 48.805 157.662 48.7957 157.662 48.7849L157.661 48.2916C157.661 48.2816 157.666 48.2725 157.675 48.2644C157.684 48.2562 157.695 48.2522 157.707 48.2522C157.722 48.2522 157.734 48.256 157.744 48.2636C157.754 48.271 157.758 48.2803 157.758 48.2916L157.759 48.7849C157.759 48.7957 157.754 48.805 157.744 48.8129C157.735 48.8205 157.724 48.8243 157.71 48.8243Z" fill="#BC01FD"/>
<path d="M157.874 48.2936C157.874 48.2825 157.879 48.2735 157.889 48.2664C157.899 48.259 157.911 48.2553 157.924 48.2553C157.939 48.2553 157.952 48.2603 157.962 48.2703L158.328 48.6745V48.2948C158.328 48.2842 158.333 48.2753 158.342 48.2679C158.352 48.2603 158.364 48.2565 158.377 48.2565C158.39 48.2565 158.401 48.2603 158.411 48.2679C158.421 48.2753 158.425 48.2842 158.425 48.2948L158.425 48.7892C158.425 48.8003 158.42 48.8095 158.41 48.8168C158.4 48.8239 158.388 48.8275 158.375 48.8275C158.36 48.8275 158.347 48.8222 158.337 48.8117L157.971 48.4079V48.7888C157.971 48.7993 157.966 48.8084 157.957 48.816C157.947 48.8234 157.936 48.8271 157.923 48.8271C157.909 48.8271 157.898 48.8234 157.888 48.816C157.879 48.8084 157.874 48.7993 157.874 48.7888V48.2936Z" fill="#BC01FD"/>
<path d="M158.529 48.2936C158.529 48.2825 158.533 48.2735 158.543 48.2664C158.553 48.259 158.565 48.2553 158.579 48.2553C158.594 48.2553 158.606 48.2603 158.616 48.2703L158.983 48.6745V48.2948C158.983 48.2842 158.987 48.2753 158.997 48.2679C159.006 48.2603 159.018 48.2565 159.031 48.2565C159.044 48.2565 159.056 48.2603 159.065 48.2679C159.075 48.2753 159.08 48.2842 159.08 48.2948L159.079 48.7892C159.079 48.8003 159.074 48.8095 159.064 48.8168C159.054 48.8239 159.043 48.8275 159.029 48.8275C159.014 48.8275 159.002 48.8222 158.992 48.8117L158.626 48.4079V48.7888C158.626 48.7993 158.621 48.8084 158.611 48.816C158.602 48.8234 158.59 48.8271 158.577 48.8271C158.564 48.8271 158.552 48.8234 158.543 48.816C158.533 48.8084 158.529 48.7993 158.529 48.7888V48.2936Z" fill="#BC01FD"/>
<path d="M159.511 48.2482C159.56 48.2482 159.606 48.2561 159.647 48.2719C159.689 48.2874 159.725 48.3088 159.756 48.3362C159.787 48.3632 159.81 48.3945 159.827 48.43C159.844 48.4652 159.853 48.5027 159.853 48.5424C159.853 48.5821 159.844 48.6194 159.827 48.6544C159.811 48.6891 159.787 48.7197 159.757 48.7462C159.726 48.7728 159.69 48.7936 159.649 48.8085C159.607 48.8235 159.561 48.831 159.511 48.831C159.46 48.831 159.414 48.8235 159.372 48.8085C159.33 48.7933 159.294 48.7724 159.264 48.7458C159.234 48.719 159.211 48.6881 159.195 48.6532C159.179 48.618 159.171 48.5802 159.171 48.54C159.171 48.5008 159.179 48.4638 159.196 48.4288C159.213 48.3939 159.237 48.3628 159.267 48.3358C159.298 48.3084 159.334 48.287 159.375 48.2715C159.417 48.256 159.462 48.2482 159.511 48.2482ZM159.513 48.3283C159.465 48.3283 159.422 48.3384 159.385 48.3586C159.349 48.3789 159.32 48.4057 159.299 48.4391C159.278 48.4722 159.268 48.5085 159.268 48.5479C159.268 48.5747 159.274 48.6003 159.287 48.6248C159.299 48.6492 159.317 48.6711 159.339 48.6902C159.362 48.7092 159.387 48.7242 159.416 48.7352C159.446 48.746 159.477 48.7514 159.511 48.7514C159.544 48.7514 159.575 48.7457 159.605 48.7344C159.635 48.7231 159.661 48.7079 159.684 48.6887C159.707 48.6695 159.724 48.6479 159.737 48.624C159.75 48.5998 159.757 48.5751 159.757 48.5499C159.757 48.5091 159.746 48.4721 159.724 48.4387C159.702 48.405 159.673 48.3782 159.636 48.3582C159.599 48.3383 159.558 48.3283 159.513 48.3283Z" fill="#BC01FD"/>
<path d="M159.919 48.292C159.919 48.2828 159.923 48.2744 159.933 48.2668C159.943 48.2591 159.953 48.2553 159.965 48.2553C159.988 48.2553 160.004 48.2632 160.012 48.279L160.247 48.7119L160.458 48.2746C160.466 48.2581 160.481 48.2498 160.505 48.2498C160.517 48.2498 160.528 48.2536 160.537 48.2612C160.547 48.2686 160.552 48.277 160.552 48.2865C160.552 48.2938 160.55 48.2999 160.548 48.3046L160.295 48.8267C160.291 48.8332 160.286 48.839 160.277 48.844C160.269 48.8493 160.26 48.8519 160.249 48.8519C160.229 48.8519 160.214 48.844 160.205 48.8283L159.923 48.3113C159.92 48.3066 159.919 48.3001 159.919 48.292Z" fill="#BC01FD"/>
<path d="M160.889 48.2703C160.893 48.2637 160.899 48.2582 160.907 48.2537C160.916 48.249 160.925 48.2466 160.934 48.2466C160.943 48.2466 160.951 48.249 160.96 48.2537C160.969 48.2582 160.975 48.2637 160.979 48.2703L161.246 48.7734C161.249 48.7787 161.25 48.7841 161.25 48.7896C161.25 48.8004 161.245 48.8097 161.235 48.8176C161.226 48.8252 161.215 48.829 161.201 48.829C161.192 48.829 161.184 48.8267 161.175 48.8219C161.166 48.8172 161.16 48.8116 161.156 48.805L161.073 48.6484L160.796 48.6453L160.711 48.8054C160.708 48.812 160.702 48.8176 160.694 48.8223C160.685 48.8273 160.676 48.8298 160.667 48.8298C160.654 48.8298 160.642 48.826 160.632 48.8184C160.623 48.8105 160.618 48.8012 160.618 48.7904C160.618 48.7849 160.62 48.7795 160.623 48.7742L160.889 48.2703ZM160.934 48.3858L160.838 48.5668L161.031 48.5688L160.934 48.3858Z" fill="#BC01FD"/>
<path d="M161.316 48.2955C161.316 48.2848 161.321 48.2756 161.33 48.2679C161.34 48.2601 161.351 48.2561 161.364 48.2561L161.85 48.2537H161.851C161.864 48.2537 161.876 48.2577 161.885 48.2656C161.895 48.2732 161.9 48.2824 161.9 48.2932C161.9 48.304 161.895 48.3133 161.885 48.3212C161.876 48.3288 161.864 48.3326 161.851 48.3326L161.657 48.3334L161.655 48.7861C161.655 48.7966 161.65 48.806 161.64 48.8137C161.631 48.8213 161.619 48.8251 161.606 48.8251C161.593 48.8251 161.581 48.8213 161.572 48.8137C161.562 48.806 161.558 48.797 161.558 48.7865L161.56 48.3338L161.365 48.335C161.352 48.335 161.34 48.3312 161.33 48.3235C161.321 48.3157 161.316 48.3063 161.316 48.2955Z" fill="#BC01FD"/>
<path d="M162.039 48.8243C162.026 48.8243 162.014 48.8205 162.005 48.8129C161.995 48.805 161.991 48.7957 161.991 48.7849L161.99 48.2916C161.99 48.2816 161.995 48.2725 162.004 48.2644C162.013 48.2562 162.024 48.2522 162.036 48.2522C162.051 48.2522 162.063 48.256 162.073 48.2636C162.082 48.271 162.087 48.2803 162.087 48.2916L162.088 48.7849C162.088 48.7957 162.083 48.805 162.073 48.8129C162.064 48.8205 162.052 48.8243 162.039 48.8243Z" fill="#BC01FD"/>
<path d="M162.531 48.2482C162.58 48.2482 162.626 48.2561 162.667 48.2719C162.709 48.2874 162.745 48.3088 162.776 48.3362C162.807 48.3632 162.831 48.3945 162.847 48.43C162.864 48.4652 162.873 48.5027 162.873 48.5424C162.873 48.5821 162.864 48.6194 162.847 48.6544C162.831 48.6891 162.807 48.7197 162.777 48.7462C162.747 48.7728 162.71 48.7936 162.669 48.8085C162.627 48.8235 162.581 48.831 162.531 48.831C162.48 48.831 162.434 48.8235 162.392 48.8085C162.35 48.7933 162.314 48.7724 162.284 48.7458C162.254 48.719 162.231 48.6881 162.215 48.6532C162.199 48.618 162.191 48.5802 162.191 48.54C162.191 48.5008 162.199 48.4638 162.216 48.4288C162.233 48.3939 162.257 48.3628 162.287 48.3358C162.318 48.3084 162.354 48.287 162.395 48.2715C162.437 48.256 162.482 48.2482 162.531 48.2482ZM162.533 48.3283C162.485 48.3283 162.442 48.3384 162.405 48.3586C162.369 48.3789 162.34 48.4057 162.319 48.4391C162.298 48.4722 162.288 48.5085 162.288 48.5479C162.288 48.5747 162.294 48.6003 162.307 48.6248C162.32 48.6492 162.337 48.6711 162.359 48.6902C162.382 48.7092 162.407 48.7242 162.437 48.7352C162.466 48.746 162.497 48.7514 162.531 48.7514C162.564 48.7514 162.595 48.7457 162.625 48.7344C162.655 48.7231 162.681 48.7079 162.704 48.6887C162.727 48.6695 162.745 48.6479 162.758 48.624C162.77 48.5998 162.777 48.5751 162.777 48.5499C162.777 48.5091 162.766 48.4721 162.744 48.4387C162.722 48.405 162.693 48.3782 162.656 48.3582C162.619 48.3383 162.578 48.3283 162.533 48.3283Z" fill="#BC01FD"/>
<path d="M162.963 48.2936C162.963 48.2825 162.968 48.2735 162.978 48.2664C162.988 48.259 163 48.2553 163.013 48.2553C163.028 48.2553 163.041 48.2603 163.051 48.2703L163.417 48.6745V48.2948C163.417 48.2842 163.422 48.2753 163.431 48.2679C163.441 48.2603 163.452 48.2565 163.466 48.2565C163.479 48.2565 163.49 48.2603 163.5 48.2679C163.509 48.2753 163.514 48.2842 163.514 48.2948L163.514 48.7892C163.514 48.8003 163.509 48.8095 163.499 48.8168C163.489 48.8239 163.477 48.8275 163.464 48.8275C163.449 48.8275 163.436 48.8222 163.426 48.8117L163.06 48.4079V48.7888C163.06 48.7993 163.055 48.8084 163.046 48.816C163.036 48.8234 163.025 48.8271 163.012 48.8271C162.998 48.8271 162.987 48.8234 162.977 48.816C162.968 48.8084 162.963 48.7993 162.963 48.7888V48.2936Z" fill="#BC01FD"/>
<path d="M145.276 48.1535H141.298C141.241 48.1535 141.194 48.1062 141.194 48.0479C141.194 47.9897 141.241 47.9424 141.298 47.9424H145.097L143.052 44.3266L142.98 44.4483C142.951 44.4988 142.888 44.5162 142.839 44.4872C142.789 44.4581 142.772 44.3936 142.801 44.343L142.962 44.0627C142.981 44.03 143.015 44.0098 143.052 44.0098C143.089 44.0098 143.123 44.0299 143.141 44.0625L145.366 47.9952C145.384 48.0278 145.384 48.0681 145.366 48.1007C145.347 48.1334 145.313 48.1535 145.276 48.1535Z" fill="#BC01FD"/>
<path d="M140.361 48.1535H140.042C140.005 48.1535 139.971 48.1334 139.953 48.1007C139.934 48.0681 139.934 48.0278 139.953 47.9952L142.177 44.0625C142.196 44.0299 142.23 44.0098 142.267 44.0098C142.304 44.0098 142.338 44.0299 142.356 44.0625L144.34 47.5699C144.382 47.6497 144.361 47.6925 144.312 47.7216C144.273 47.7443 144.209 47.7478 144.152 47.6563L142.267 44.3264L140.221 47.9424H140.361C140.418 47.9424 140.465 47.9897 140.465 48.0479C140.465 48.1062 140.418 48.1535 140.361 48.1535Z" fill="#BC01FD"/>
<path d="M144.883 48.8518H140.435C140.398 48.8518 140.364 48.8317 140.346 48.7991C140.327 48.7664 140.327 48.7262 140.346 48.6935L142.334 45.1785C142.362 45.1281 142.425 45.1108 142.475 45.1399C142.524 45.169 142.541 45.2336 142.513 45.2841L140.614 48.6407H144.705L144.645 48.5196C144.616 48.4691 144.633 48.4045 144.683 48.3755C144.732 48.3464 144.795 48.3638 144.824 48.4143L144.973 48.6937C144.991 48.7264 144.991 48.7666 144.973 48.7992C144.955 48.8319 144.92 48.8518 144.883 48.8518Z" fill="#BC01FD"/>
<path d="M96.7168 45.3757C96.7168 45.684 96.6107 45.9409 96.3983 46.1464C96.1895 46.3484 95.8693 46.4494 95.4375 46.4494H94.7262V47.9961H94.2432V44.2915H95.4375C95.8551 44.2915 96.1719 44.3925 96.3877 44.5944C96.6071 44.7964 96.7168 45.0568 96.7168 45.3757ZM95.4375 46.0508C95.7065 46.0508 95.9047 45.9923 96.0321 45.8754C96.1595 45.7584 96.2232 45.5919 96.2232 45.3757C96.2232 44.9186 95.9613 44.6901 95.4375 44.6901H94.7262V46.0508H95.4375Z" fill="#585858"/>
<path d="M99.7697 47.1722H98.1559L97.8587 47.9961H97.3491L98.6868 44.3127H99.2441L100.577 47.9961H100.067L99.7697 47.1722ZM99.6316 46.7789L98.9628 44.908L98.2939 46.7789H99.6316Z" fill="#585858"/>
<path d="M103.373 47.9961L102.492 46.4813H101.908V47.9961H101.425V44.2915H102.619C102.899 44.2915 103.134 44.3393 103.325 44.435C103.52 44.5306 103.665 44.66 103.761 44.823C103.856 44.986 103.904 45.172 103.904 45.3811C103.904 45.6362 103.83 45.8612 103.681 46.0561C103.536 46.251 103.316 46.3803 103.023 46.4441L103.952 47.9961H103.373ZM101.908 46.0933H102.619C102.881 46.0933 103.078 46.0295 103.209 45.9019C103.339 45.7708 103.405 45.5972 103.405 45.3811C103.405 45.1614 103.339 44.9913 103.209 44.8708C103.081 44.7503 102.885 44.6901 102.619 44.6901H101.908V46.0933Z" fill="#585858"/>
<path d="M104.739 46.1411C104.739 45.7797 104.821 45.4555 104.984 45.1685C105.146 44.8779 105.368 44.6511 105.647 44.4881C105.93 44.3251 106.243 44.2436 106.587 44.2436C106.99 44.2436 107.342 44.3411 107.643 44.536C107.944 44.7308 108.163 45.0072 108.301 45.3651H107.723C107.62 45.1419 107.471 44.97 107.277 44.8496C107.086 44.7291 106.856 44.6688 106.587 44.6688C106.328 44.6688 106.097 44.7291 105.891 44.8496C105.686 44.97 105.525 45.1419 105.408 45.3651C105.292 45.5848 105.233 45.8435 105.233 46.1411C105.233 46.4352 105.292 46.6939 105.408 46.9171C105.525 47.1368 105.686 47.3069 105.891 47.4274C106.097 47.5478 106.328 47.6081 106.587 47.6081C106.856 47.6081 107.086 47.5496 107.277 47.4327C107.471 47.3122 107.62 47.1404 107.723 46.9171H108.301C108.163 47.2715 107.944 47.5461 107.643 47.741C107.342 47.9323 106.99 48.028 106.587 48.028C106.243 48.028 105.93 47.9482 105.647 47.7888C105.368 47.6258 105.146 47.4008 104.984 47.1138C104.821 46.8268 104.739 46.5025 104.739 46.1411Z" fill="#585858"/>
<path d="M109.769 44.6848V45.9232H111.117V46.3218H109.769V47.5975H111.276V47.9961H109.286V44.2862H111.276V44.6848H109.769Z" fill="#585858"/>
<path d="M114.221 47.9961L113.34 46.4813H112.756V47.9961H112.273V44.2915H113.467C113.747 44.2915 113.982 44.3393 114.173 44.435C114.368 44.5306 114.513 44.66 114.608 44.823C114.704 44.986 114.752 45.172 114.752 45.3811C114.752 45.6362 114.677 45.8612 114.529 46.0561C114.384 46.251 114.164 46.3803 113.871 46.4441L114.8 47.9961H114.221ZM112.756 46.0933H113.467C113.729 46.0933 113.925 46.0295 114.056 45.9019C114.187 45.7708 114.253 45.5972 114.253 45.3811C114.253 45.1614 114.187 44.9913 114.056 44.8708C113.929 44.7503 113.733 44.6901 113.467 44.6901H112.756V46.0933Z" fill="#585858"/>
<path d="M116.251 44.2915V47.9961H115.768V44.2915H116.251Z" fill="#585858"/>
<path d="M119.527 47.1722H117.913L117.616 47.9961H117.106L118.444 44.3127H119.001L120.333 47.9961H119.824L119.527 47.1722ZM119.389 46.7789L118.72 44.908L118.051 46.7789H119.389Z" fill="#585858"/>
<path d="M122.682 46.1411C122.682 45.7797 122.763 45.4555 122.926 45.1685C123.089 44.8779 123.31 44.6511 123.59 44.4881C123.873 44.3251 124.186 44.2436 124.529 44.2436C124.933 44.2436 125.285 44.3411 125.586 44.536C125.886 44.7308 126.106 45.0072 126.244 45.3651H125.665C125.563 45.1419 125.414 44.97 125.219 44.8496C125.028 44.7291 124.798 44.6688 124.529 44.6688C124.271 44.6688 124.039 44.7291 123.834 44.8496C123.629 44.97 123.468 45.1419 123.351 45.3651C123.234 45.5848 123.176 45.8435 123.176 46.1411C123.176 46.4352 123.234 46.6939 123.351 46.9171C123.468 47.1368 123.629 47.3069 123.834 47.4274C124.039 47.5478 124.271 47.6081 124.529 47.6081C124.798 47.6081 125.028 47.5496 125.219 47.4327C125.414 47.3122 125.563 47.1404 125.665 46.9171H126.244C126.106 47.2715 125.886 47.5461 125.586 47.741C125.285 47.9323 124.933 48.028 124.529 48.028C124.186 48.028 123.873 47.9482 123.59 47.7888C123.31 47.6258 123.089 47.4008 122.926 47.1138C122.763 46.8268 122.682 46.5025 122.682 46.1411Z" fill="#585858"/>
<path d="M128.906 48.0333C128.562 48.0333 128.249 47.9536 127.966 47.7941C127.683 47.6311 127.458 47.4061 127.292 47.1191C127.129 46.8285 127.048 46.5025 127.048 46.1411C127.048 45.7797 127.129 45.4555 127.292 45.1685C127.458 44.8779 127.683 44.6529 127.966 44.4934C128.249 44.3304 128.562 44.2489 128.906 44.2489C129.253 44.2489 129.568 44.3304 129.851 44.4934C130.134 44.6529 130.357 44.8761 130.519 45.1631C130.682 45.4502 130.764 45.7761 130.764 46.1411C130.764 46.5061 130.682 46.8321 130.519 47.1191C130.357 47.4061 130.134 47.6311 129.851 47.7941C129.568 47.9536 129.253 48.0333 128.906 48.0333ZM128.906 47.6134C129.164 47.6134 129.396 47.5532 129.601 47.4327C129.81 47.3122 129.973 47.1404 130.089 46.9171C130.21 46.6939 130.27 46.4352 130.27 46.1411C130.27 45.8435 130.21 45.5848 130.089 45.3651C129.973 45.1419 129.812 44.97 129.606 44.8496C129.401 44.7291 129.168 44.6688 128.906 44.6688C128.644 44.6688 128.41 44.7291 128.205 44.8496C128 44.97 127.837 45.1419 127.717 45.3651C127.6 45.5848 127.542 45.8435 127.542 46.1411C127.542 46.4352 127.6 46.6939 127.717 46.9171C127.837 47.1404 128 47.3122 128.205 47.4327C128.414 47.5532 128.647 47.6134 128.906 47.6134Z" fill="#585858"/>
<path d="M135.42 44.318V47.9961H134.937V45.2535L133.716 47.9961H133.376L132.15 45.2482V47.9961H131.667V44.318H132.187L133.546 47.3583L134.905 44.318H135.42Z" fill="#585858"/>
<path d="M149.606 47.1345C149.606 47.2732 149.491 47.386 149.355 47.386C149.246 47.386 149.151 47.3176 149.122 47.227L148.915 46.6779H147.279L147.072 47.227C147.037 47.3158 146.943 47.386 146.84 47.386C146.701 47.386 146.588 47.2714 146.588 47.1345C146.588 47.105 146.598 47.0698 146.609 47.0403L147.694 44.3151C147.754 44.1561 147.912 44.0378 148.095 44.0378C148.278 44.0378 148.437 44.1561 148.5 44.3151L149.585 47.0403C149.597 47.0661 149.606 47.1013 149.606 47.1345ZM148.753 46.2397L148.095 44.4944L147.443 46.2397H148.753Z" fill="#BC01FD"/>
<path d="M152.832 45.8939V46.6501C152.832 46.7833 152.797 46.883 152.699 46.9718C152.392 47.2491 151.993 47.4267 151.504 47.4267C150.56 47.4267 149.796 46.7444 149.796 45.7164C149.796 44.6883 150.562 44.0098 151.504 44.0098C151.997 44.0098 152.359 44.1836 152.636 44.4589C152.68 44.4979 152.704 44.5569 152.704 44.6216C152.704 44.7511 152.601 44.8491 152.472 44.8491C152.413 44.8491 152.354 44.825 152.309 44.7843C152.106 44.581 151.826 44.4478 151.504 44.4478C150.817 44.4478 150.304 44.9728 150.304 45.7142C150.304 46.4555 150.817 46.9843 151.504 46.9843C151.87 46.9843 152.18 46.8067 152.339 46.6571V46.0636H151.475C151.357 46.0636 151.257 45.9657 151.257 45.8417C151.257 45.7177 151.355 45.6291 151.475 45.6291H152.572C152.738 45.6309 152.832 45.7258 152.832 45.8939Z" fill="#BC01FD"/>
<path d="M153.463 47.1402V44.2872C153.463 44.1541 153.578 44.0395 153.715 44.0395C153.851 44.0395 153.957 44.1541 153.957 44.2872V47.1402C153.957 47.2733 153.848 47.3879 153.715 47.3879C153.582 47.3879 153.463 47.2733 153.463 47.1402Z" fill="#BC01FD"/>
<path d="M154.693 47.1012V44.2872C154.693 44.1541 154.808 44.0395 154.944 44.0395C155.081 44.0395 155.186 44.1541 155.186 44.2872V46.9274H156.485C156.603 46.9274 156.706 47.0216 156.706 47.1399C156.706 47.2583 156.603 47.3619 156.485 47.3619H154.961C154.788 47.3637 154.693 47.2694 154.693 47.1012Z" fill="#BC01FD"/>
<path d="M157.229 47.1402V44.2872C157.229 44.1541 157.343 44.0395 157.48 44.0395C157.616 44.0395 157.722 44.1541 157.722 44.2872V47.1402C157.722 47.2733 157.613 47.3879 157.48 47.3879C157.347 47.3879 157.229 47.2733 157.229 47.1402Z" fill="#BC01FD"/>
<path d="M159.264 47.1402V44.5001H158.432C158.314 44.5001 158.214 44.4058 158.214 44.2875C158.214 44.1692 158.312 44.0655 158.432 44.0655H160.582C160.7 44.0655 160.804 44.1635 160.804 44.2875C160.804 44.4115 160.7 44.5001 160.582 44.5001H159.756V47.1402C159.756 47.2734 159.642 47.388 159.509 47.388C159.376 47.388 159.264 47.2734 159.264 47.1402Z" fill="#BC01FD"/>
<path d="M163.788 44.4056L162.731 45.9827V47.1402C162.731 47.2733 162.623 47.3879 162.484 47.3879C162.346 47.3879 162.237 47.2733 162.237 47.1402V45.9827L161.175 44.4093C161.151 44.3741 161.136 44.3262 161.136 44.2761C161.136 44.1429 161.245 44.0395 161.372 44.0395C161.455 44.0395 161.531 44.0784 161.575 44.1486L162.484 45.5427L163.387 44.1486C163.431 44.0839 163.505 44.0395 163.59 44.0395C163.719 44.0395 163.826 44.1429 163.826 44.2761C163.826 44.326 163.812 44.3703 163.788 44.4056Z" fill="#BC01FD"/>
<path d="M147.187 48.611C147.199 48.611 147.209 48.6148 147.219 48.6224C147.228 48.6298 147.233 48.6381 147.233 48.6473C147.233 48.6546 147.232 48.6609 147.228 48.6662C147.212 48.6951 147.189 48.7221 147.16 48.747C147.13 48.7717 147.095 48.7916 147.054 48.8066C147.013 48.8216 146.968 48.829 146.917 48.829C146.867 48.829 146.822 48.8213 146.781 48.8058C146.741 48.7903 146.706 48.7691 146.677 48.7423C146.649 48.7152 146.627 48.6842 146.611 48.6492C146.596 48.614 146.588 48.5768 146.588 48.5376C146.588 48.499 146.596 48.4622 146.612 48.4272C146.627 48.3923 146.649 48.3614 146.678 48.3346C146.707 48.3075 146.741 48.2862 146.782 48.2707C146.822 48.2552 146.866 48.2474 146.915 48.2474C146.965 48.2474 147.01 48.2547 147.051 48.2691C147.092 48.2833 147.127 48.3024 147.157 48.3263C147.187 48.35 147.21 48.376 147.227 48.4044C147.231 48.4099 147.232 48.4157 147.232 48.4217C147.232 48.4314 147.228 48.4404 147.219 48.4485C147.211 48.4564 147.201 48.4604 147.19 48.4604C147.179 48.4604 147.169 48.4585 147.16 48.4548C147.151 48.4509 147.144 48.4451 147.14 48.4375C147.122 48.407 147.093 48.3808 147.054 48.359C147.016 48.3372 146.969 48.3263 146.915 48.3263C146.869 48.3263 146.828 48.336 146.793 48.3555C146.759 48.3749 146.732 48.4008 146.714 48.4332C146.695 48.4652 146.685 48.5003 146.685 48.5384C146.685 48.5768 146.695 48.612 146.713 48.6441C146.732 48.6762 146.758 48.7018 146.793 48.721C146.827 48.7402 146.868 48.7498 146.916 48.7498C146.952 48.7498 146.984 48.7445 147.013 48.734C147.043 48.7232 147.069 48.709 147.091 48.6914C147.112 48.6738 147.129 48.6549 147.14 48.6346C147.149 48.6189 147.165 48.611 147.187 48.611Z" fill="#BC01FD"/>
<path d="M147.825 48.792C147.825 48.8022 147.82 48.8112 147.81 48.8188C147.801 48.8262 147.792 48.8298 147.781 48.8298C147.772 48.8298 147.764 48.8272 147.757 48.8219C147.75 48.817 147.746 48.8131 147.743 48.8105C147.714 48.7937 147.688 48.7746 147.666 48.7533C147.645 48.7318 147.627 48.7084 147.612 48.6831C147.598 48.6605 147.585 48.6429 147.571 48.6303C147.557 48.6177 147.541 48.6088 147.521 48.6035C147.502 48.5982 147.477 48.5955 147.446 48.5952L147.401 48.5948L147.402 48.7857C147.402 48.7962 147.397 48.8062 147.387 48.8141C147.378 48.8219 147.367 48.8259 147.353 48.8259C147.34 48.8259 147.329 48.8217 147.319 48.8133C147.31 48.8049 147.305 48.7949 147.305 48.7833L147.303 48.294C147.303 48.2829 147.308 48.2737 147.317 48.2664C147.327 48.2587 147.338 48.2548 147.351 48.2545L147.48 48.2541H147.492C147.547 48.2541 147.597 48.2608 147.641 48.2742C147.684 48.2874 147.719 48.3072 147.744 48.3338C147.769 48.3601 147.782 48.3928 147.782 48.432C147.782 48.4572 147.775 48.4797 147.762 48.4994C147.75 48.5191 147.733 48.5358 147.712 48.5495C147.692 48.5631 147.669 48.5738 147.645 48.5814C147.656 48.5927 147.667 48.6067 147.678 48.6232C147.697 48.6524 147.716 48.6783 147.733 48.7009C147.751 48.7232 147.775 48.743 147.804 48.76C147.809 48.7632 147.814 48.7677 147.818 48.7734C147.822 48.779 147.825 48.7851 147.825 48.792ZM147.494 48.333H147.4L147.401 48.5215L147.495 48.5207C147.555 48.5202 147.601 48.5128 147.635 48.4986C147.669 48.4844 147.686 48.4617 147.686 48.4304C147.686 48.3983 147.668 48.3741 147.632 48.3578C147.596 48.3413 147.55 48.333 147.494 48.333Z" fill="#BC01FD"/>
<path d="M147.898 48.2936C147.898 48.2831 147.902 48.2741 147.912 48.2668C147.921 48.2591 147.933 48.2553 147.946 48.2553L148.362 48.2557C148.376 48.2557 148.387 48.2597 148.396 48.2675C148.406 48.2752 148.411 48.2844 148.411 48.2951C148.411 48.3059 148.406 48.3153 148.396 48.3231C148.387 48.3308 148.376 48.3346 148.362 48.3346L147.995 48.3342L147.995 48.4959L148.322 48.4978C148.336 48.4978 148.347 48.5018 148.357 48.5097C148.366 48.5175 148.371 48.5277 148.371 48.54C148.371 48.5505 148.366 48.5595 148.356 48.5668C148.346 48.5739 148.334 48.5775 148.322 48.5775L147.996 48.5755L147.996 48.7423L148.362 48.7419C148.375 48.7419 148.387 48.7458 148.396 48.7537C148.406 48.7614 148.411 48.7706 148.411 48.7813C148.411 48.7921 148.406 48.8014 148.396 48.8093C148.387 48.817 148.376 48.8208 148.362 48.8208L147.948 48.8212C147.934 48.8212 147.923 48.8173 147.913 48.8097C147.904 48.8018 147.899 48.7926 147.899 48.7821L147.898 48.2936Z" fill="#BC01FD"/>
<path d="M148.741 48.2703C148.744 48.2637 148.75 48.2582 148.759 48.2537C148.767 48.249 148.776 48.2466 148.785 48.2466C148.794 48.2466 148.803 48.249 148.811 48.2537C148.82 48.2582 148.827 48.2637 148.83 48.2703L149.097 48.7734C149.1 48.7787 149.101 48.7841 149.101 48.7896C149.101 48.8004 149.096 48.8097 149.087 48.8176C149.077 48.8252 149.066 48.829 149.053 48.829C149.044 48.829 149.035 48.8267 149.026 48.8219C149.017 48.8172 149.011 48.8116 149.007 48.805L148.924 48.6484L148.648 48.6453L148.563 48.8054C148.56 48.812 148.554 48.8176 148.545 48.8223C148.536 48.8273 148.527 48.8298 148.518 48.8298C148.505 48.8298 148.494 48.826 148.484 48.8184C148.475 48.8105 148.47 48.8012 148.47 48.7904C148.47 48.7849 148.471 48.7795 148.474 48.7742L148.741 48.2703ZM148.785 48.3858L148.69 48.5668L148.882 48.5688L148.785 48.3858Z" fill="#BC01FD"/>
<path d="M149.147 48.2955C149.147 48.2848 149.152 48.2756 149.161 48.2679C149.171 48.2601 149.182 48.2561 149.195 48.2561L149.681 48.2537H149.682C149.695 48.2537 149.706 48.2577 149.716 48.2656C149.725 48.2732 149.73 48.2824 149.73 48.2932C149.73 48.304 149.725 48.3133 149.716 48.3212C149.706 48.3288 149.695 48.3326 149.682 48.3326L149.488 48.3334L149.486 48.7861C149.486 48.7966 149.481 48.806 149.471 48.8137C149.462 48.8213 149.45 48.8251 149.437 48.8251C149.424 48.8251 149.412 48.8213 149.403 48.8137C149.393 48.806 149.389 48.797 149.389 48.7865L149.391 48.3338L149.196 48.335C149.183 48.335 149.171 48.3312 149.161 48.3235C149.152 48.3157 149.147 48.3063 149.147 48.2955Z" fill="#BC01FD"/>
<path d="M149.85 48.8243C149.837 48.8243 149.825 48.8205 149.815 48.8129C149.806 48.805 149.801 48.7957 149.801 48.7849L149.801 48.2916C149.801 48.2816 149.805 48.2725 149.814 48.2644C149.823 48.2562 149.834 48.2522 149.847 48.2522C149.862 48.2522 149.874 48.256 149.883 48.2636C149.893 48.271 149.898 48.2803 149.898 48.2916L149.898 48.7849C149.898 48.7957 149.893 48.805 149.884 48.8129C149.874 48.8205 149.863 48.8243 149.85 48.8243Z" fill="#BC01FD"/>
<path d="M149.969 48.292C149.969 48.2828 149.974 48.2744 149.983 48.2668C149.993 48.2591 150.004 48.2553 150.015 48.2553C150.039 48.2553 150.054 48.2632 150.063 48.279L150.297 48.7119L150.508 48.2746C150.516 48.2581 150.532 48.2498 150.556 48.2498C150.567 48.2498 150.578 48.2536 150.588 48.2612C150.597 48.2686 150.602 48.277 150.602 48.2865C150.602 48.2938 150.6 48.2999 150.598 48.3046L150.345 48.8267C150.342 48.8332 150.336 48.839 150.327 48.844C150.319 48.8493 150.31 48.8519 150.3 48.8519C150.279 48.8519 150.265 48.844 150.256 48.8283L149.974 48.3113C149.971 48.3066 149.969 48.3001 149.969 48.292Z" fill="#BC01FD"/>
<path d="M150.661 48.2936C150.661 48.2831 150.665 48.2741 150.675 48.2668C150.684 48.2591 150.696 48.2553 150.709 48.2553L151.125 48.2557C151.139 48.2557 151.15 48.2597 151.159 48.2675C151.169 48.2752 151.174 48.2844 151.174 48.2951C151.174 48.3059 151.169 48.3153 151.159 48.3231C151.15 48.3308 151.139 48.3346 151.125 48.3346L150.758 48.3342L150.758 48.4959L151.085 48.4978C151.099 48.4978 151.111 48.5018 151.12 48.5097C151.129 48.5175 151.134 48.5277 151.134 48.54C151.134 48.5505 151.129 48.5595 151.119 48.5668C151.109 48.5739 151.097 48.5775 151.085 48.5775L150.759 48.5755L150.759 48.7423L151.125 48.7419C151.138 48.7419 151.15 48.7458 151.159 48.7537C151.169 48.7614 151.174 48.7706 151.174 48.7813C151.174 48.7921 151.169 48.8014 151.159 48.8093C151.15 48.817 151.139 48.8208 151.125 48.8208L150.711 48.8212C150.697 48.8212 150.686 48.8173 150.676 48.8097C150.667 48.8018 150.662 48.7926 150.662 48.7821L150.661 48.2936Z" fill="#BC01FD"/>
<path d="M151.733 48.5494C151.733 48.4999 151.784 48.4585 151.845 48.4585C151.906 48.4585 151.957 48.4999 151.957 48.5494C151.957 48.5989 151.906 48.6403 151.845 48.6403C151.784 48.6403 151.733 48.5989 151.733 48.5494Z" fill="#BC01FD"/>
<path d="M156.878 48.5494C156.878 48.4999 156.929 48.4585 156.99 48.4585C157.051 48.4585 157.102 48.4999 157.102 48.5494C157.102 48.5989 157.051 48.6403 156.99 48.6403C156.929 48.6403 156.878 48.5989 156.878 48.5494Z" fill="#BC01FD"/>
<path d="M152.743 48.2552H152.751C152.809 48.2552 152.86 48.2637 152.904 48.2805C152.948 48.2972 152.985 48.3198 153.014 48.3483C153.044 48.3767 153.066 48.4085 153.081 48.4439C153.096 48.479 153.104 48.515 153.104 48.5517C153.104 48.6078 153.088 48.6578 153.058 48.7016C153.027 48.7455 152.982 48.7799 152.922 48.8049C152.863 48.83 152.789 48.8425 152.702 48.8425H152.679L152.565 48.8417C152.552 48.8414 152.541 48.8372 152.531 48.829C152.521 48.8209 152.516 48.8111 152.516 48.7996L152.52 48.2985C152.52 48.2876 152.525 48.2782 152.534 48.2703C152.544 48.2622 152.555 48.2579 152.568 48.2577L152.743 48.2552ZM153.016 48.5493C153.016 48.4986 153.002 48.4578 152.976 48.4268C152.95 48.3957 152.913 48.3731 152.866 48.359C152.819 48.3445 152.763 48.3373 152.699 48.3373C152.686 48.3373 152.672 48.3374 152.659 48.3377C152.645 48.338 152.632 48.3384 152.619 48.3389L152.616 48.7592L152.68 48.76C152.746 48.76 152.804 48.7535 152.855 48.7404C152.905 48.7271 152.945 48.705 152.973 48.6743C153.001 48.6435 153.016 48.6018 153.016 48.5493Z" fill="#BC01FD"/>
<path d="M153.284 48.8462C153.27 48.8462 153.258 48.8422 153.249 48.8344C153.239 48.8262 153.234 48.8165 153.234 48.8054L153.234 48.2944C153.234 48.2841 153.238 48.2747 153.248 48.2663C153.257 48.2578 153.268 48.2536 153.281 48.2536C153.296 48.2536 153.308 48.2575 153.318 48.2654C153.328 48.2731 153.333 48.2827 153.333 48.2944L153.333 48.8054C153.333 48.8165 153.328 48.8262 153.318 48.8344C153.309 48.8422 153.297 48.8462 153.284 48.8462Z" fill="#BC01FD"/>
<path d="M153.441 48.5566C153.441 48.5166 153.45 48.4781 153.467 48.4411C153.485 48.404 153.509 48.3711 153.541 48.3422C153.573 48.3131 153.611 48.2901 153.655 48.2732C153.699 48.2563 153.748 48.2479 153.802 48.2479C153.851 48.2479 153.896 48.2535 153.936 48.2646C153.976 48.2758 154.014 48.2916 154.049 48.312C154.063 48.3199 154.071 48.3308 154.071 48.3447C154.071 48.3556 154.066 48.3651 154.056 48.3733C154.046 48.3812 154.034 48.3851 154.021 48.3851C154.01 48.3851 154.001 48.3825 153.992 48.3773C153.966 48.3629 153.937 48.3515 153.904 48.343C153.872 48.3343 153.839 48.33 153.805 48.33C153.766 48.33 153.73 48.3361 153.698 48.3483C153.666 48.3603 153.638 48.3769 153.614 48.3982C153.59 48.4191 153.572 48.4431 153.559 48.47C153.546 48.497 153.54 48.5253 153.54 48.555C153.54 48.5956 153.55 48.6316 153.572 48.6632C153.594 48.6948 153.624 48.7196 153.663 48.7376C153.702 48.7555 153.747 48.7645 153.799 48.7645C153.827 48.7645 153.855 48.7622 153.883 48.7576C153.911 48.7529 153.937 48.7476 153.96 48.7416L153.958 48.6024H153.807C153.793 48.6024 153.782 48.5984 153.772 48.5905C153.762 48.5824 153.757 48.5727 153.757 48.5615C153.757 48.5504 153.762 48.5408 153.772 48.5329C153.782 48.5248 153.793 48.5207 153.807 48.5207H154.008C154.022 48.5207 154.033 48.5246 154.043 48.5325C154.053 48.5404 154.058 48.55 154.058 48.5611L154.06 48.7698C154.06 48.7774 154.057 48.7852 154.051 48.7923C154.045 48.7994 154.037 48.8043 154.028 48.807C153.997 48.8173 153.962 48.8266 153.923 48.8348C153.885 48.8427 153.844 48.8466 153.802 48.8466C153.733 48.8466 153.671 48.8342 153.616 48.8094C153.562 48.7847 153.519 48.7505 153.488 48.7069C153.457 48.6634 153.441 48.6133 153.441 48.5566Z" fill="#BC01FD"/>
<path d="M154.238 48.8462C154.224 48.8462 154.213 48.8422 154.203 48.8344C154.193 48.8262 154.188 48.8165 154.188 48.8054L154.188 48.2944C154.188 48.2841 154.192 48.2747 154.202 48.2663C154.211 48.2578 154.222 48.2536 154.235 48.2536C154.25 48.2536 154.263 48.2575 154.272 48.2654C154.282 48.2731 154.287 48.2827 154.287 48.2944L154.288 48.8054C154.288 48.8165 154.283 48.8262 154.273 48.8344C154.263 48.8422 154.252 48.8462 154.238 48.8462Z" fill="#BC01FD"/>
<path d="M154.381 48.2985C154.381 48.2874 154.385 48.2778 154.395 48.2699C154.405 48.2618 154.417 48.2577 154.43 48.2577L154.926 48.2552H154.927C154.941 48.2552 154.953 48.2593 154.962 48.2675C154.972 48.2754 154.977 48.2849 154.977 48.2961C154.977 48.3072 154.972 48.3169 154.962 48.3251C154.953 48.333 154.941 48.3369 154.927 48.3369L154.729 48.3377L154.727 48.8066C154.727 48.8175 154.722 48.8273 154.712 48.8352C154.703 48.8431 154.691 48.847 154.677 48.847C154.664 48.847 154.652 48.8431 154.642 48.8352C154.633 48.8273 154.628 48.8179 154.628 48.807V48.8062L154.63 48.3381L154.431 48.3394C154.417 48.3394 154.405 48.3354 154.395 48.3275C154.385 48.3193 154.381 48.3097 154.381 48.2985Z" fill="#BC01FD"/>
<path d="M155.322 48.2724C155.325 48.2656 155.331 48.2599 155.34 48.2552C155.349 48.2503 155.358 48.2479 155.367 48.2479C155.376 48.2479 155.385 48.2503 155.394 48.2552C155.403 48.2599 155.41 48.2656 155.413 48.2724L155.686 48.7935C155.689 48.799 155.69 48.8045 155.69 48.8103C155.69 48.8214 155.685 48.8311 155.676 48.8393C155.666 48.8471 155.654 48.8511 155.641 48.8511C155.632 48.8511 155.622 48.8486 155.614 48.8437C155.605 48.8388 155.598 48.833 155.595 48.8262L155.51 48.664L155.227 48.6608L155.14 48.8266C155.137 48.8334 155.131 48.8393 155.122 48.8442C155.113 48.8493 155.104 48.8519 155.094 48.8519C155.081 48.8519 155.069 48.848 155.059 48.8401C155.05 48.8319 155.045 48.8222 155.045 48.8111C155.045 48.8054 155.046 48.7998 155.049 48.7943L155.322 48.2724ZM155.367 48.392L155.27 48.5795L155.467 48.5815L155.367 48.392Z" fill="#BC01FD"/>
<path d="M155.843 48.8454C155.83 48.8454 155.818 48.8414 155.808 48.8335C155.799 48.8254 155.794 48.8158 155.794 48.8049L155.792 48.2867C155.792 48.2758 155.797 48.2661 155.807 48.2585C155.817 48.2506 155.828 48.2466 155.842 48.2466C155.856 48.2466 155.867 48.2506 155.877 48.2585C155.887 48.2661 155.892 48.2754 155.892 48.2863L155.893 48.7637L156.269 48.7629C156.282 48.7629 156.294 48.767 156.304 48.7751C156.314 48.783 156.319 48.7926 156.319 48.8037C156.319 48.8149 156.314 48.8245 156.304 48.8327C156.294 48.8406 156.283 48.8446 156.269 48.8446L155.843 48.8454Z" fill="#BC01FD"/>
<path d="M157.71 48.8243C157.697 48.8243 157.686 48.8205 157.676 48.8129C157.666 48.805 157.662 48.7957 157.662 48.7849L157.661 48.2916C157.661 48.2816 157.666 48.2725 157.675 48.2644C157.684 48.2562 157.695 48.2522 157.707 48.2522C157.722 48.2522 157.734 48.256 157.744 48.2636C157.754 48.271 157.758 48.2803 157.758 48.2916L157.759 48.7849C157.759 48.7957 157.754 48.805 157.744 48.8129C157.735 48.8205 157.724 48.8243 157.71 48.8243Z" fill="#BC01FD"/>
<path d="M157.874 48.2936C157.874 48.2825 157.879 48.2735 157.889 48.2664C157.899 48.259 157.911 48.2553 157.924 48.2553C157.939 48.2553 157.952 48.2603 157.962 48.2703L158.328 48.6745V48.2948C158.328 48.2842 158.333 48.2753 158.342 48.2679C158.352 48.2603 158.364 48.2565 158.377 48.2565C158.39 48.2565 158.401 48.2603 158.411 48.2679C158.421 48.2753 158.425 48.2842 158.425 48.2948L158.425 48.7892C158.425 48.8003 158.42 48.8095 158.41 48.8168C158.4 48.8239 158.388 48.8275 158.375 48.8275C158.36 48.8275 158.347 48.8222 158.337 48.8117L157.971 48.4079V48.7888C157.971 48.7993 157.966 48.8084 157.957 48.816C157.947 48.8234 157.936 48.8271 157.923 48.8271C157.909 48.8271 157.898 48.8234 157.888 48.816C157.879 48.8084 157.874 48.7993 157.874 48.7888V48.2936Z" fill="#BC01FD"/>
<path d="M158.529 48.2936C158.529 48.2825 158.533 48.2735 158.543 48.2664C158.553 48.259 158.565 48.2553 158.579 48.2553C158.594 48.2553 158.606 48.2603 158.616 48.2703L158.983 48.6745V48.2948C158.983 48.2842 158.987 48.2753 158.997 48.2679C159.006 48.2603 159.018 48.2565 159.031 48.2565C159.044 48.2565 159.056 48.2603 159.065 48.2679C159.075 48.2753 159.08 48.2842 159.08 48.2948L159.079 48.7892C159.079 48.8003 159.074 48.8095 159.064 48.8168C159.054 48.8239 159.043 48.8275 159.029 48.8275C159.014 48.8275 159.002 48.8222 158.992 48.8117L158.626 48.4079V48.7888C158.626 48.7993 158.621 48.8084 158.611 48.816C158.602 48.8234 158.59 48.8271 158.577 48.8271C158.564 48.8271 158.552 48.8234 158.543 48.816C158.533 48.8084 158.529 48.7993 158.529 48.7888V48.2936Z" fill="#BC01FD"/>
<path d="M159.511 48.2482C159.56 48.2482 159.606 48.2561 159.647 48.2719C159.689 48.2874 159.725 48.3088 159.756 48.3362C159.787 48.3632 159.81 48.3945 159.827 48.43C159.844 48.4652 159.853 48.5027 159.853 48.5424C159.853 48.5821 159.844 48.6194 159.827 48.6544C159.811 48.6891 159.787 48.7197 159.757 48.7462C159.726 48.7728 159.69 48.7936 159.649 48.8085C159.607 48.8235 159.561 48.831 159.511 48.831C159.46 48.831 159.414 48.8235 159.372 48.8085C159.33 48.7933 159.294 48.7724 159.264 48.7458C159.234 48.719 159.211 48.6881 159.195 48.6532C159.179 48.618 159.171 48.5802 159.171 48.54C159.171 48.5008 159.179 48.4638 159.196 48.4288C159.213 48.3939 159.237 48.3628 159.267 48.3358C159.298 48.3084 159.334 48.287 159.375 48.2715C159.417 48.256 159.462 48.2482 159.511 48.2482ZM159.513 48.3283C159.465 48.3283 159.422 48.3384 159.385 48.3586C159.349 48.3789 159.32 48.4057 159.299 48.4391C159.278 48.4722 159.268 48.5085 159.268 48.5479C159.268 48.5747 159.274 48.6003 159.287 48.6248C159.299 48.6492 159.317 48.6711 159.339 48.6902C159.362 48.7092 159.387 48.7242 159.416 48.7352C159.446 48.746 159.477 48.7514 159.511 48.7514C159.544 48.7514 159.575 48.7457 159.605 48.7344C159.635 48.7231 159.661 48.7079 159.684 48.6887C159.707 48.6695 159.724 48.6479 159.737 48.624C159.75 48.5998 159.757 48.5751 159.757 48.5499C159.757 48.5091 159.746 48.4721 159.724 48.4387C159.702 48.405 159.673 48.3782 159.636 48.3582C159.599 48.3383 159.558 48.3283 159.513 48.3283Z" fill="#BC01FD"/>
<path d="M159.919 48.292C159.919 48.2828 159.923 48.2744 159.933 48.2668C159.943 48.2591 159.953 48.2553 159.965 48.2553C159.988 48.2553 160.004 48.2632 160.012 48.279L160.247 48.7119L160.458 48.2746C160.466 48.2581 160.481 48.2498 160.505 48.2498C160.517 48.2498 160.528 48.2536 160.537 48.2612C160.547 48.2686 160.552 48.277 160.552 48.2865C160.552 48.2938 160.55 48.2999 160.548 48.3046L160.295 48.8267C160.291 48.8332 160.286 48.839 160.277 48.844C160.269 48.8493 160.26 48.8519 160.249 48.8519C160.229 48.8519 160.214 48.844 160.205 48.8283L159.923 48.3113C159.92 48.3066 159.919 48.3001 159.919 48.292Z" fill="#BC01FD"/>
<path d="M160.889 48.2703C160.893 48.2637 160.899 48.2582 160.907 48.2537C160.916 48.249 160.925 48.2466 160.934 48.2466C160.943 48.2466 160.951 48.249 160.96 48.2537C160.969 48.2582 160.975 48.2637 160.979 48.2703L161.246 48.7734C161.249 48.7787 161.25 48.7841 161.25 48.7896C161.25 48.8004 161.245 48.8097 161.235 48.8176C161.226 48.8252 161.215 48.829 161.201 48.829C161.192 48.829 161.184 48.8267 161.175 48.8219C161.166 48.8172 161.16 48.8116 161.156 48.805L161.073 48.6484L160.796 48.6453L160.711 48.8054C160.708 48.812 160.702 48.8176 160.694 48.8223C160.685 48.8273 160.676 48.8298 160.667 48.8298C160.654 48.8298 160.642 48.826 160.632 48.8184C160.623 48.8105 160.618 48.8012 160.618 48.7904C160.618 48.7849 160.62 48.7795 160.623 48.7742L160.889 48.2703ZM160.934 48.3858L160.838 48.5668L161.031 48.5688L160.934 48.3858Z" fill="#BC01FD"/>
<path d="M161.316 48.2955C161.316 48.2848 161.321 48.2756 161.33 48.2679C161.34 48.2601 161.351 48.2561 161.364 48.2561L161.85 48.2537H161.851C161.864 48.2537 161.876 48.2577 161.885 48.2656C161.895 48.2732 161.9 48.2824 161.9 48.2932C161.9 48.304 161.895 48.3133 161.885 48.3212C161.876 48.3288 161.864 48.3326 161.851 48.3326L161.657 48.3334L161.655 48.7861C161.655 48.7966 161.65 48.806 161.64 48.8137C161.631 48.8213 161.619 48.8251 161.606 48.8251C161.593 48.8251 161.581 48.8213 161.572 48.8137C161.562 48.806 161.558 48.797 161.558 48.7865L161.56 48.3338L161.365 48.335C161.352 48.335 161.34 48.3312 161.33 48.3235C161.321 48.3157 161.316 48.3063 161.316 48.2955Z" fill="#BC01FD"/>
<path d="M162.039 48.8243C162.026 48.8243 162.014 48.8205 162.005 48.8129C161.995 48.805 161.991 48.7957 161.991 48.7849L161.99 48.2916C161.99 48.2816 161.995 48.2725 162.004 48.2644C162.013 48.2562 162.024 48.2522 162.036 48.2522C162.051 48.2522 162.063 48.256 162.073 48.2636C162.082 48.271 162.087 48.2803 162.087 48.2916L162.088 48.7849C162.088 48.7957 162.083 48.805 162.073 48.8129C162.064 48.8205 162.052 48.8243 162.039 48.8243Z" fill="#BC01FD"/>
<path d="M162.531 48.2482C162.58 48.2482 162.626 48.2561 162.667 48.2719C162.709 48.2874 162.745 48.3088 162.776 48.3362C162.807 48.3632 162.831 48.3945 162.847 48.43C162.864 48.4652 162.873 48.5027 162.873 48.5424C162.873 48.5821 162.864 48.6194 162.847 48.6544C162.831 48.6891 162.807 48.7197 162.777 48.7462C162.747 48.7728 162.71 48.7936 162.669 48.8085C162.627 48.8235 162.581 48.831 162.531 48.831C162.48 48.831 162.434 48.8235 162.392 48.8085C162.35 48.7933 162.314 48.7724 162.284 48.7458C162.254 48.719 162.231 48.6881 162.215 48.6532C162.199 48.618 162.191 48.5802 162.191 48.54C162.191 48.5008 162.199 48.4638 162.216 48.4288C162.233 48.3939 162.257 48.3628 162.287 48.3358C162.318 48.3084 162.354 48.287 162.395 48.2715C162.437 48.256 162.482 48.2482 162.531 48.2482ZM162.533 48.3283C162.485 48.3283 162.442 48.3384 162.405 48.3586C162.369 48.3789 162.34 48.4057 162.319 48.4391C162.298 48.4722 162.288 48.5085 162.288 48.5479C162.288 48.5747 162.294 48.6003 162.307 48.6248C162.32 48.6492 162.337 48.6711 162.359 48.6902C162.382 48.7092 162.407 48.7242 162.437 48.7352C162.466 48.746 162.497 48.7514 162.531 48.7514C162.564 48.7514 162.595 48.7457 162.625 48.7344C162.655 48.7231 162.681 48.7079 162.704 48.6887C162.727 48.6695 162.745 48.6479 162.758 48.624C162.77 48.5998 162.777 48.5751 162.777 48.5499C162.777 48.5091 162.766 48.4721 162.744 48.4387C162.722 48.405 162.693 48.3782 162.656 48.3582C162.619 48.3383 162.578 48.3283 162.533 48.3283Z" fill="#BC01FD"/>
<path d="M162.963 48.2936C162.963 48.2825 162.968 48.2735 162.978 48.2664C162.988 48.259 163 48.2553 163.013 48.2553C163.028 48.2553 163.041 48.2603 163.051 48.2703L163.417 48.6745V48.2948C163.417 48.2842 163.422 48.2753 163.431 48.2679C163.441 48.2603 163.452 48.2565 163.466 48.2565C163.479 48.2565 163.49 48.2603 163.5 48.2679C163.509 48.2753 163.514 48.2842 163.514 48.2948L163.514 48.7892C163.514 48.8003 163.509 48.8095 163.499 48.8168C163.489 48.8239 163.477 48.8275 163.464 48.8275C163.449 48.8275 163.436 48.8222 163.426 48.8117L163.06 48.4079V48.7888C163.06 48.7993 163.055 48.8084 163.046 48.816C163.036 48.8234 163.025 48.8271 163.012 48.8271C162.998 48.8271 162.987 48.8234 162.977 48.816C162.968 48.8084 162.963 48.7993 162.963 48.7888V48.2936Z" fill="#BC01FD"/>
<path d="M145.276 48.1535H141.298C141.241 48.1535 141.194 48.1062 141.194 48.0479C141.194 47.9897 141.241 47.9424 141.298 47.9424H145.097L143.052 44.3266L142.98 44.4483C142.951 44.4988 142.888 44.5162 142.839 44.4872C142.789 44.4581 142.772 44.3936 142.801 44.343L142.962 44.0627C142.981 44.03 143.015 44.0098 143.052 44.0098C143.089 44.0098 143.123 44.0299 143.141 44.0625L145.366 47.9952C145.384 48.0278 145.384 48.0681 145.366 48.1007C145.347 48.1334 145.313 48.1535 145.276 48.1535Z" fill="#BC01FD"/>
<path d="M140.361 48.1535H140.042C140.005 48.1535 139.971 48.1334 139.953 48.1007C139.934 48.0681 139.934 48.0278 139.953 47.9952L142.177 44.0625C142.196 44.0299 142.23 44.0098 142.267 44.0098C142.304 44.0098 142.338 44.0299 142.356 44.0625L144.34 47.5699C144.382 47.6497 144.361 47.6925 144.312 47.7216C144.273 47.7443 144.209 47.7478 144.152 47.6563L142.267 44.3264L140.221 47.9424H140.361C140.418 47.9424 140.465 47.9897 140.465 48.0479C140.465 48.1062 140.418 48.1535 140.361 48.1535Z" fill="#BC01FD"/>
<path d="M144.883 48.8518H140.435C140.398 48.8518 140.364 48.8317 140.346 48.7991C140.327 48.7664 140.327 48.7262 140.346 48.6935L142.334 45.1785C142.362 45.1281 142.425 45.1108 142.475 45.1399C142.524 45.169 142.541 45.2336 142.513 45.2841L140.614 48.6407H144.705L144.645 48.5196C144.616 48.4691 144.633 48.4045 144.683 48.3755C144.732 48.3464 144.795 48.3638 144.824 48.4143L144.973 48.6937C144.991 48.7264 144.991 48.7666 144.973 48.7992C144.955 48.8319 144.92 48.8518 144.883 48.8518Z" fill="#BC01FD"/>
</svg>
