<svg width="170" height="51" viewBox="0 0 170 51" fill="none" xmlns="http://www.w3.org/2000/svg">
<path fill-rule="evenodd" clip-rule="evenodd" d="M39.1318 19.9622C39.8149 19.7422 40.1957 18.9931 39.9822 18.2891C39.7687 17.5851 39.0418 17.1927 38.3587 17.4127L31.4471 19.6386L30.9865 19.7869L30.7323 20.2094L21.3645 35.7763C22.2255 36.031 22.9763 36.5542 23.5261 37.2523L32.6807 22.0397L39.1318 19.9622ZM16.0522 38.707C16.3226 37.8293 16.8499 37.0696 17.5431 36.5215L7.359 29.4511C6.76541 29.039 5.96004 29.2008 5.56014 29.8125C5.16025 30.4242 5.31728 31.2542 5.91086 31.6663L16.0522 38.707Z" fill="black"/>
<path fill-rule="evenodd" clip-rule="evenodd" d="M20.0198 40.9308C20.7569 40.9308 21.3545 40.2337 21.3545 39.3737C21.3545 38.5137 20.7569 37.8165 20.0198 37.8165C19.2826 37.8165 18.6851 38.5137 18.6851 39.3737C18.6851 40.2337 19.2826 40.9308 20.0198 40.9308ZM20.0198 44.0452C22.2312 44.0452 24.0239 41.9537 24.0239 39.3737C24.0239 36.7937 22.2312 34.7021 20.0198 34.7021C17.8083 34.7021 16.0156 36.7937 16.0156 39.3737C16.0156 41.9537 17.8083 44.0452 20.0198 44.0452Z" fill="black"/>
<path d="M13.2453 0.537393C13.391 0.235268 13.7628 0.120691 14.0532 0.288395L33.2092 11.3481C33.4986 11.5152 33.5859 11.8925 33.3992 12.1697L18.8679 33.7493C18.6986 34.0007 18.3636 34.0782 18.1011 33.9267L2.17321 24.7307C1.91174 24.5797 1.81094 24.2527 1.94207 23.9807L13.2453 0.537393Z" fill="#67BE55"/>
<path d="M15.2243 21.789C15.1131 21.9234 14.8089 21.8205 14.3117 21.4804C13.8212 21.1449 13.6317 20.8951 13.7432 20.7308C13.8546 20.5666 14.0268 20.2836 14.2596 19.8817C15.065 18.5188 15.6714 17.4858 16.0789 16.7826L19.4419 11.0121C20.1333 9.83174 20.5766 9.09788 20.7716 8.81048C20.911 8.60519 21.6466 8.77775 22.9787 9.32816C23.475 9.5374 23.8458 9.72589 24.091 9.89363C24.3363 10.0614 24.4357 10.1794 24.3892 10.2479C24.3474 10.3095 24.2061 10.4883 23.9652 10.7845L16.1105 20.6818C15.7398 21.1397 15.4445 21.5087 15.2243 21.789ZM10.1316 24.0018C10.466 23.5091 10.9025 23.2115 11.4409 23.1088C11.9908 23.004 12.5042 23.1147 12.981 23.4409C13.7576 23.972 14.0601 24.6799 13.8886 25.5646C13.8331 25.8373 13.7218 26.0968 13.5546 26.3431C13.2295 26.8221 12.7897 27.1174 12.2351 27.2291C11.6899 27.3271 11.1652 27.2036 10.6611 26.8589C10.1843 26.5327 9.89153 26.097 9.78284 25.5517C9.68562 25.0043 9.80188 24.4876 10.1316 24.0018Z" fill="black"/>
<path d="M163.374 42.2095C162.156 42.2095 161.036 41.9265 160.015 41.3605C159.006 40.7945 158.2 40.0071 157.597 38.9981C157.006 37.9769 156.711 36.8326 156.711 35.5653C156.711 34.2979 157.006 33.1598 157.597 32.1508C158.2 31.1419 159.006 30.3544 160.015 29.7884C161.036 29.2224 162.156 28.9395 163.374 28.9395C164.592 28.9395 165.705 29.2224 166.714 29.7884C167.735 30.3544 168.535 31.1419 169.114 32.1508C169.704 33.1598 169.999 34.2979 169.999 35.5653C169.999 36.8326 169.704 37.9769 169.114 38.9981C168.523 40.0071 167.723 40.7945 166.714 41.3605C165.705 41.9265 164.592 42.2095 163.374 42.2095ZM163.374 39.3303C164.407 39.3303 165.232 38.9858 165.847 38.2968C166.474 37.6077 166.788 36.6972 166.788 35.5653C166.788 34.421 166.474 33.5105 165.847 32.8337C165.232 32.1447 164.407 31.8002 163.374 31.8002C162.328 31.8002 161.491 32.1385 160.864 32.8153C160.248 33.492 159.941 34.4087 159.941 35.5653C159.941 36.7095 160.248 37.6262 160.864 38.3152C161.491 38.992 162.328 39.3303 163.374 39.3303Z" fill="black"/>
<path d="M156.216 29.124V31.6525H152.783V42.0803H149.627V31.6525H146.194V29.124H156.216Z" fill="black"/>
<path d="M145.161 42.0803H142.005L136.726 34.0888V42.0803H133.57V29.124H136.726L142.005 37.1525V29.124H145.161V42.0803Z" fill="black"/>
<path d="M125.743 42.2095C124.525 42.2095 123.405 41.9265 122.384 41.3605C121.375 40.7945 120.569 40.0071 119.966 38.9981C119.375 37.9769 119.08 36.8326 119.08 35.5653C119.08 34.2979 119.375 33.1598 119.966 32.1508C120.569 31.1419 121.375 30.3544 122.384 29.7884C123.405 29.2224 124.525 28.9395 125.743 28.9395C126.961 28.9395 128.074 29.2224 129.083 29.7884C130.105 30.3544 130.904 31.1419 131.483 32.1508C132.073 33.1598 132.369 34.2979 132.369 35.5653C132.369 36.8326 132.073 37.9769 131.483 38.9981C130.892 40.0071 130.092 40.7945 129.083 41.3605C128.074 41.9265 126.961 42.2095 125.743 42.2095ZM125.743 39.3303C126.776 39.3303 127.601 38.9858 128.216 38.2968C128.843 37.6077 129.157 36.6972 129.157 35.5653C129.157 34.421 128.843 33.5105 128.216 32.8337C127.601 32.1447 126.776 31.8002 125.743 31.8002C124.697 31.8002 123.86 32.1385 123.233 32.8153C122.618 33.492 122.31 34.4087 122.31 35.5653C122.31 36.7095 122.618 37.6262 123.233 38.3152C123.86 38.992 124.697 39.3303 125.743 39.3303Z" fill="black"/>
<path d="M114.737 42.0803L112.043 37.1894H111.286V42.0803H108.13V29.124H113.427C114.448 29.124 115.316 29.3024 116.029 29.6593C116.755 30.0161 117.297 30.5082 117.653 31.1358C118.01 31.751 118.189 32.44 118.189 33.2029C118.189 34.0642 117.942 34.8332 117.45 35.5099C116.97 36.1866 116.257 36.6665 115.309 36.9495L118.299 42.0803H114.737ZM111.286 34.9562H113.242C113.821 34.9562 114.251 34.8147 114.534 34.5317C114.83 34.2487 114.977 33.8488 114.977 33.3321C114.977 32.8399 114.83 32.4523 114.534 32.1693C114.251 31.8863 113.821 31.7448 113.242 31.7448H111.286V34.9562Z" fill="black"/>
<path d="M107.04 33.2951C107.04 34.0457 106.868 34.7347 106.523 35.3622C106.179 35.9775 105.65 36.4758 104.936 36.8572C104.222 37.2386 103.337 37.4293 102.278 37.4293H100.322V42.0803H97.166V29.124H102.278C103.312 29.124 104.186 29.3024 104.899 29.6593C105.613 30.0161 106.148 30.5082 106.505 31.1358C106.862 31.7633 107.04 32.4831 107.04 33.2951ZM102.038 34.9193C102.641 34.9193 103.09 34.7778 103.386 34.4948C103.681 34.2118 103.829 33.8119 103.829 33.2951C103.829 32.7784 103.681 32.3785 103.386 32.0955C103.09 31.8125 102.641 31.671 102.038 31.671H100.322V34.9193H102.038Z" fill="black"/>
<path d="M85.9811 42.2095C84.763 42.2095 83.6433 41.9265 82.622 41.3605C81.6131 40.7945 80.8072 40.0071 80.2043 38.9981C79.6137 37.9769 79.3184 36.8326 79.3184 35.5653C79.3184 34.2979 79.6137 33.1598 80.2043 32.1508C80.8072 31.1419 81.6131 30.3544 82.622 29.7884C83.6433 29.2224 84.763 28.9395 85.9811 28.9395C87.1992 28.9395 88.3127 29.2224 89.3217 29.7884C90.3429 30.3544 91.1427 31.1419 91.721 32.1508C92.3116 33.1598 92.6069 34.2979 92.6069 35.5653C92.6069 36.8326 92.3116 37.9769 91.721 38.9981C91.1304 40.0071 90.3306 40.7945 89.3217 41.3605C88.3127 41.9265 87.1992 42.2095 85.9811 42.2095ZM85.9811 39.3303C87.0146 39.3303 87.839 38.9858 88.4542 38.2968C89.0817 37.6077 89.3955 36.6972 89.3955 35.5653C89.3955 34.421 89.0817 33.5105 88.4542 32.8337C87.839 32.1447 87.0146 31.8002 85.9811 31.8002C84.9352 31.8002 84.0985 32.1385 83.471 32.8153C82.8558 33.492 82.5482 34.4087 82.5482 35.5653C82.5482 36.7095 82.8558 37.6262 83.471 38.3152C84.0985 38.992 84.9352 39.3303 85.9811 39.3303Z" fill="black"/>
<path d="M74.8646 39.7919H70.029L69.2539 42.0805H65.9502L70.6381 29.1242H74.2924L78.9803 42.0805H75.6397L74.8646 39.7919ZM74.0525 37.3557L72.4468 32.6124L70.8596 37.3557H74.0525ZM68.774 28.2198C69.0693 26.3988 69.9183 25.4883 71.321 25.4883C71.5917 25.4883 71.8254 25.5313 72.0223 25.6175C72.2315 25.6913 72.4837 25.8082 72.779 25.9681C73.0005 26.0912 73.1789 26.1835 73.3142 26.245C73.4496 26.2942 73.5911 26.3188 73.7387 26.3188C74.194 26.3188 74.4585 26.042 74.5324 25.4883H76.1565C75.8612 27.3093 75.0122 28.2198 73.6096 28.2198C73.3389 28.2198 73.0989 28.1829 72.8898 28.1091C72.6929 28.0229 72.4468 27.8999 72.1515 27.7399C71.93 27.6169 71.7516 27.5308 71.6163 27.4816C71.4809 27.42 71.3394 27.3893 71.1918 27.3893C70.7365 27.3893 70.4658 27.6661 70.3797 28.2198H68.774Z" fill="black"/>
<path d="M65.7688 29.124V31.6525H62.336V42.0803H59.1799V31.6525H55.7471V29.124H65.7688Z" fill="black"/>
<path d="M54.7136 42.0803H51.5576L46.2791 34.0888V42.0803H43.123V29.124H46.2791L51.5576 37.1525V29.124H54.7136V42.0803Z" fill="black"/>
<path d="M36.8484 31.6525V34.2733H41.0749V36.7096H36.8484V39.5518H41.6286V42.0803H33.6924V29.124H41.6286V31.6525H36.8484Z" fill="black"/>
<path d="M110.938 20.0117H112.675V20.4062H110.453V15.5684H110.938V20.0117Z" fill="black"/>
<path d="M108.187 19.2565H105.986L105.564 20.4054H105.052L106.817 15.6299H107.363L109.121 20.4054H108.609L108.187 19.2565ZM108.042 18.8551L107.087 16.2389L106.131 18.8551H108.042Z" fill="black"/>
<path d="M100.719 15.5684V18.6136C100.719 19.0935 100.832 19.4488 101.058 19.6795C101.289 19.9102 101.602 20.0255 101.999 20.0255C102.396 20.0255 102.705 19.9125 102.927 19.6864C103.153 19.4557 103.266 19.0981 103.266 18.6136V15.5684H103.75V18.6067C103.75 19.2204 103.586 19.6818 103.259 19.9909C102.936 20.3001 102.514 20.4547 101.992 20.4547C101.471 20.4547 101.046 20.3001 100.719 19.9909C100.396 19.6818 100.234 19.2204 100.234 18.6067V15.5684H100.719Z" fill="black"/>
<path d="M98.9356 15.5684V15.9698H97.5929V20.4062H97.1084V15.9698H95.7588V15.5684H98.9356Z" fill="black"/>
<path d="M94.0639 20.4062L92.8666 18.3852H91.9737V20.4062H91.4893V15.5684H92.9427C93.4825 15.5684 93.8909 15.6976 94.1677 15.9559C94.4492 16.2143 94.5899 16.5535 94.5899 16.9733C94.5899 17.324 94.4884 17.6239 94.2854 17.8731C94.087 18.1176 93.7917 18.2768 93.3995 18.3506L94.6453 20.4062H94.0639ZM91.9737 17.9907H92.9496C93.328 17.9907 93.6117 17.8985 93.8009 17.7139C93.9947 17.5293 94.0916 17.2825 94.0916 16.9733C94.0916 16.655 93.9993 16.4104 93.8147 16.2397C93.6302 16.0644 93.3395 15.9767 92.9427 15.9767H91.9737V17.9907Z" fill="black"/>
<path d="M89.839 15.5684V20.4062H89.3545V15.5684H89.839Z" fill="black"/>
<path d="M88.0725 15.5684L86.2384 20.4062H85.6847L83.8506 15.5684H84.3766L85.9615 19.8802L87.5603 15.5684H88.0725Z" fill="black"/>
<path d="M79.6248 16.98C79.4863 16.6616 79.2741 16.4124 78.988 16.2325C78.7066 16.0479 78.3743 15.9556 77.9914 15.9556C77.6315 15.9556 77.3085 16.0387 77.0224 16.2048C76.7364 16.3709 76.5103 16.6085 76.3442 16.9177C76.1781 17.2222 76.095 17.5775 76.095 17.9835C76.095 18.3896 76.1781 18.7472 76.3442 19.0563C76.5103 19.3654 76.7364 19.6031 77.0224 19.7692C77.3085 19.9353 77.6315 20.0183 77.9914 20.0183C78.3282 20.0183 78.6304 19.9468 78.898 19.8038C79.1703 19.6561 79.3871 19.4485 79.5486 19.1809C79.7147 18.9086 79.8093 18.5926 79.8324 18.2327H77.7976V17.8382H80.3446V18.1912C80.3215 18.6157 80.2061 19.0009 79.9985 19.347C79.7909 19.6884 79.5117 19.9583 79.161 20.1568C78.815 20.3552 78.4251 20.4544 77.9914 20.4544C77.5438 20.4544 77.1378 20.3505 76.7733 20.1429C76.4088 19.9307 76.1204 19.6377 75.9081 19.2639C75.7005 18.8856 75.5967 18.4588 75.5967 17.9835C75.5967 17.5083 75.7005 17.0838 75.9081 16.71C76.1204 16.3317 76.4088 16.0387 76.7733 15.8311C77.1378 15.6188 77.5438 15.5127 77.9914 15.5127C78.5082 15.5127 78.9603 15.6419 79.3479 15.9003C79.7355 16.1587 80.017 16.5186 80.1923 16.98H79.6248Z" fill="black"/>
<path d="M74.167 20.4062H73.6825L71.004 16.3366V20.4062H70.5195V15.5684H71.004L73.6825 19.631V15.5684H74.167V20.4062Z" fill="black"/>
<path d="M68.8683 15.5684V20.4062H68.3838V15.5684H68.8683Z" fill="black"/>
<path d="M67.0176 16.9595C67.0176 17.3748 66.8814 17.7093 66.6092 17.9631C66.337 18.2168 65.9286 18.3437 65.3842 18.3437H64.4083V20.4062H63.9238V15.5684H65.3842C65.924 15.5684 66.3301 15.6952 66.6023 15.949C66.8791 16.2028 67.0176 16.5396 67.0176 16.9595ZM65.3842 17.9285C66.1409 17.9285 66.5192 17.6055 66.5192 16.9595C66.5192 16.6365 66.4293 16.392 66.2493 16.2259C66.0694 16.0598 65.781 15.9767 65.3842 15.9767H64.4083V17.9285H65.3842Z" fill="black"/>
<path d="M62.5576 16.9595C62.5576 17.3748 62.4215 17.7093 62.1493 17.9631C61.877 18.2168 61.4687 18.3437 60.9242 18.3437H59.9483V20.4062H59.4639V15.5684H60.9242C61.4641 15.5684 61.8701 15.6952 62.1423 15.949C62.4192 16.2028 62.5576 16.5396 62.5576 16.9595ZM60.9242 17.9285C61.6809 17.9285 62.0593 17.6055 62.0593 16.9595C62.0593 16.6365 61.9693 16.392 61.7894 16.2259C61.6094 16.0598 61.321 15.9767 60.9242 15.9767H59.9483V17.9285H60.9242Z" fill="black"/>
<path d="M55.6281 20.4544C55.1805 20.4544 54.7745 20.3505 54.41 20.1429C54.0455 19.9307 53.7571 19.6377 53.5448 19.2639C53.3372 18.8856 53.2334 18.4588 53.2334 17.9835C53.2334 17.5083 53.3372 17.0838 53.5448 16.71C53.7571 16.3317 54.0455 16.0387 54.41 15.8311C54.7745 15.6188 55.1805 15.5127 55.6281 15.5127C56.0803 15.5127 56.4886 15.6188 56.8531 15.8311C57.2176 16.0387 57.5037 16.3317 57.7114 16.71C57.919 17.0838 58.0228 17.5083 58.0228 17.9835C58.0228 18.4588 57.919 18.8856 57.7114 19.2639C57.5037 19.6377 57.2176 19.9307 56.8531 20.1429C56.4886 20.3505 56.0803 20.4544 55.6281 20.4544ZM55.6281 20.0322C55.988 20.0322 56.311 19.9491 56.5971 19.783C56.8831 19.6169 57.1092 19.3793 57.2753 19.0701C57.4414 18.7564 57.5245 18.3942 57.5245 17.9835C57.5245 17.5729 57.4414 17.213 57.2753 16.9038C57.1092 16.5947 56.8831 16.3571 56.5971 16.191C56.311 16.0249 55.988 15.9418 55.6281 15.9418C55.2682 15.9418 54.9452 16.0249 54.6591 16.191C54.3731 16.3571 54.147 16.5947 53.9809 16.9038C53.8148 17.213 53.7317 17.5729 53.7317 17.9835C53.7317 18.3942 53.8148 18.7564 53.9809 19.0701C54.147 19.3793 54.3731 19.6169 54.6591 19.783C54.9452 19.9491 55.2682 20.0322 55.6281 20.0322Z" fill="black"/>
<path d="M51.7962 15.5684V20.4062H51.3117V18.143H48.6886V20.4062H48.2041V15.5684H48.6886V17.7416H51.3117V15.5684H51.7962Z" fill="black"/>
<path d="M45.1568 20.4544C44.8384 20.4544 44.557 20.399 44.3124 20.2883C44.0725 20.1775 43.8833 20.0229 43.7449 19.8245C43.6065 19.6261 43.5327 19.4047 43.5234 19.1601H44.0356C44.0587 19.3954 44.1625 19.6031 44.347 19.783C44.5316 19.9584 44.8015 20.046 45.1568 20.046C45.4844 20.046 45.7428 19.963 45.932 19.7969C46.1258 19.6261 46.2227 19.4116 46.2227 19.1532C46.2227 18.9456 46.1696 18.7795 46.0635 18.6549C45.9574 18.5257 45.8259 18.4311 45.669 18.3711C45.5121 18.3065 45.2952 18.2373 45.0184 18.1635C44.6954 18.0758 44.4393 17.9904 44.2502 17.9074C44.061 17.8243 43.8995 17.6951 43.7657 17.5198C43.6319 17.3445 43.565 17.1069 43.565 16.8069C43.565 16.5578 43.6296 16.3363 43.7588 16.1425C43.8879 15.9441 44.0702 15.7895 44.3055 15.6788C44.5408 15.5681 44.8108 15.5127 45.1153 15.5127C45.5629 15.5127 45.9228 15.6234 46.195 15.8449C46.4718 16.0618 46.631 16.3432 46.6725 16.6893H46.1465C46.1142 16.4909 46.0058 16.3155 45.8212 16.1633C45.6367 16.0064 45.3875 15.928 45.0738 15.928C44.7831 15.928 44.5408 16.0064 44.347 16.1633C44.1533 16.3155 44.0564 16.5255 44.0564 16.7931C44.0564 16.9961 44.1094 17.1599 44.2155 17.2845C44.3217 17.4091 44.4532 17.5037 44.6101 17.5683C44.7715 17.6329 44.9884 17.7021 45.2606 17.7759C45.5744 17.8636 45.8282 17.9512 46.022 18.0389C46.2157 18.122 46.3795 18.2511 46.5134 18.4265C46.6472 18.6018 46.7141 18.8371 46.7141 19.1324C46.7141 19.3585 46.6541 19.5731 46.5341 19.7761C46.4142 19.9791 46.2365 20.1429 46.0012 20.2675C45.7659 20.3921 45.4844 20.4544 45.1568 20.4544Z" fill="black"/>
<path d="M100.31 47.0622C100.31 47.382 100.2 47.6484 99.9794 47.8615C99.7628 48.071 99.4307 48.1758 98.9829 48.1758H98.2451V49.7799H97.7441V45.9377H98.9829C99.416 45.9377 99.7445 46.0424 99.9684 46.2519C100.196 46.4614 100.31 46.7315 100.31 47.0622ZM98.9829 47.7623C99.2618 47.7623 99.4674 47.7017 99.5995 47.5804C99.7316 47.4591 99.7977 47.2864 99.7977 47.0622C99.7977 46.5882 99.5261 46.3511 98.9829 46.3511H98.2451V47.7623H98.9829Z" fill="#585858"/>
<path d="M103.476 48.9255H101.802L101.494 49.7799H100.965L102.353 45.9597H102.931L104.313 49.7799H103.784L103.476 48.9255ZM103.333 48.5175L102.639 46.5771L101.945 48.5175H103.333Z" fill="#585858"/>
<path d="M107.213 49.7799L106.299 48.2088H105.694V49.7799H105.193V45.9377H106.431C106.721 45.9377 106.965 45.9873 107.164 46.0865C107.366 46.1857 107.516 46.3199 107.615 46.4889C107.714 46.658 107.764 46.8509 107.764 47.0677C107.764 47.3323 107.687 47.5657 107.533 47.7678C107.382 47.97 107.154 48.1041 106.85 48.1702L107.813 49.7799H107.213ZM105.694 47.8064H106.431C106.703 47.8064 106.907 47.7403 107.043 47.608C107.178 47.472 107.246 47.2919 107.246 47.0677C107.246 46.8399 107.178 46.6635 107.043 46.5385C106.91 46.4136 106.707 46.3511 106.431 46.3511H105.694V47.8064Z" fill="#585858"/>
<path d="M108.63 47.856C108.63 47.4812 108.715 47.1449 108.884 46.8472C109.052 46.5459 109.282 46.3107 109.572 46.1416C109.865 45.9726 110.19 45.8881 110.546 45.8881C110.965 45.8881 111.33 45.9891 111.642 46.1912C111.954 46.3934 112.181 46.68 112.325 47.0512H111.724C111.618 46.8197 111.464 46.6414 111.262 46.5165C111.064 46.3915 110.825 46.3291 110.546 46.3291C110.278 46.3291 110.038 46.3915 109.825 46.5165C109.612 46.6414 109.445 46.8197 109.324 47.0512C109.203 47.2791 109.142 47.5473 109.142 47.856C109.142 48.1611 109.203 48.4293 109.324 48.6609C109.445 48.8887 109.612 49.0651 109.825 49.1901C110.038 49.315 110.278 49.3775 110.546 49.3775C110.825 49.3775 111.064 49.3169 111.262 49.1956C111.464 49.0706 111.618 48.8924 111.724 48.6609H112.325C112.181 49.0284 111.954 49.3132 111.642 49.5153C111.33 49.7138 110.965 49.813 110.546 49.813C110.19 49.813 109.865 49.7303 109.572 49.5649C109.282 49.3959 109.052 49.1625 108.884 48.8648C108.715 48.5672 108.63 48.2309 108.63 47.856Z" fill="#585858"/>
<path d="M113.847 46.3456V47.63H115.245V48.0435H113.847V49.3665H115.41V49.7799H113.346V45.9322H115.41V46.3456H113.847Z" fill="#585858"/>
<path d="M118.464 49.7799L117.55 48.2088H116.944V49.7799H116.443V45.9377H117.682C117.972 45.9377 118.216 45.9873 118.414 46.0865C118.616 46.1857 118.767 46.3199 118.866 46.4889C118.965 46.658 119.015 46.8509 119.015 47.0677C119.015 47.3323 118.937 47.5657 118.783 47.7678C118.633 47.97 118.405 48.1041 118.101 48.1702L119.064 49.7799H118.464ZM116.944 47.8064H117.682C117.954 47.8064 118.158 47.7403 118.293 47.608C118.429 47.472 118.497 47.2919 118.497 47.0677C118.497 46.8399 118.429 46.6635 118.293 46.5385C118.161 46.4136 117.958 46.3511 117.682 46.3511H116.944V47.8064Z" fill="#585858"/>
<path d="M120.569 45.9377V49.7799H120.068V45.9377H120.569Z" fill="#585858"/>
<path d="M123.967 48.9255H122.293L121.985 49.7799H121.456L122.844 45.9597H123.422L124.804 49.7799H124.275L123.967 48.9255ZM123.824 48.5175L123.13 46.5771L122.436 48.5175H123.824Z" fill="#585858"/>
<path d="M127.239 47.856C127.239 47.4812 127.324 47.1449 127.493 46.8472C127.661 46.5459 127.891 46.3107 128.181 46.1416C128.474 45.9726 128.799 45.8881 129.155 45.8881C129.574 45.8881 129.939 45.9891 130.251 46.1912C130.563 46.3934 130.79 46.68 130.934 47.0512H130.333C130.227 46.8197 130.073 46.6414 129.871 46.5165C129.673 46.3915 129.434 46.3291 129.155 46.3291C128.887 46.3291 128.647 46.3915 128.434 46.5165C128.221 46.6414 128.054 46.8197 127.933 47.0512C127.812 47.2791 127.751 47.5473 127.751 47.856C127.751 48.1611 127.812 48.4293 127.933 48.6609C128.054 48.8887 128.221 49.0651 128.434 49.1901C128.647 49.315 128.887 49.3775 129.155 49.3775C129.434 49.3775 129.673 49.3169 129.871 49.1956C130.073 49.0706 130.227 48.8924 130.333 48.6609H130.934C130.79 49.0284 130.563 49.3132 130.251 49.5153C129.939 49.7138 129.574 49.813 129.155 49.813C128.799 49.813 128.474 49.7303 128.181 49.5649C127.891 49.3959 127.661 49.1625 127.493 48.8648C127.324 48.5672 127.239 48.2309 127.239 47.856Z" fill="#585858"/>
<path d="M133.694 49.8185C133.338 49.8185 133.013 49.7358 132.72 49.5704C132.426 49.4014 132.193 49.168 132.021 48.8703C131.852 48.569 131.767 48.2309 131.767 47.856C131.767 47.4812 131.852 47.1449 132.021 46.8472C132.193 46.5459 132.426 46.3125 132.72 46.1471C133.013 45.9781 133.338 45.8936 133.694 45.8936C134.054 45.8936 134.381 45.9781 134.674 46.1471C134.968 46.3125 135.199 46.5441 135.368 46.8417C135.537 47.1394 135.621 47.4775 135.621 47.856C135.621 48.2346 135.537 48.5727 135.368 48.8703C135.199 49.168 134.968 49.4014 134.674 49.5704C134.381 49.7358 134.054 49.8185 133.694 49.8185ZM133.694 49.383C133.962 49.383 134.203 49.3205 134.416 49.1956C134.632 49.0706 134.801 48.8924 134.922 48.6609C135.047 48.4293 135.109 48.1611 135.109 47.856C135.109 47.5473 135.047 47.2791 134.922 47.0512C134.801 46.8197 134.634 46.6414 134.421 46.5165C134.208 46.3915 133.966 46.3291 133.694 46.3291C133.423 46.3291 133.18 46.3915 132.968 46.5165C132.755 46.6414 132.586 46.8197 132.461 47.0512C132.34 47.2791 132.279 47.5473 132.279 47.856C132.279 48.1611 132.34 48.4293 132.461 48.6609C132.586 48.8924 132.755 49.0706 132.968 49.1956C133.184 49.3205 133.426 49.383 133.694 49.383Z" fill="#585858"/>
<path d="M140.45 45.9652V49.7799H139.949V46.9354L138.683 49.7799H138.331L137.059 46.9299V49.7799H136.558V45.9652H137.097L138.507 49.1184L139.916 45.9652H140.45Z" fill="#585858"/>
<path d="M155.163 48.8863C155.163 49.0301 155.045 49.1472 154.903 49.1472C154.79 49.1472 154.692 49.0762 154.662 48.9823L154.447 48.4128H152.75L152.536 48.9823C152.499 49.0744 152.402 49.1472 152.294 49.1472C152.151 49.1472 152.034 49.0283 152.034 48.8863C152.034 48.8557 152.043 48.8192 152.055 48.7886L153.181 45.9622C153.242 45.7973 153.407 45.6746 153.597 45.6746C153.786 45.6746 153.951 45.7973 154.016 45.9622L155.142 48.7886C155.154 48.8154 155.163 48.8519 155.163 48.8863ZM154.279 47.9583L153.597 46.1481L152.921 47.9583H154.279Z" fill="#BC01FD"/>
<path d="M158.509 47.5997V48.384C158.509 48.5221 158.473 48.6255 158.371 48.7176C158.053 49.0052 157.64 49.1893 157.132 49.1893C156.154 49.1893 155.36 48.4817 155.36 47.4155C155.36 46.3493 156.155 45.6455 157.132 45.6455C157.643 45.6455 158.019 45.8258 158.306 46.1114C158.352 46.1517 158.377 46.213 158.377 46.2801C158.377 46.4144 158.27 46.516 158.136 46.516C158.074 46.516 158.013 46.491 157.967 46.4489C157.757 46.2379 157.466 46.0998 157.132 46.0998C156.42 46.0998 155.887 46.6444 155.887 47.4132C155.887 48.1821 156.42 48.7305 157.132 48.7305C157.512 48.7305 157.833 48.5463 157.998 48.3912V47.7757H157.102C156.979 47.7757 156.876 47.6741 156.876 47.5455C156.876 47.4169 156.977 47.325 157.102 47.325H158.239C158.412 47.3268 158.509 47.4253 158.509 47.5997Z" fill="#BC01FD"/>
<path d="M159.164 48.8922V45.9333C159.164 45.7952 159.283 45.6763 159.425 45.6763C159.567 45.6763 159.676 45.7952 159.676 45.9333V48.8922C159.676 49.0303 159.563 49.1492 159.425 49.1492C159.287 49.1492 159.164 49.0303 159.164 48.8922Z" fill="#BC01FD"/>
<path d="M160.44 48.8518V45.9333C160.44 45.7952 160.558 45.6763 160.7 45.6763C160.842 45.6763 160.951 45.7952 160.951 45.9333V48.6715H162.298C162.42 48.6715 162.528 48.7693 162.528 48.892C162.528 49.0147 162.421 49.1222 162.298 49.1222H160.718C160.538 49.124 160.44 49.0262 160.44 48.8518Z" fill="#BC01FD"/>
<path d="M163.069 48.8922V45.9333C163.069 45.7952 163.188 45.6763 163.33 45.6763C163.472 45.6763 163.581 45.7952 163.581 45.9333V48.8922C163.581 49.0303 163.468 49.1492 163.33 49.1492C163.192 49.1492 163.069 49.0303 163.069 48.8922Z" fill="#BC01FD"/>
<path d="M165.18 48.8922V46.154H164.318C164.195 46.154 164.092 46.0563 164.092 45.9336C164.092 45.8109 164.193 45.7034 164.318 45.7034H166.547C166.67 45.7034 166.777 45.805 166.777 45.9336C166.777 46.0622 166.67 46.154 166.547 46.154H165.691V48.8922C165.691 49.0304 165.572 49.1492 165.434 49.1492C165.296 49.1492 165.18 49.0304 165.18 48.8922Z" fill="#BC01FD"/>
<path d="M169.872 46.056L168.777 47.6917V48.8922C168.777 49.0303 168.664 49.1492 168.52 49.1492C168.376 49.1492 168.263 49.0303 168.263 48.8922V47.6917L167.162 46.0599C167.137 46.0233 167.122 45.9737 167.122 45.9217C167.122 45.7836 167.235 45.6763 167.367 45.6763C167.453 45.6763 167.532 45.7167 167.578 45.7895L168.52 47.2354L169.456 45.7895C169.502 45.7224 169.579 45.6763 169.667 45.6763C169.801 45.6763 169.912 45.7836 169.912 45.9217C169.912 45.9734 169.897 46.0195 169.872 46.056Z" fill="#BC01FD"/>
<path d="M152.655 50.4177C152.667 50.4177 152.678 50.4216 152.688 50.4295C152.698 50.4371 152.703 50.4457 152.703 50.4553C152.703 50.4629 152.701 50.4695 152.698 50.4749C152.681 50.5049 152.657 50.5328 152.626 50.5587C152.596 50.5844 152.559 50.605 152.517 50.6205C152.475 50.636 152.427 50.6438 152.375 50.6438C152.323 50.6438 152.276 50.6358 152.234 50.6197C152.192 50.6036 152.156 50.5816 152.126 50.5538C152.096 50.5258 152.074 50.4936 152.058 50.4573C152.042 50.4208 152.034 50.3822 152.034 50.3416C152.034 50.3015 152.042 50.2633 152.058 50.2271C152.074 50.1908 152.097 50.1588 152.127 50.131C152.157 50.1029 152.193 50.0808 152.234 50.0647C152.276 50.0486 152.322 50.0406 152.373 50.0406C152.425 50.0406 152.472 50.0481 152.513 50.0631C152.556 50.0778 152.592 50.0976 152.623 50.1224C152.654 50.1469 152.679 50.1739 152.696 50.2034C152.7 50.2091 152.702 50.2151 152.702 50.2214C152.702 50.2314 152.697 50.2407 152.688 50.2492C152.679 50.2573 152.669 50.2614 152.657 50.2614C152.646 50.2614 152.636 50.2595 152.626 50.2557C152.617 50.2516 152.61 50.2456 152.606 50.2377C152.587 50.2061 152.557 50.179 152.517 50.1563C152.477 50.1337 152.429 50.1224 152.373 50.1224C152.324 50.1224 152.282 50.1325 152.246 50.1526C152.211 50.1728 152.183 50.1997 152.164 50.2332C152.144 50.2665 152.135 50.3029 152.135 50.3424C152.135 50.3822 152.144 50.4187 152.163 50.452C152.183 50.4853 152.21 50.5119 152.246 50.5318C152.282 50.5517 152.324 50.5616 152.374 50.5616C152.41 50.5616 152.444 50.5562 152.475 50.5453C152.506 50.5341 152.532 50.5193 152.555 50.5011C152.577 50.4828 152.594 50.4632 152.606 50.4422C152.615 50.4258 152.631 50.4177 152.655 50.4177Z" fill="#BC01FD"/>
<path d="M153.316 50.6054C153.316 50.616 153.311 50.6253 153.301 50.6332C153.292 50.6408 153.282 50.6446 153.271 50.6446C153.261 50.6446 153.253 50.6419 153.246 50.6364C153.239 50.6313 153.234 50.6273 153.231 50.6246C153.201 50.6071 153.174 50.5874 153.152 50.5653C153.13 50.5429 153.111 50.5187 153.095 50.4925C153.081 50.469 153.067 50.4508 153.053 50.4377C153.039 50.4246 153.022 50.4153 153.001 50.4099C152.981 50.4044 152.955 50.4016 152.923 50.4013L152.877 50.4009L152.878 50.5988C152.878 50.6097 152.873 50.6201 152.862 50.6283C152.853 50.6364 152.841 50.6405 152.827 50.6405C152.814 50.6405 152.802 50.6362 152.792 50.6275C152.782 50.6187 152.777 50.6084 152.777 50.5964L152.775 50.0889C152.775 50.0774 152.78 50.0679 152.79 50.0602C152.8 50.0523 152.812 50.0482 152.825 50.048L152.959 50.0475H152.971C153.028 50.0475 153.08 50.0545 153.125 50.0684C153.17 50.082 153.206 50.1026 153.232 50.1302C153.259 50.1574 153.272 50.1914 153.272 50.232C153.272 50.2582 153.265 50.2815 153.251 50.3019C153.238 50.3224 153.221 50.3397 153.2 50.3539C153.178 50.368 153.155 50.3791 153.13 50.387C153.142 50.3987 153.153 50.4132 153.164 50.4303C153.184 50.4606 153.203 50.4875 153.221 50.5109C153.24 50.5341 153.264 50.5545 153.294 50.5722C153.3 50.5755 153.305 50.5801 153.309 50.5861C153.314 50.5919 153.316 50.5983 153.316 50.6054ZM152.973 50.1293H152.876L152.877 50.3248L152.974 50.324C153.036 50.3235 153.084 50.3158 153.119 50.3011C153.154 50.2864 153.172 50.2628 153.172 50.2304C153.172 50.1971 153.153 50.172 153.116 50.1551C153.079 50.1379 153.031 50.1293 152.973 50.1293Z" fill="#BC01FD"/>
<path d="M153.392 50.0884C153.392 50.0775 153.396 50.0683 153.406 50.0606C153.416 50.0527 153.428 50.0488 153.442 50.0488L153.874 50.0492C153.887 50.0492 153.899 50.0533 153.909 50.0615C153.919 50.0694 153.924 50.0789 153.924 50.0901C153.924 50.1013 153.919 50.1109 153.909 50.1191C153.899 50.127 153.887 50.131 153.874 50.131L153.492 50.1306L153.493 50.2982L153.832 50.3003C153.846 50.3003 153.858 50.3044 153.868 50.3126C153.877 50.3207 153.882 50.3312 153.882 50.344C153.882 50.3549 153.877 50.3642 153.867 50.3719C153.856 50.3792 153.845 50.3829 153.832 50.3829L153.493 50.3808L153.494 50.5538L153.873 50.5534C153.887 50.5534 153.899 50.5575 153.909 50.5657C153.919 50.5736 153.924 50.5831 153.924 50.5943C153.924 50.6055 153.919 50.6152 153.909 50.6234C153.899 50.6313 153.887 50.6352 153.874 50.6352L153.443 50.6356C153.43 50.6356 153.418 50.6317 153.408 50.6238C153.398 50.6156 153.393 50.606 153.393 50.5951L153.392 50.0884Z" fill="#BC01FD"/>
<path d="M154.266 50.0643C154.27 50.0575 154.276 50.0518 154.285 50.0471C154.294 50.0422 154.303 50.0398 154.312 50.0398C154.321 50.0398 154.33 50.0422 154.339 50.0471C154.349 50.0518 154.355 50.0575 154.359 50.0643L154.635 50.5861C154.638 50.5916 154.64 50.5972 154.64 50.6029C154.64 50.6141 154.635 50.6238 154.625 50.6319C154.615 50.6399 154.603 50.6438 154.59 50.6438C154.58 50.6438 154.571 50.6414 154.562 50.6364C154.553 50.6315 154.546 50.6257 154.543 50.6189L154.457 50.4565L154.17 50.4532L154.082 50.6193C154.078 50.6261 154.072 50.6319 154.063 50.6369C154.054 50.642 154.045 50.6446 154.036 50.6446C154.022 50.6446 154.01 50.6407 154 50.6328C153.99 50.6246 153.985 50.6149 153.985 50.6037C153.985 50.598 153.987 50.5924 153.99 50.587L154.266 50.0643ZM154.312 50.1841L154.213 50.3719L154.413 50.3739L154.312 50.1841Z" fill="#BC01FD"/>
<path d="M154.687 50.0905C154.687 50.0793 154.692 50.0698 154.702 50.0619C154.712 50.0537 154.724 50.0496 154.738 50.0496L155.241 50.0471H155.242C155.256 50.0471 155.268 50.0512 155.277 50.0594C155.287 50.0673 155.292 50.0769 155.292 50.088C155.292 50.0992 155.287 50.1089 155.277 50.1171C155.268 50.125 155.256 50.1289 155.242 50.1289L155.041 50.1297L155.039 50.5992C155.039 50.6101 155.034 50.62 155.024 50.6279C155.014 50.6358 155.002 50.6397 154.988 50.6397C154.975 50.6397 154.963 50.6358 154.953 50.6279C154.943 50.62 154.938 50.6105 154.938 50.5996L154.941 50.1302L154.738 50.1314C154.725 50.1314 154.712 50.1274 154.702 50.1195C154.692 50.1113 154.687 50.1017 154.687 50.0905Z" fill="#BC01FD"/>
<path d="M155.416 50.6389C155.403 50.6389 155.391 50.6349 155.381 50.627C155.371 50.6189 155.366 50.6092 155.366 50.598L155.366 50.0864C155.366 50.076 155.37 50.0666 155.38 50.0582C155.389 50.0497 155.4 50.0455 155.413 50.0455C155.429 50.0455 155.441 50.0495 155.451 50.0574C155.461 50.065 155.466 50.0747 155.466 50.0864L155.467 50.598C155.467 50.6092 155.462 50.6189 155.452 50.627C155.442 50.6349 155.43 50.6389 155.416 50.6389Z" fill="#BC01FD"/>
<path d="M155.54 50.0868C155.54 50.0773 155.545 50.0685 155.555 50.0606C155.565 50.0527 155.576 50.0488 155.588 50.0488C155.612 50.0488 155.629 50.057 155.637 50.0733L155.88 50.5223L156.099 50.0688C156.107 50.0516 156.124 50.043 156.148 50.043C156.161 50.043 156.172 50.047 156.182 50.0549C156.191 50.0625 156.196 50.0713 156.196 50.0811C156.196 50.0887 156.195 50.095 156.193 50.0999L155.93 50.6414C155.927 50.6482 155.921 50.6542 155.912 50.6593C155.903 50.6648 155.894 50.6675 155.883 50.6675C155.862 50.6675 155.847 50.6593 155.837 50.643L155.545 50.1068C155.542 50.1019 155.54 50.0953 155.54 50.0868Z" fill="#BC01FD"/>
<path d="M156.257 50.0884C156.257 50.0775 156.262 50.0683 156.272 50.0606C156.282 50.0527 156.294 50.0488 156.308 50.0488L156.739 50.0492C156.753 50.0492 156.765 50.0533 156.775 50.0615C156.785 50.0694 156.79 50.0789 156.79 50.0901C156.79 50.1013 156.785 50.1109 156.775 50.1191C156.765 50.127 156.753 50.131 156.739 50.131L156.358 50.1306L156.358 50.2982L156.698 50.3003C156.712 50.3003 156.724 50.3044 156.733 50.3126C156.743 50.3207 156.748 50.3312 156.748 50.344C156.748 50.3549 156.743 50.3642 156.732 50.3719C156.722 50.3792 156.71 50.3829 156.698 50.3829L156.359 50.3808L156.359 50.5538L156.739 50.5534C156.753 50.5534 156.765 50.5575 156.775 50.5657C156.785 50.5736 156.79 50.5831 156.79 50.5943C156.79 50.6055 156.785 50.6152 156.775 50.6234C156.765 50.6313 156.753 50.6352 156.739 50.6352L156.309 50.6356C156.295 50.6356 156.283 50.6317 156.273 50.6238C156.264 50.6156 156.259 50.606 156.259 50.5951L156.257 50.0884Z" fill="#BC01FD"/>
<path d="M157.37 50.3538C157.37 50.3024 157.423 50.2595 157.486 50.2595C157.549 50.2595 157.602 50.3024 157.602 50.3538C157.602 50.4052 157.549 50.4481 157.486 50.4481C157.423 50.4481 157.37 50.4052 157.37 50.3538Z" fill="#BC01FD"/>
<path d="M162.706 50.3538C162.706 50.3024 162.759 50.2595 162.822 50.2595C162.885 50.2595 162.938 50.3024 162.938 50.3538C162.938 50.4052 162.885 50.4481 162.822 50.4481C162.759 50.4481 162.706 50.4052 162.706 50.3538Z" fill="#BC01FD"/>
<path d="M158.417 50.0487H158.425C158.485 50.0487 158.538 50.0574 158.584 50.0749C158.63 50.0922 158.668 50.1156 158.698 50.1452C158.729 50.1746 158.752 50.2077 158.768 50.2444C158.783 50.2808 158.791 50.3181 158.791 50.3562C158.791 50.4144 158.775 50.4662 158.744 50.5116C158.712 50.5571 158.665 50.5928 158.603 50.6188C158.541 50.6448 158.465 50.6578 158.374 50.6578H158.35L158.233 50.6569C158.219 50.6567 158.207 50.6523 158.197 50.6438C158.187 50.6353 158.182 50.6252 158.182 50.6133L158.186 50.0936C158.186 50.0823 158.191 50.0725 158.201 50.0643C158.21 50.0559 158.222 50.0515 158.236 50.0512L158.417 50.0487ZM158.7 50.3537C158.7 50.3011 158.686 50.2588 158.659 50.2266C158.632 50.1944 158.594 50.1709 158.545 50.1563C158.496 50.1413 158.438 50.1338 158.372 50.1338C158.358 50.1338 158.344 50.134 158.33 50.1342C158.316 50.1345 158.302 50.1349 158.288 50.1355L158.285 50.5714L158.351 50.5722C158.42 50.5722 158.481 50.5654 158.533 50.5519C158.585 50.5381 158.626 50.5152 158.656 50.4833C158.685 50.4514 158.7 50.4082 158.7 50.3537Z" fill="#BC01FD"/>
<path d="M158.978 50.6616C158.964 50.6616 158.952 50.6575 158.941 50.6493C158.931 50.6408 158.926 50.6308 158.926 50.6192L158.926 50.0893C158.926 50.0786 158.931 50.0689 158.94 50.0601C158.95 50.0514 158.961 50.047 158.975 50.047C158.991 50.047 159.003 50.0511 159.013 50.0593C159.024 50.0672 159.029 50.0772 159.029 50.0893L159.029 50.6192C159.029 50.6308 159.024 50.6408 159.014 50.6493C159.004 50.6575 158.992 50.6616 158.978 50.6616Z" fill="#BC01FD"/>
<path d="M159.141 50.3613C159.141 50.3198 159.15 50.2798 159.168 50.2414C159.186 50.203 159.212 50.1688 159.245 50.1389C159.278 50.1087 159.317 50.0848 159.363 50.0673C159.409 50.0498 159.46 50.041 159.515 50.041C159.567 50.041 159.613 50.0468 159.654 50.0584C159.696 50.07 159.735 50.0864 159.772 50.1076C159.787 50.1157 159.794 50.127 159.794 50.1414C159.794 50.1527 159.789 50.1626 159.778 50.1711C159.769 50.1793 159.757 50.1834 159.742 50.1834C159.731 50.1834 159.721 50.1807 159.712 50.1753C159.685 50.1604 159.655 50.1485 159.621 50.1397C159.588 50.1307 159.553 50.1262 159.518 50.1262C159.478 50.1262 159.441 50.1325 159.407 50.1452C159.374 50.1577 159.345 50.1749 159.32 50.1969C159.296 50.2187 159.277 50.2435 159.263 50.2715C159.25 50.2994 159.243 50.3288 159.243 50.3596C159.243 50.4017 159.254 50.4391 159.277 50.4718C159.299 50.5046 159.331 50.5303 159.371 50.5489C159.411 50.5676 159.458 50.5769 159.512 50.5769C159.541 50.5769 159.571 50.5745 159.599 50.5697C159.629 50.5649 159.655 50.5594 159.679 50.5532L159.678 50.4087H159.521C159.507 50.4087 159.494 50.4046 159.484 50.3964C159.474 50.388 159.469 50.3779 159.469 50.3664C159.469 50.3548 159.474 50.3449 159.484 50.3367C159.494 50.3282 159.507 50.324 159.521 50.324H159.729C159.743 50.324 159.755 50.3281 159.765 50.3363C159.775 50.3445 159.781 50.3544 159.781 50.3659L159.783 50.5824C159.783 50.5903 159.78 50.5983 159.773 50.6057C159.767 50.613 159.759 50.6181 159.75 50.6209C159.717 50.6317 159.681 50.6413 159.641 50.6497C159.601 50.6579 159.559 50.662 159.515 50.662C159.443 50.662 159.379 50.6492 159.322 50.6235C159.266 50.5978 159.222 50.5623 159.19 50.5172C159.157 50.472 159.141 50.42 159.141 50.3613Z" fill="#BC01FD"/>
<path d="M159.968 50.6616C159.954 50.6616 159.941 50.6575 159.931 50.6493C159.921 50.6408 159.916 50.6308 159.916 50.6192L159.916 50.0893C159.916 50.0786 159.92 50.0689 159.93 50.0601C159.94 50.0514 159.951 50.047 159.965 50.047C159.98 50.047 159.993 50.0511 160.003 50.0593C160.013 50.0672 160.019 50.0772 160.019 50.0893L160.019 50.6192C160.019 50.6308 160.014 50.6408 160.004 50.6493C159.994 50.6575 159.982 50.6616 159.968 50.6616Z" fill="#BC01FD"/>
<path d="M160.116 50.0936C160.116 50.082 160.121 50.0721 160.13 50.0639C160.141 50.0554 160.153 50.0512 160.167 50.0512L160.682 50.0487H160.683C160.697 50.0487 160.709 50.0529 160.719 50.0614C160.729 50.0696 160.734 50.0795 160.734 50.091C160.734 50.1026 160.729 50.1126 160.719 50.1211C160.709 50.1293 160.697 50.1334 160.683 50.1334L160.477 50.1342L160.475 50.6205C160.475 50.6318 160.47 50.642 160.459 50.6502C160.449 50.6584 160.437 50.6624 160.423 50.6624C160.409 50.6624 160.397 50.6584 160.387 50.6502C160.377 50.642 160.372 50.6322 160.372 50.6209V50.6201L160.374 50.1347L160.168 50.1359C160.153 50.1359 160.141 50.1318 160.13 50.1236C160.121 50.1152 160.116 50.1052 160.116 50.0936Z" fill="#BC01FD"/>
<path d="M161.092 50.0665C161.095 50.0594 161.102 50.0535 161.111 50.0487C161.12 50.0436 161.129 50.041 161.139 50.041C161.148 50.041 161.157 50.0436 161.167 50.0487C161.176 50.0535 161.183 50.0594 161.186 50.0665L161.469 50.607C161.472 50.6126 161.474 50.6184 161.474 50.6243C161.474 50.6359 161.469 50.6459 161.459 50.6544C161.449 50.6626 161.437 50.6667 161.423 50.6667C161.413 50.6667 161.404 50.6641 161.394 50.6591C161.385 50.654 161.378 50.6479 161.375 50.6408L161.287 50.4727L160.993 50.4693L160.903 50.6413C160.9 50.6483 160.893 50.6544 160.884 50.6595C160.875 50.6648 160.865 50.6675 160.856 50.6675C160.842 50.6675 160.83 50.6634 160.819 50.6552C160.809 50.6468 160.804 50.6367 160.804 50.6252C160.804 50.6192 160.806 50.6135 160.809 50.6078L161.092 50.0665ZM161.139 50.1906L161.038 50.385L161.242 50.3871L161.139 50.1906Z" fill="#BC01FD"/>
<path d="M161.633 50.6608C161.619 50.6608 161.607 50.6567 161.596 50.6485C161.586 50.64 161.581 50.6301 161.581 50.6188L161.58 50.0813C161.58 50.07 161.585 50.06 161.595 50.0521C161.605 50.0439 161.617 50.0398 161.631 50.0398C161.645 50.0398 161.657 50.0439 161.667 50.0521C161.678 50.06 161.683 50.0696 161.683 50.0809L161.684 50.576L162.074 50.5752C162.088 50.5752 162.1 50.5794 162.11 50.5879C162.121 50.5961 162.126 50.606 162.126 50.6175C162.126 50.6291 162.121 50.6391 162.11 50.6476C162.1 50.6558 162.088 50.6599 162.074 50.6599L161.633 50.6608Z" fill="#BC01FD"/>
<path d="M163.569 50.6389C163.555 50.6389 163.543 50.6349 163.533 50.627C163.523 50.6189 163.519 50.6092 163.519 50.598L163.518 50.0864C163.518 50.076 163.523 50.0666 163.532 50.0582C163.542 50.0497 163.553 50.0455 163.566 50.0455C163.581 50.0455 163.594 50.0495 163.604 50.0574C163.614 50.065 163.619 50.0747 163.619 50.0864L163.619 50.598C163.619 50.6092 163.614 50.6189 163.604 50.627C163.594 50.6349 163.583 50.6389 163.569 50.6389Z" fill="#BC01FD"/>
<path d="M163.739 50.0884C163.739 50.077 163.744 50.0676 163.754 50.0602C163.764 50.0526 163.777 50.0488 163.791 50.0488C163.807 50.0488 163.819 50.054 163.83 50.0643L164.21 50.4835V50.0897C164.21 50.0788 164.215 50.0695 164.224 50.0619C164.235 50.054 164.246 50.05 164.26 50.05C164.274 50.05 164.286 50.054 164.295 50.0619C164.306 50.0695 164.311 50.0788 164.311 50.0897L164.31 50.6025C164.31 50.614 164.305 50.6235 164.294 50.6311C164.284 50.6385 164.272 50.6422 164.258 50.6422C164.242 50.6422 164.229 50.6367 164.219 50.6258L163.84 50.207V50.6021C163.84 50.613 163.835 50.6224 163.825 50.6303C163.815 50.6379 163.803 50.6418 163.789 50.6418C163.776 50.6418 163.764 50.6379 163.754 50.6303C163.744 50.6224 163.739 50.613 163.739 50.6021V50.0884Z" fill="#BC01FD"/>
<path d="M164.418 50.0884C164.418 50.077 164.423 50.0676 164.433 50.0602C164.443 50.0526 164.455 50.0488 164.469 50.0488C164.485 50.0488 164.498 50.054 164.508 50.0643L164.888 50.4835V50.0897C164.888 50.0788 164.893 50.0695 164.903 50.0619C164.913 50.054 164.925 50.05 164.939 50.05C164.953 50.05 164.964 50.054 164.974 50.0619C164.984 50.0695 164.989 50.0788 164.989 50.0897L164.989 50.6025C164.989 50.614 164.983 50.6235 164.973 50.6311C164.963 50.6385 164.951 50.6422 164.937 50.6422C164.921 50.6422 164.908 50.6367 164.898 50.6258L164.518 50.207V50.6021C164.518 50.613 164.513 50.6224 164.503 50.6303C164.493 50.6379 164.482 50.6418 164.468 50.6418C164.454 50.6418 164.442 50.6379 164.432 50.6303C164.422 50.6224 164.418 50.613 164.418 50.6021V50.0884Z" fill="#BC01FD"/>
<path d="M165.436 50.0414C165.488 50.0414 165.535 50.0496 165.578 50.066C165.621 50.082 165.659 50.1043 165.69 50.1326C165.722 50.1607 165.747 50.1931 165.765 50.2299C165.782 50.2665 165.791 50.3053 165.791 50.3465C165.791 50.3877 165.782 50.4264 165.765 50.4626C165.747 50.4986 165.723 50.5304 165.691 50.5579C165.66 50.5855 165.622 50.607 165.579 50.6225C165.536 50.6381 165.489 50.6459 165.437 50.6459C165.384 50.6459 165.335 50.6381 165.292 50.6225C165.249 50.6067 165.212 50.5851 165.18 50.5575C165.149 50.5297 165.126 50.4977 165.109 50.4614C165.092 50.4249 165.084 50.3858 165.084 50.344C165.084 50.3034 165.092 50.265 165.11 50.2287C165.128 50.1925 165.152 50.1603 165.184 50.1322C165.216 50.1038 165.253 50.0816 165.296 50.0655C165.339 50.0495 165.385 50.0414 165.436 50.0414ZM165.438 50.1244C165.388 50.1244 165.344 50.1349 165.306 50.1559C165.268 50.1769 165.238 50.2047 165.217 50.2393C165.195 50.2737 165.184 50.3113 165.184 50.3522C165.184 50.38 165.191 50.4066 165.204 50.432C165.217 50.4573 165.235 50.48 165.258 50.4999C165.282 50.5195 165.308 50.535 165.338 50.5465C165.369 50.5577 165.402 50.5632 165.436 50.5632C165.471 50.5632 165.503 50.5574 165.534 50.5457C165.565 50.5339 165.592 50.5181 165.615 50.4982C165.639 50.4783 165.658 50.456 165.671 50.4312C165.685 50.4061 165.691 50.3804 165.691 50.3543C165.691 50.312 165.68 50.2736 165.657 50.2389C165.635 50.204 165.604 50.1762 165.566 50.1555C165.528 50.1348 165.485 50.1244 165.438 50.1244Z" fill="#BC01FD"/>
<path d="M165.859 50.0868C165.859 50.0773 165.864 50.0685 165.874 50.0606C165.884 50.0527 165.895 50.0488 165.907 50.0488C165.931 50.0488 165.948 50.057 165.956 50.0733L166.199 50.5223L166.418 50.0688C166.427 50.0516 166.443 50.043 166.468 50.043C166.48 50.043 166.491 50.047 166.501 50.0549C166.511 50.0625 166.516 50.0713 166.516 50.0811C166.516 50.0887 166.515 50.095 166.512 50.0999L166.249 50.6414C166.246 50.6482 166.24 50.6542 166.231 50.6593C166.223 50.6648 166.213 50.6675 166.202 50.6675C166.181 50.6675 166.166 50.6593 166.157 50.643L165.864 50.1068C165.861 50.1019 165.859 50.0953 165.859 50.0868Z" fill="#BC01FD"/>
<path d="M166.866 50.0643C166.87 50.0575 166.876 50.0518 166.885 50.0471C166.894 50.0422 166.903 50.0398 166.912 50.0398C166.921 50.0398 166.93 50.0422 166.939 50.0471C166.949 50.0518 166.955 50.0575 166.959 50.0643L167.236 50.5861C167.239 50.5916 167.24 50.5972 167.24 50.6029C167.24 50.6141 167.235 50.6238 167.225 50.6319C167.215 50.6399 167.204 50.6438 167.19 50.6438C167.18 50.6438 167.171 50.6414 167.162 50.6364C167.153 50.6315 167.147 50.6257 167.143 50.6189L167.057 50.4565L166.77 50.4532L166.682 50.6193C166.678 50.6261 166.672 50.6319 166.663 50.6369C166.654 50.642 166.645 50.6446 166.635 50.6446C166.622 50.6446 166.61 50.6407 166.6 50.6328C166.59 50.6246 166.585 50.6149 166.585 50.6037C166.585 50.598 166.586 50.5924 166.589 50.587L166.866 50.0643ZM166.912 50.1841L166.813 50.3719L167.013 50.3739L166.912 50.1841Z" fill="#BC01FD"/>
<path d="M167.308 50.0905C167.308 50.0793 167.313 50.0698 167.323 50.0619C167.333 50.0537 167.345 50.0496 167.359 50.0496L167.862 50.0471H167.863C167.877 50.0471 167.889 50.0512 167.899 50.0594C167.909 50.0673 167.914 50.0769 167.914 50.088C167.914 50.0992 167.909 50.1089 167.899 50.1171C167.889 50.125 167.877 50.1289 167.863 50.1289L167.662 50.1297L167.66 50.5992C167.66 50.6101 167.655 50.62 167.645 50.6279C167.635 50.6358 167.623 50.6397 167.61 50.6397C167.596 50.6397 167.584 50.6358 167.574 50.6279C167.564 50.62 167.559 50.6105 167.559 50.5996L167.562 50.1302L167.359 50.1314C167.345 50.1314 167.333 50.1274 167.323 50.1195C167.313 50.1113 167.308 50.1017 167.308 50.0905Z" fill="#BC01FD"/>
<path d="M168.059 50.6389C168.045 50.6389 168.033 50.6349 168.023 50.627C168.013 50.6189 168.008 50.6092 168.008 50.598L168.008 50.0864C168.008 50.076 168.012 50.0666 168.022 50.0582C168.031 50.0497 168.042 50.0455 168.055 50.0455C168.071 50.0455 168.084 50.0495 168.093 50.0574C168.103 50.065 168.108 50.0747 168.108 50.0864L168.109 50.598C168.109 50.6092 168.104 50.6189 168.094 50.627C168.084 50.6349 168.072 50.6389 168.059 50.6389Z" fill="#BC01FD"/>
<path d="M168.568 50.0414C168.62 50.0414 168.667 50.0496 168.71 50.066C168.753 50.082 168.791 50.1043 168.823 50.1326C168.855 50.1607 168.879 50.1931 168.897 50.2299C168.914 50.2665 168.923 50.3053 168.923 50.3465C168.923 50.3877 168.914 50.4264 168.897 50.4626C168.88 50.4986 168.855 50.5304 168.824 50.5579C168.792 50.5855 168.755 50.607 168.711 50.6225C168.668 50.6381 168.621 50.6459 168.569 50.6459C168.516 50.6459 168.468 50.6381 168.424 50.6225C168.381 50.6067 168.344 50.5851 168.313 50.5575C168.282 50.5297 168.258 50.4977 168.241 50.4614C168.224 50.4249 168.216 50.3858 168.216 50.344C168.216 50.3034 168.225 50.265 168.242 50.2287C168.26 50.1925 168.285 50.1603 168.316 50.1322C168.348 50.1038 168.385 50.0816 168.428 50.0655C168.471 50.0495 168.518 50.0414 168.568 50.0414ZM168.57 50.1244C168.521 50.1244 168.477 50.1349 168.438 50.1559C168.401 50.1769 168.371 50.2047 168.349 50.2393C168.327 50.2737 168.317 50.3113 168.317 50.3522C168.317 50.38 168.323 50.4066 168.336 50.432C168.349 50.4573 168.367 50.48 168.391 50.4999C168.414 50.5195 168.441 50.535 168.471 50.5465C168.501 50.5577 168.534 50.5632 168.568 50.5632C168.603 50.5632 168.636 50.5574 168.666 50.5457C168.697 50.5339 168.724 50.5181 168.748 50.4982C168.772 50.4783 168.79 50.456 168.804 50.4312C168.817 50.4061 168.824 50.3804 168.824 50.3543C168.824 50.312 168.812 50.2736 168.79 50.2389C168.767 50.204 168.737 50.1762 168.698 50.1555C168.66 50.1348 168.617 50.1244 168.57 50.1244Z" fill="#BC01FD"/>
<path d="M169.017 50.0884C169.017 50.077 169.022 50.0676 169.032 50.0602C169.042 50.0526 169.055 50.0488 169.069 50.0488C169.085 50.0488 169.097 50.054 169.108 50.0643L169.488 50.4835V50.0897C169.488 50.0788 169.493 50.0695 169.502 50.0619C169.512 50.054 169.524 50.05 169.538 50.05C169.552 50.05 169.564 50.054 169.573 50.0619C169.583 50.0695 169.589 50.0788 169.589 50.0897L169.588 50.6025C169.588 50.614 169.583 50.6235 169.572 50.6311C169.562 50.6385 169.55 50.6422 169.536 50.6422C169.52 50.6422 169.507 50.6367 169.497 50.6258L169.118 50.207V50.6021C169.118 50.613 169.113 50.6224 169.103 50.6303C169.093 50.6379 169.081 50.6418 169.067 50.6418C169.053 50.6418 169.042 50.6379 169.031 50.6303C169.022 50.6224 169.017 50.613 169.017 50.6021V50.0884Z" fill="#BC01FD"/>
<path d="M150.673 49.9432H146.547C146.487 49.9432 146.439 49.8941 146.439 49.8337C146.439 49.7733 146.487 49.7242 146.547 49.7242H150.487L148.366 45.9741L148.291 46.1004C148.262 46.1528 148.196 46.1708 148.145 46.1406C148.094 46.1105 148.076 46.0436 148.105 45.9912L148.273 45.7004C148.292 45.6665 148.328 45.6456 148.366 45.6455C148.404 45.6455 148.44 45.6664 148.459 45.7002L150.766 49.779C150.785 49.8128 150.785 49.8546 150.766 49.8884C150.746 49.9223 150.711 49.9432 150.673 49.9432Z" fill="#BC01FD"/>
<path d="M145.576 49.9432H145.245C145.206 49.9432 145.171 49.9223 145.152 49.8884C145.133 49.8546 145.133 49.8128 145.152 49.779L147.459 45.7002C147.478 45.6664 147.513 45.6455 147.551 45.6455C147.59 45.6455 147.625 45.6664 147.644 45.7002L149.702 49.3379C149.745 49.4207 149.724 49.465 149.672 49.4952C149.633 49.5187 149.566 49.5224 149.506 49.4275L147.551 45.9739L145.43 49.7242H145.576C145.635 49.7242 145.683 49.7733 145.683 49.8337C145.683 49.8941 145.635 49.9432 145.576 49.9432Z" fill="#BC01FD"/>
<path d="M150.266 50.6675H145.652C145.614 50.6675 145.578 50.6466 145.559 50.6127C145.54 50.5788 145.54 50.5371 145.559 50.5032L147.621 46.8577C147.651 46.8054 147.716 46.7874 147.767 46.8176C147.819 46.8478 147.836 46.9148 147.807 46.9672L145.838 50.4485H150.08L150.018 50.3229C149.988 50.2705 150.006 50.2035 150.057 50.1734C150.109 50.1433 150.174 50.1613 150.204 50.2137L150.359 50.5035C150.378 50.5373 150.378 50.5791 150.358 50.6129C150.339 50.6467 150.304 50.6675 150.266 50.6675Z" fill="#BC01FD"/>
<path d="M100.31 47.0622C100.31 47.382 100.2 47.6484 99.9794 47.8615C99.7628 48.071 99.4307 48.1758 98.9829 48.1758H98.2451V49.7799H97.7441V45.9377H98.9829C99.416 45.9377 99.7445 46.0424 99.9684 46.2519C100.196 46.4614 100.31 46.7315 100.31 47.0622ZM98.9829 47.7623C99.2618 47.7623 99.4674 47.7017 99.5995 47.5804C99.7316 47.4591 99.7977 47.2864 99.7977 47.0622C99.7977 46.5882 99.5261 46.3511 98.9829 46.3511H98.2451V47.7623H98.9829Z" fill="#585858"/>
<path d="M103.476 48.9255H101.802L101.494 49.7799H100.965L102.353 45.9597H102.931L104.313 49.7799H103.784L103.476 48.9255ZM103.333 48.5175L102.639 46.5771L101.945 48.5175H103.333Z" fill="#585858"/>
<path d="M107.213 49.7799L106.299 48.2088H105.694V49.7799H105.193V45.9377H106.431C106.721 45.9377 106.965 45.9873 107.164 46.0865C107.366 46.1857 107.516 46.3199 107.615 46.4889C107.714 46.658 107.764 46.8509 107.764 47.0677C107.764 47.3323 107.687 47.5657 107.533 47.7678C107.382 47.97 107.154 48.1041 106.85 48.1702L107.813 49.7799H107.213ZM105.694 47.8064H106.431C106.703 47.8064 106.907 47.7403 107.043 47.608C107.178 47.472 107.246 47.2919 107.246 47.0677C107.246 46.8399 107.178 46.6635 107.043 46.5385C106.91 46.4136 106.707 46.3511 106.431 46.3511H105.694V47.8064Z" fill="#585858"/>
<path d="M108.63 47.856C108.63 47.4812 108.715 47.1449 108.884 46.8472C109.052 46.5459 109.282 46.3107 109.572 46.1416C109.865 45.9726 110.19 45.8881 110.546 45.8881C110.965 45.8881 111.33 45.9891 111.642 46.1912C111.954 46.3934 112.181 46.68 112.325 47.0512H111.724C111.618 46.8197 111.464 46.6414 111.262 46.5165C111.064 46.3915 110.825 46.3291 110.546 46.3291C110.278 46.3291 110.038 46.3915 109.825 46.5165C109.612 46.6414 109.445 46.8197 109.324 47.0512C109.203 47.2791 109.142 47.5473 109.142 47.856C109.142 48.1611 109.203 48.4293 109.324 48.6609C109.445 48.8887 109.612 49.0651 109.825 49.1901C110.038 49.315 110.278 49.3775 110.546 49.3775C110.825 49.3775 111.064 49.3169 111.262 49.1956C111.464 49.0706 111.618 48.8924 111.724 48.6609H112.325C112.181 49.0284 111.954 49.3132 111.642 49.5153C111.33 49.7138 110.965 49.813 110.546 49.813C110.19 49.813 109.865 49.7303 109.572 49.5649C109.282 49.3959 109.052 49.1625 108.884 48.8648C108.715 48.5672 108.63 48.2309 108.63 47.856Z" fill="#585858"/>
<path d="M113.847 46.3456V47.63H115.245V48.0435H113.847V49.3665H115.41V49.7799H113.346V45.9322H115.41V46.3456H113.847Z" fill="#585858"/>
<path d="M118.464 49.7799L117.55 48.2088H116.944V49.7799H116.443V45.9377H117.682C117.972 45.9377 118.216 45.9873 118.414 46.0865C118.616 46.1857 118.767 46.3199 118.866 46.4889C118.965 46.658 119.015 46.8509 119.015 47.0677C119.015 47.3323 118.937 47.5657 118.783 47.7678C118.633 47.97 118.405 48.1041 118.101 48.1702L119.064 49.7799H118.464ZM116.944 47.8064H117.682C117.954 47.8064 118.158 47.7403 118.293 47.608C118.429 47.472 118.497 47.2919 118.497 47.0677C118.497 46.8399 118.429 46.6635 118.293 46.5385C118.161 46.4136 117.958 46.3511 117.682 46.3511H116.944V47.8064Z" fill="#585858"/>
<path d="M120.569 45.9377V49.7799H120.068V45.9377H120.569Z" fill="#585858"/>
<path d="M123.967 48.9255H122.293L121.985 49.7799H121.456L122.844 45.9597H123.422L124.804 49.7799H124.275L123.967 48.9255ZM123.824 48.5175L123.13 46.5771L122.436 48.5175H123.824Z" fill="#585858"/>
<path d="M127.239 47.856C127.239 47.4812 127.324 47.1449 127.493 46.8472C127.661 46.5459 127.891 46.3107 128.181 46.1416C128.474 45.9726 128.799 45.8881 129.155 45.8881C129.574 45.8881 129.939 45.9891 130.251 46.1912C130.563 46.3934 130.79 46.68 130.934 47.0512H130.333C130.227 46.8197 130.073 46.6414 129.871 46.5165C129.673 46.3915 129.434 46.3291 129.155 46.3291C128.887 46.3291 128.647 46.3915 128.434 46.5165C128.221 46.6414 128.054 46.8197 127.933 47.0512C127.812 47.2791 127.751 47.5473 127.751 47.856C127.751 48.1611 127.812 48.4293 127.933 48.6609C128.054 48.8887 128.221 49.0651 128.434 49.1901C128.647 49.315 128.887 49.3775 129.155 49.3775C129.434 49.3775 129.673 49.3169 129.871 49.1956C130.073 49.0706 130.227 48.8924 130.333 48.6609H130.934C130.79 49.0284 130.563 49.3132 130.251 49.5153C129.939 49.7138 129.574 49.813 129.155 49.813C128.799 49.813 128.474 49.7303 128.181 49.5649C127.891 49.3959 127.661 49.1625 127.493 48.8648C127.324 48.5672 127.239 48.2309 127.239 47.856Z" fill="#585858"/>
<path d="M133.694 49.8185C133.338 49.8185 133.013 49.7358 132.72 49.5704C132.426 49.4014 132.193 49.168 132.021 48.8703C131.852 48.569 131.767 48.2309 131.767 47.856C131.767 47.4812 131.852 47.1449 132.021 46.8472C132.193 46.5459 132.426 46.3125 132.72 46.1471C133.013 45.9781 133.338 45.8936 133.694 45.8936C134.054 45.8936 134.381 45.9781 134.674 46.1471C134.968 46.3125 135.199 46.5441 135.368 46.8417C135.537 47.1394 135.621 47.4775 135.621 47.856C135.621 48.2346 135.537 48.5727 135.368 48.8703C135.199 49.168 134.968 49.4014 134.674 49.5704C134.381 49.7358 134.054 49.8185 133.694 49.8185ZM133.694 49.383C133.962 49.383 134.203 49.3205 134.416 49.1956C134.632 49.0706 134.801 48.8924 134.922 48.6609C135.047 48.4293 135.109 48.1611 135.109 47.856C135.109 47.5473 135.047 47.2791 134.922 47.0512C134.801 46.8197 134.634 46.6414 134.421 46.5165C134.208 46.3915 133.966 46.3291 133.694 46.3291C133.423 46.3291 133.18 46.3915 132.968 46.5165C132.755 46.6414 132.586 46.8197 132.461 47.0512C132.34 47.2791 132.279 47.5473 132.279 47.856C132.279 48.1611 132.34 48.4293 132.461 48.6609C132.586 48.8924 132.755 49.0706 132.968 49.1956C133.184 49.3205 133.426 49.383 133.694 49.383Z" fill="#585858"/>
<path d="M140.45 45.9652V49.7799H139.949V46.9354L138.683 49.7799H138.331L137.059 46.9299V49.7799H136.558V45.9652H137.097L138.507 49.1184L139.916 45.9652H140.45Z" fill="#585858"/>
<path d="M155.163 48.8863C155.163 49.0301 155.045 49.1472 154.903 49.1472C154.79 49.1472 154.692 49.0762 154.662 48.9823L154.447 48.4128H152.75L152.536 48.9823C152.499 49.0744 152.402 49.1472 152.294 49.1472C152.151 49.1472 152.034 49.0283 152.034 48.8863C152.034 48.8557 152.043 48.8192 152.055 48.7886L153.181 45.9622C153.242 45.7973 153.407 45.6746 153.597 45.6746C153.786 45.6746 153.951 45.7973 154.016 45.9622L155.142 48.7886C155.154 48.8154 155.163 48.8519 155.163 48.8863ZM154.279 47.9583L153.597 46.1481L152.921 47.9583H154.279Z" fill="#BC01FD"/>
<path d="M158.509 47.5997V48.384C158.509 48.5221 158.473 48.6255 158.371 48.7176C158.053 49.0052 157.64 49.1893 157.132 49.1893C156.154 49.1893 155.36 48.4817 155.36 47.4155C155.36 46.3493 156.155 45.6455 157.132 45.6455C157.643 45.6455 158.019 45.8258 158.306 46.1114C158.352 46.1517 158.377 46.213 158.377 46.2801C158.377 46.4144 158.27 46.516 158.136 46.516C158.074 46.516 158.013 46.491 157.967 46.4489C157.757 46.2379 157.466 46.0998 157.132 46.0998C156.42 46.0998 155.887 46.6444 155.887 47.4132C155.887 48.1821 156.42 48.7305 157.132 48.7305C157.512 48.7305 157.833 48.5463 157.998 48.3912V47.7757H157.102C156.979 47.7757 156.876 47.6741 156.876 47.5455C156.876 47.4169 156.977 47.325 157.102 47.325H158.239C158.412 47.3268 158.509 47.4253 158.509 47.5997Z" fill="#BC01FD"/>
<path d="M159.164 48.8922V45.9333C159.164 45.7952 159.283 45.6763 159.425 45.6763C159.567 45.6763 159.676 45.7952 159.676 45.9333V48.8922C159.676 49.0303 159.563 49.1492 159.425 49.1492C159.287 49.1492 159.164 49.0303 159.164 48.8922Z" fill="#BC01FD"/>
<path d="M160.44 48.8518V45.9333C160.44 45.7952 160.558 45.6763 160.7 45.6763C160.842 45.6763 160.951 45.7952 160.951 45.9333V48.6715H162.298C162.42 48.6715 162.528 48.7693 162.528 48.892C162.528 49.0147 162.421 49.1222 162.298 49.1222H160.718C160.538 49.124 160.44 49.0262 160.44 48.8518Z" fill="#BC01FD"/>
<path d="M163.069 48.8922V45.9333C163.069 45.7952 163.188 45.6763 163.33 45.6763C163.472 45.6763 163.581 45.7952 163.581 45.9333V48.8922C163.581 49.0303 163.468 49.1492 163.33 49.1492C163.192 49.1492 163.069 49.0303 163.069 48.8922Z" fill="#BC01FD"/>
<path d="M165.18 48.8922V46.154H164.318C164.195 46.154 164.092 46.0563 164.092 45.9336C164.092 45.8109 164.193 45.7034 164.318 45.7034H166.547C166.67 45.7034 166.777 45.805 166.777 45.9336C166.777 46.0622 166.67 46.154 166.547 46.154H165.691V48.8922C165.691 49.0304 165.572 49.1492 165.434 49.1492C165.296 49.1492 165.18 49.0304 165.18 48.8922Z" fill="#BC01FD"/>
<path d="M169.872 46.056L168.777 47.6917V48.8922C168.777 49.0303 168.664 49.1492 168.52 49.1492C168.376 49.1492 168.263 49.0303 168.263 48.8922V47.6917L167.162 46.0599C167.137 46.0233 167.122 45.9737 167.122 45.9217C167.122 45.7836 167.235 45.6763 167.367 45.6763C167.453 45.6763 167.532 45.7167 167.578 45.7895L168.52 47.2354L169.456 45.7895C169.502 45.7224 169.579 45.6763 169.667 45.6763C169.801 45.6763 169.912 45.7836 169.912 45.9217C169.912 45.9734 169.897 46.0195 169.872 46.056Z" fill="#BC01FD"/>
<path d="M152.655 50.4177C152.667 50.4177 152.678 50.4216 152.688 50.4295C152.698 50.4371 152.703 50.4457 152.703 50.4553C152.703 50.4629 152.701 50.4695 152.698 50.4749C152.681 50.5049 152.657 50.5328 152.626 50.5587C152.596 50.5844 152.559 50.605 152.517 50.6205C152.475 50.636 152.427 50.6438 152.375 50.6438C152.323 50.6438 152.276 50.6358 152.234 50.6197C152.192 50.6036 152.156 50.5816 152.126 50.5538C152.096 50.5258 152.074 50.4936 152.058 50.4573C152.042 50.4208 152.034 50.3822 152.034 50.3416C152.034 50.3015 152.042 50.2633 152.058 50.2271C152.074 50.1908 152.097 50.1588 152.127 50.131C152.157 50.1029 152.193 50.0808 152.234 50.0647C152.276 50.0486 152.322 50.0406 152.373 50.0406C152.425 50.0406 152.472 50.0481 152.513 50.0631C152.556 50.0778 152.592 50.0976 152.623 50.1224C152.654 50.1469 152.679 50.1739 152.696 50.2034C152.7 50.2091 152.702 50.2151 152.702 50.2214C152.702 50.2314 152.697 50.2407 152.688 50.2492C152.679 50.2573 152.669 50.2614 152.657 50.2614C152.646 50.2614 152.636 50.2595 152.626 50.2557C152.617 50.2516 152.61 50.2456 152.606 50.2377C152.587 50.2061 152.557 50.179 152.517 50.1563C152.477 50.1337 152.429 50.1224 152.373 50.1224C152.324 50.1224 152.282 50.1325 152.246 50.1526C152.211 50.1728 152.183 50.1997 152.164 50.2332C152.144 50.2665 152.135 50.3029 152.135 50.3424C152.135 50.3822 152.144 50.4187 152.163 50.452C152.183 50.4853 152.21 50.5119 152.246 50.5318C152.282 50.5517 152.324 50.5616 152.374 50.5616C152.41 50.5616 152.444 50.5562 152.475 50.5453C152.506 50.5341 152.532 50.5193 152.555 50.5011C152.577 50.4828 152.594 50.4632 152.606 50.4422C152.615 50.4258 152.631 50.4177 152.655 50.4177Z" fill="#BC01FD"/>
<path d="M153.316 50.6054C153.316 50.616 153.311 50.6253 153.301 50.6332C153.292 50.6408 153.282 50.6446 153.271 50.6446C153.261 50.6446 153.253 50.6419 153.246 50.6364C153.239 50.6313 153.234 50.6273 153.231 50.6246C153.201 50.6071 153.174 50.5874 153.152 50.5653C153.13 50.5429 153.111 50.5187 153.095 50.4925C153.081 50.469 153.067 50.4508 153.053 50.4377C153.039 50.4246 153.022 50.4153 153.001 50.4099C152.981 50.4044 152.955 50.4016 152.923 50.4013L152.877 50.4009L152.878 50.5988C152.878 50.6097 152.873 50.6201 152.862 50.6283C152.853 50.6364 152.841 50.6405 152.827 50.6405C152.814 50.6405 152.802 50.6362 152.792 50.6275C152.782 50.6187 152.777 50.6084 152.777 50.5964L152.775 50.0889C152.775 50.0774 152.78 50.0679 152.79 50.0602C152.8 50.0523 152.812 50.0482 152.825 50.048L152.959 50.0475H152.971C153.028 50.0475 153.08 50.0545 153.125 50.0684C153.17 50.082 153.206 50.1026 153.232 50.1302C153.259 50.1574 153.272 50.1914 153.272 50.232C153.272 50.2582 153.265 50.2815 153.251 50.3019C153.238 50.3224 153.221 50.3397 153.2 50.3539C153.178 50.368 153.155 50.3791 153.13 50.387C153.142 50.3987 153.153 50.4132 153.164 50.4303C153.184 50.4606 153.203 50.4875 153.221 50.5109C153.24 50.5341 153.264 50.5545 153.294 50.5722C153.3 50.5755 153.305 50.5801 153.309 50.5861C153.314 50.5919 153.316 50.5983 153.316 50.6054ZM152.973 50.1293H152.876L152.877 50.3248L152.974 50.324C153.036 50.3235 153.084 50.3158 153.119 50.3011C153.154 50.2864 153.172 50.2628 153.172 50.2304C153.172 50.1971 153.153 50.172 153.116 50.1551C153.079 50.1379 153.031 50.1293 152.973 50.1293Z" fill="#BC01FD"/>
<path d="M153.392 50.0884C153.392 50.0775 153.396 50.0683 153.406 50.0606C153.416 50.0527 153.428 50.0488 153.442 50.0488L153.874 50.0492C153.887 50.0492 153.899 50.0533 153.909 50.0615C153.919 50.0694 153.924 50.0789 153.924 50.0901C153.924 50.1013 153.919 50.1109 153.909 50.1191C153.899 50.127 153.887 50.131 153.874 50.131L153.492 50.1306L153.493 50.2982L153.832 50.3003C153.846 50.3003 153.858 50.3044 153.868 50.3126C153.877 50.3207 153.882 50.3312 153.882 50.344C153.882 50.3549 153.877 50.3642 153.867 50.3719C153.856 50.3792 153.845 50.3829 153.832 50.3829L153.493 50.3808L153.494 50.5538L153.873 50.5534C153.887 50.5534 153.899 50.5575 153.909 50.5657C153.919 50.5736 153.924 50.5831 153.924 50.5943C153.924 50.6055 153.919 50.6152 153.909 50.6234C153.899 50.6313 153.887 50.6352 153.874 50.6352L153.443 50.6356C153.43 50.6356 153.418 50.6317 153.408 50.6238C153.398 50.6156 153.393 50.606 153.393 50.5951L153.392 50.0884Z" fill="#BC01FD"/>
<path d="M154.266 50.0643C154.27 50.0575 154.276 50.0518 154.285 50.0471C154.294 50.0422 154.303 50.0398 154.312 50.0398C154.321 50.0398 154.33 50.0422 154.339 50.0471C154.349 50.0518 154.355 50.0575 154.359 50.0643L154.635 50.5861C154.638 50.5916 154.64 50.5972 154.64 50.6029C154.64 50.6141 154.635 50.6238 154.625 50.6319C154.615 50.6399 154.603 50.6438 154.59 50.6438C154.58 50.6438 154.571 50.6414 154.562 50.6364C154.553 50.6315 154.546 50.6257 154.543 50.6189L154.457 50.4565L154.17 50.4532L154.082 50.6193C154.078 50.6261 154.072 50.6319 154.063 50.6369C154.054 50.642 154.045 50.6446 154.036 50.6446C154.022 50.6446 154.01 50.6407 154 50.6328C153.99 50.6246 153.985 50.6149 153.985 50.6037C153.985 50.598 153.987 50.5924 153.99 50.587L154.266 50.0643ZM154.312 50.1841L154.213 50.3719L154.413 50.3739L154.312 50.1841Z" fill="#BC01FD"/>
<path d="M154.687 50.0905C154.687 50.0793 154.692 50.0698 154.702 50.0619C154.712 50.0537 154.724 50.0496 154.738 50.0496L155.241 50.0471H155.242C155.256 50.0471 155.268 50.0512 155.277 50.0594C155.287 50.0673 155.292 50.0769 155.292 50.088C155.292 50.0992 155.287 50.1089 155.277 50.1171C155.268 50.125 155.256 50.1289 155.242 50.1289L155.041 50.1297L155.039 50.5992C155.039 50.6101 155.034 50.62 155.024 50.6279C155.014 50.6358 155.002 50.6397 154.988 50.6397C154.975 50.6397 154.963 50.6358 154.953 50.6279C154.943 50.62 154.938 50.6105 154.938 50.5996L154.941 50.1302L154.738 50.1314C154.725 50.1314 154.712 50.1274 154.702 50.1195C154.692 50.1113 154.687 50.1017 154.687 50.0905Z" fill="#BC01FD"/>
<path d="M155.416 50.6389C155.403 50.6389 155.391 50.6349 155.381 50.627C155.371 50.6189 155.366 50.6092 155.366 50.598L155.366 50.0864C155.366 50.076 155.37 50.0666 155.38 50.0582C155.389 50.0497 155.4 50.0455 155.413 50.0455C155.429 50.0455 155.441 50.0495 155.451 50.0574C155.461 50.065 155.466 50.0747 155.466 50.0864L155.467 50.598C155.467 50.6092 155.462 50.6189 155.452 50.627C155.442 50.6349 155.43 50.6389 155.416 50.6389Z" fill="#BC01FD"/>
<path d="M155.54 50.0868C155.54 50.0773 155.545 50.0685 155.555 50.0606C155.565 50.0527 155.576 50.0488 155.588 50.0488C155.612 50.0488 155.629 50.057 155.637 50.0733L155.88 50.5223L156.099 50.0688C156.107 50.0516 156.124 50.043 156.148 50.043C156.161 50.043 156.172 50.047 156.182 50.0549C156.191 50.0625 156.196 50.0713 156.196 50.0811C156.196 50.0887 156.195 50.095 156.193 50.0999L155.93 50.6414C155.927 50.6482 155.921 50.6542 155.912 50.6593C155.903 50.6648 155.894 50.6675 155.883 50.6675C155.862 50.6675 155.847 50.6593 155.837 50.643L155.545 50.1068C155.542 50.1019 155.54 50.0953 155.54 50.0868Z" fill="#BC01FD"/>
<path d="M156.257 50.0884C156.257 50.0775 156.262 50.0683 156.272 50.0606C156.282 50.0527 156.294 50.0488 156.308 50.0488L156.739 50.0492C156.753 50.0492 156.765 50.0533 156.775 50.0615C156.785 50.0694 156.79 50.0789 156.79 50.0901C156.79 50.1013 156.785 50.1109 156.775 50.1191C156.765 50.127 156.753 50.131 156.739 50.131L156.358 50.1306L156.358 50.2982L156.698 50.3003C156.712 50.3003 156.724 50.3044 156.733 50.3126C156.743 50.3207 156.748 50.3312 156.748 50.344C156.748 50.3549 156.743 50.3642 156.732 50.3719C156.722 50.3792 156.71 50.3829 156.698 50.3829L156.359 50.3808L156.359 50.5538L156.739 50.5534C156.753 50.5534 156.765 50.5575 156.775 50.5657C156.785 50.5736 156.79 50.5831 156.79 50.5943C156.79 50.6055 156.785 50.6152 156.775 50.6234C156.765 50.6313 156.753 50.6352 156.739 50.6352L156.309 50.6356C156.295 50.6356 156.283 50.6317 156.273 50.6238C156.264 50.6156 156.259 50.606 156.259 50.5951L156.257 50.0884Z" fill="#BC01FD"/>
<path d="M157.37 50.3538C157.37 50.3024 157.423 50.2595 157.486 50.2595C157.549 50.2595 157.602 50.3024 157.602 50.3538C157.602 50.4052 157.549 50.4481 157.486 50.4481C157.423 50.4481 157.37 50.4052 157.37 50.3538Z" fill="#BC01FD"/>
<path d="M162.706 50.3538C162.706 50.3024 162.759 50.2595 162.822 50.2595C162.885 50.2595 162.938 50.3024 162.938 50.3538C162.938 50.4052 162.885 50.4481 162.822 50.4481C162.759 50.4481 162.706 50.4052 162.706 50.3538Z" fill="#BC01FD"/>
<path d="M158.417 50.0487H158.425C158.485 50.0487 158.538 50.0574 158.584 50.0749C158.63 50.0922 158.668 50.1156 158.698 50.1452C158.729 50.1746 158.752 50.2077 158.768 50.2444C158.783 50.2808 158.791 50.3181 158.791 50.3562C158.791 50.4144 158.775 50.4662 158.744 50.5116C158.712 50.5571 158.665 50.5928 158.603 50.6188C158.541 50.6448 158.465 50.6578 158.374 50.6578H158.35L158.233 50.6569C158.219 50.6567 158.207 50.6523 158.197 50.6438C158.187 50.6353 158.182 50.6252 158.182 50.6133L158.186 50.0936C158.186 50.0823 158.191 50.0725 158.201 50.0643C158.21 50.0559 158.222 50.0515 158.236 50.0512L158.417 50.0487ZM158.7 50.3537C158.7 50.3011 158.686 50.2588 158.659 50.2266C158.632 50.1944 158.594 50.1709 158.545 50.1563C158.496 50.1413 158.438 50.1338 158.372 50.1338C158.358 50.1338 158.344 50.134 158.33 50.1342C158.316 50.1345 158.302 50.1349 158.288 50.1355L158.285 50.5714L158.351 50.5722C158.42 50.5722 158.481 50.5654 158.533 50.5519C158.585 50.5381 158.626 50.5152 158.656 50.4833C158.685 50.4514 158.7 50.4082 158.7 50.3537Z" fill="#BC01FD"/>
<path d="M158.978 50.6616C158.964 50.6616 158.952 50.6575 158.941 50.6493C158.931 50.6408 158.926 50.6308 158.926 50.6192L158.926 50.0893C158.926 50.0786 158.931 50.0689 158.94 50.0601C158.95 50.0514 158.961 50.047 158.975 50.047C158.991 50.047 159.003 50.0511 159.013 50.0593C159.024 50.0672 159.029 50.0772 159.029 50.0893L159.029 50.6192C159.029 50.6308 159.024 50.6408 159.014 50.6493C159.004 50.6575 158.992 50.6616 158.978 50.6616Z" fill="#BC01FD"/>
<path d="M159.141 50.3613C159.141 50.3198 159.15 50.2798 159.168 50.2414C159.186 50.203 159.212 50.1688 159.245 50.1389C159.278 50.1087 159.317 50.0848 159.363 50.0673C159.409 50.0498 159.46 50.041 159.515 50.041C159.567 50.041 159.613 50.0468 159.654 50.0584C159.696 50.07 159.735 50.0864 159.772 50.1076C159.787 50.1157 159.794 50.127 159.794 50.1414C159.794 50.1527 159.789 50.1626 159.778 50.1711C159.769 50.1793 159.757 50.1834 159.742 50.1834C159.731 50.1834 159.721 50.1807 159.712 50.1753C159.685 50.1604 159.655 50.1485 159.621 50.1397C159.588 50.1307 159.553 50.1262 159.518 50.1262C159.478 50.1262 159.441 50.1325 159.407 50.1452C159.374 50.1577 159.345 50.1749 159.32 50.1969C159.296 50.2187 159.277 50.2435 159.263 50.2715C159.25 50.2994 159.243 50.3288 159.243 50.3596C159.243 50.4017 159.254 50.4391 159.277 50.4718C159.299 50.5046 159.331 50.5303 159.371 50.5489C159.411 50.5676 159.458 50.5769 159.512 50.5769C159.541 50.5769 159.571 50.5745 159.599 50.5697C159.629 50.5649 159.655 50.5594 159.679 50.5532L159.678 50.4087H159.521C159.507 50.4087 159.494 50.4046 159.484 50.3964C159.474 50.388 159.469 50.3779 159.469 50.3664C159.469 50.3548 159.474 50.3449 159.484 50.3367C159.494 50.3282 159.507 50.324 159.521 50.324H159.729C159.743 50.324 159.755 50.3281 159.765 50.3363C159.775 50.3445 159.781 50.3544 159.781 50.3659L159.783 50.5824C159.783 50.5903 159.78 50.5983 159.773 50.6057C159.767 50.613 159.759 50.6181 159.75 50.6209C159.717 50.6317 159.681 50.6413 159.641 50.6497C159.601 50.6579 159.559 50.662 159.515 50.662C159.443 50.662 159.379 50.6492 159.322 50.6235C159.266 50.5978 159.222 50.5623 159.19 50.5172C159.157 50.472 159.141 50.42 159.141 50.3613Z" fill="#BC01FD"/>
<path d="M159.968 50.6616C159.954 50.6616 159.941 50.6575 159.931 50.6493C159.921 50.6408 159.916 50.6308 159.916 50.6192L159.916 50.0893C159.916 50.0786 159.92 50.0689 159.93 50.0601C159.94 50.0514 159.951 50.047 159.965 50.047C159.98 50.047 159.993 50.0511 160.003 50.0593C160.013 50.0672 160.019 50.0772 160.019 50.0893L160.019 50.6192C160.019 50.6308 160.014 50.6408 160.004 50.6493C159.994 50.6575 159.982 50.6616 159.968 50.6616Z" fill="#BC01FD"/>
<path d="M160.116 50.0936C160.116 50.082 160.121 50.0721 160.13 50.0639C160.141 50.0554 160.153 50.0512 160.167 50.0512L160.682 50.0487H160.683C160.697 50.0487 160.709 50.0529 160.719 50.0614C160.729 50.0696 160.734 50.0795 160.734 50.091C160.734 50.1026 160.729 50.1126 160.719 50.1211C160.709 50.1293 160.697 50.1334 160.683 50.1334L160.477 50.1342L160.475 50.6205C160.475 50.6318 160.47 50.642 160.459 50.6502C160.449 50.6584 160.437 50.6624 160.423 50.6624C160.409 50.6624 160.397 50.6584 160.387 50.6502C160.377 50.642 160.372 50.6322 160.372 50.6209V50.6201L160.374 50.1347L160.168 50.1359C160.153 50.1359 160.141 50.1318 160.13 50.1236C160.121 50.1152 160.116 50.1052 160.116 50.0936Z" fill="#BC01FD"/>
<path d="M161.092 50.0665C161.095 50.0594 161.102 50.0535 161.111 50.0487C161.12 50.0436 161.129 50.041 161.139 50.041C161.148 50.041 161.157 50.0436 161.167 50.0487C161.176 50.0535 161.183 50.0594 161.186 50.0665L161.469 50.607C161.472 50.6126 161.474 50.6184 161.474 50.6243C161.474 50.6359 161.469 50.6459 161.459 50.6544C161.449 50.6626 161.437 50.6667 161.423 50.6667C161.413 50.6667 161.404 50.6641 161.394 50.6591C161.385 50.654 161.378 50.6479 161.375 50.6408L161.287 50.4727L160.993 50.4693L160.903 50.6413C160.9 50.6483 160.893 50.6544 160.884 50.6595C160.875 50.6648 160.865 50.6675 160.856 50.6675C160.842 50.6675 160.83 50.6634 160.819 50.6552C160.809 50.6468 160.804 50.6367 160.804 50.6252C160.804 50.6192 160.806 50.6135 160.809 50.6078L161.092 50.0665ZM161.139 50.1906L161.038 50.385L161.242 50.3871L161.139 50.1906Z" fill="#BC01FD"/>
<path d="M161.633 50.6608C161.619 50.6608 161.607 50.6567 161.596 50.6485C161.586 50.64 161.581 50.6301 161.581 50.6188L161.58 50.0813C161.58 50.07 161.585 50.06 161.595 50.0521C161.605 50.0439 161.617 50.0398 161.631 50.0398C161.645 50.0398 161.657 50.0439 161.667 50.0521C161.678 50.06 161.683 50.0696 161.683 50.0809L161.684 50.576L162.074 50.5752C162.088 50.5752 162.1 50.5794 162.11 50.5879C162.121 50.5961 162.126 50.606 162.126 50.6175C162.126 50.6291 162.121 50.6391 162.11 50.6476C162.1 50.6558 162.088 50.6599 162.074 50.6599L161.633 50.6608Z" fill="#BC01FD"/>
<path d="M163.569 50.6389C163.555 50.6389 163.543 50.6349 163.533 50.627C163.523 50.6189 163.519 50.6092 163.519 50.598L163.518 50.0864C163.518 50.076 163.523 50.0666 163.532 50.0582C163.542 50.0497 163.553 50.0455 163.566 50.0455C163.581 50.0455 163.594 50.0495 163.604 50.0574C163.614 50.065 163.619 50.0747 163.619 50.0864L163.619 50.598C163.619 50.6092 163.614 50.6189 163.604 50.627C163.594 50.6349 163.583 50.6389 163.569 50.6389Z" fill="#BC01FD"/>
<path d="M163.739 50.0884C163.739 50.077 163.744 50.0676 163.754 50.0602C163.764 50.0526 163.777 50.0488 163.791 50.0488C163.807 50.0488 163.819 50.054 163.83 50.0643L164.21 50.4835V50.0897C164.21 50.0788 164.215 50.0695 164.224 50.0619C164.235 50.054 164.246 50.05 164.26 50.05C164.274 50.05 164.286 50.054 164.295 50.0619C164.306 50.0695 164.311 50.0788 164.311 50.0897L164.31 50.6025C164.31 50.614 164.305 50.6235 164.294 50.6311C164.284 50.6385 164.272 50.6422 164.258 50.6422C164.242 50.6422 164.229 50.6367 164.219 50.6258L163.84 50.207V50.6021C163.84 50.613 163.835 50.6224 163.825 50.6303C163.815 50.6379 163.803 50.6418 163.789 50.6418C163.776 50.6418 163.764 50.6379 163.754 50.6303C163.744 50.6224 163.739 50.613 163.739 50.6021V50.0884Z" fill="#BC01FD"/>
<path d="M164.418 50.0884C164.418 50.077 164.423 50.0676 164.433 50.0602C164.443 50.0526 164.455 50.0488 164.469 50.0488C164.485 50.0488 164.498 50.054 164.508 50.0643L164.888 50.4835V50.0897C164.888 50.0788 164.893 50.0695 164.903 50.0619C164.913 50.054 164.925 50.05 164.939 50.05C164.953 50.05 164.964 50.054 164.974 50.0619C164.984 50.0695 164.989 50.0788 164.989 50.0897L164.989 50.6025C164.989 50.614 164.983 50.6235 164.973 50.6311C164.963 50.6385 164.951 50.6422 164.937 50.6422C164.921 50.6422 164.908 50.6367 164.898 50.6258L164.518 50.207V50.6021C164.518 50.613 164.513 50.6224 164.503 50.6303C164.493 50.6379 164.482 50.6418 164.468 50.6418C164.454 50.6418 164.442 50.6379 164.432 50.6303C164.422 50.6224 164.418 50.613 164.418 50.6021V50.0884Z" fill="#BC01FD"/>
<path d="M165.436 50.0414C165.488 50.0414 165.535 50.0496 165.578 50.066C165.621 50.082 165.659 50.1043 165.69 50.1326C165.722 50.1607 165.747 50.1931 165.765 50.2299C165.782 50.2665 165.791 50.3053 165.791 50.3465C165.791 50.3877 165.782 50.4264 165.765 50.4626C165.747 50.4986 165.723 50.5304 165.691 50.5579C165.66 50.5855 165.622 50.607 165.579 50.6225C165.536 50.6381 165.489 50.6459 165.437 50.6459C165.384 50.6459 165.335 50.6381 165.292 50.6225C165.249 50.6067 165.212 50.5851 165.18 50.5575C165.149 50.5297 165.126 50.4977 165.109 50.4614C165.092 50.4249 165.084 50.3858 165.084 50.344C165.084 50.3034 165.092 50.265 165.11 50.2287C165.128 50.1925 165.152 50.1603 165.184 50.1322C165.216 50.1038 165.253 50.0816 165.296 50.0655C165.339 50.0495 165.385 50.0414 165.436 50.0414ZM165.438 50.1244C165.388 50.1244 165.344 50.1349 165.306 50.1559C165.268 50.1769 165.238 50.2047 165.217 50.2393C165.195 50.2737 165.184 50.3113 165.184 50.3522C165.184 50.38 165.191 50.4066 165.204 50.432C165.217 50.4573 165.235 50.48 165.258 50.4999C165.282 50.5195 165.308 50.535 165.338 50.5465C165.369 50.5577 165.402 50.5632 165.436 50.5632C165.471 50.5632 165.503 50.5574 165.534 50.5457C165.565 50.5339 165.592 50.5181 165.615 50.4982C165.639 50.4783 165.658 50.456 165.671 50.4312C165.685 50.4061 165.691 50.3804 165.691 50.3543C165.691 50.312 165.68 50.2736 165.657 50.2389C165.635 50.204 165.604 50.1762 165.566 50.1555C165.528 50.1348 165.485 50.1244 165.438 50.1244Z" fill="#BC01FD"/>
<path d="M165.859 50.0868C165.859 50.0773 165.864 50.0685 165.874 50.0606C165.884 50.0527 165.895 50.0488 165.907 50.0488C165.931 50.0488 165.948 50.057 165.956 50.0733L166.199 50.5223L166.418 50.0688C166.427 50.0516 166.443 50.043 166.468 50.043C166.48 50.043 166.491 50.047 166.501 50.0549C166.511 50.0625 166.516 50.0713 166.516 50.0811C166.516 50.0887 166.515 50.095 166.512 50.0999L166.249 50.6414C166.246 50.6482 166.24 50.6542 166.231 50.6593C166.223 50.6648 166.213 50.6675 166.202 50.6675C166.181 50.6675 166.166 50.6593 166.157 50.643L165.864 50.1068C165.861 50.1019 165.859 50.0953 165.859 50.0868Z" fill="#BC01FD"/>
<path d="M166.866 50.0643C166.87 50.0575 166.876 50.0518 166.885 50.0471C166.894 50.0422 166.903 50.0398 166.912 50.0398C166.921 50.0398 166.93 50.0422 166.939 50.0471C166.949 50.0518 166.955 50.0575 166.959 50.0643L167.236 50.5861C167.239 50.5916 167.24 50.5972 167.24 50.6029C167.24 50.6141 167.235 50.6238 167.225 50.6319C167.215 50.6399 167.204 50.6438 167.19 50.6438C167.18 50.6438 167.171 50.6414 167.162 50.6364C167.153 50.6315 167.147 50.6257 167.143 50.6189L167.057 50.4565L166.77 50.4532L166.682 50.6193C166.678 50.6261 166.672 50.6319 166.663 50.6369C166.654 50.642 166.645 50.6446 166.635 50.6446C166.622 50.6446 166.61 50.6407 166.6 50.6328C166.59 50.6246 166.585 50.6149 166.585 50.6037C166.585 50.598 166.586 50.5924 166.589 50.587L166.866 50.0643ZM166.912 50.1841L166.813 50.3719L167.013 50.3739L166.912 50.1841Z" fill="#BC01FD"/>
<path d="M167.308 50.0905C167.308 50.0793 167.313 50.0698 167.323 50.0619C167.333 50.0537 167.345 50.0496 167.359 50.0496L167.862 50.0471H167.863C167.877 50.0471 167.889 50.0512 167.899 50.0594C167.909 50.0673 167.914 50.0769 167.914 50.088C167.914 50.0992 167.909 50.1089 167.899 50.1171C167.889 50.125 167.877 50.1289 167.863 50.1289L167.662 50.1297L167.66 50.5992C167.66 50.6101 167.655 50.62 167.645 50.6279C167.635 50.6358 167.623 50.6397 167.61 50.6397C167.596 50.6397 167.584 50.6358 167.574 50.6279C167.564 50.62 167.559 50.6105 167.559 50.5996L167.562 50.1302L167.359 50.1314C167.345 50.1314 167.333 50.1274 167.323 50.1195C167.313 50.1113 167.308 50.1017 167.308 50.0905Z" fill="#BC01FD"/>
<path d="M168.059 50.6389C168.045 50.6389 168.033 50.6349 168.023 50.627C168.013 50.6189 168.008 50.6092 168.008 50.598L168.008 50.0864C168.008 50.076 168.012 50.0666 168.022 50.0582C168.031 50.0497 168.042 50.0455 168.055 50.0455C168.071 50.0455 168.084 50.0495 168.093 50.0574C168.103 50.065 168.108 50.0747 168.108 50.0864L168.109 50.598C168.109 50.6092 168.104 50.6189 168.094 50.627C168.084 50.6349 168.072 50.6389 168.059 50.6389Z" fill="#BC01FD"/>
<path d="M168.568 50.0414C168.62 50.0414 168.667 50.0496 168.71 50.066C168.753 50.082 168.791 50.1043 168.823 50.1326C168.855 50.1607 168.879 50.1931 168.897 50.2299C168.914 50.2665 168.923 50.3053 168.923 50.3465C168.923 50.3877 168.914 50.4264 168.897 50.4626C168.88 50.4986 168.855 50.5304 168.824 50.5579C168.792 50.5855 168.755 50.607 168.711 50.6225C168.668 50.6381 168.621 50.6459 168.569 50.6459C168.516 50.6459 168.468 50.6381 168.424 50.6225C168.381 50.6067 168.344 50.5851 168.313 50.5575C168.282 50.5297 168.258 50.4977 168.241 50.4614C168.224 50.4249 168.216 50.3858 168.216 50.344C168.216 50.3034 168.225 50.265 168.242 50.2287C168.26 50.1925 168.285 50.1603 168.316 50.1322C168.348 50.1038 168.385 50.0816 168.428 50.0655C168.471 50.0495 168.518 50.0414 168.568 50.0414ZM168.57 50.1244C168.521 50.1244 168.477 50.1349 168.438 50.1559C168.401 50.1769 168.371 50.2047 168.349 50.2393C168.327 50.2737 168.317 50.3113 168.317 50.3522C168.317 50.38 168.323 50.4066 168.336 50.432C168.349 50.4573 168.367 50.48 168.391 50.4999C168.414 50.5195 168.441 50.535 168.471 50.5465C168.501 50.5577 168.534 50.5632 168.568 50.5632C168.603 50.5632 168.636 50.5574 168.666 50.5457C168.697 50.5339 168.724 50.5181 168.748 50.4982C168.772 50.4783 168.79 50.456 168.804 50.4312C168.817 50.4061 168.824 50.3804 168.824 50.3543C168.824 50.312 168.812 50.2736 168.79 50.2389C168.767 50.204 168.737 50.1762 168.698 50.1555C168.66 50.1348 168.617 50.1244 168.57 50.1244Z" fill="#BC01FD"/>
<path d="M169.017 50.0884C169.017 50.077 169.022 50.0676 169.032 50.0602C169.042 50.0526 169.055 50.0488 169.069 50.0488C169.085 50.0488 169.097 50.054 169.108 50.0643L169.488 50.4835V50.0897C169.488 50.0788 169.493 50.0695 169.502 50.0619C169.512 50.054 169.524 50.05 169.538 50.05C169.552 50.05 169.564 50.054 169.573 50.0619C169.583 50.0695 169.589 50.0788 169.589 50.0897L169.588 50.6025C169.588 50.614 169.583 50.6235 169.572 50.6311C169.562 50.6385 169.55 50.6422 169.536 50.6422C169.52 50.6422 169.507 50.6367 169.497 50.6258L169.118 50.207V50.6021C169.118 50.613 169.113 50.6224 169.103 50.6303C169.093 50.6379 169.081 50.6418 169.067 50.6418C169.053 50.6418 169.042 50.6379 169.031 50.6303C169.022 50.6224 169.017 50.613 169.017 50.6021V50.0884Z" fill="#BC01FD"/>
<path d="M150.673 49.9432H146.547C146.487 49.9432 146.439 49.8941 146.439 49.8337C146.439 49.7733 146.487 49.7242 146.547 49.7242H150.487L148.366 45.9741L148.291 46.1004C148.262 46.1528 148.196 46.1708 148.145 46.1406C148.094 46.1105 148.076 46.0436 148.105 45.9912L148.273 45.7004C148.292 45.6665 148.328 45.6456 148.366 45.6455C148.404 45.6455 148.44 45.6664 148.459 45.7002L150.766 49.779C150.785 49.8128 150.785 49.8546 150.766 49.8884C150.746 49.9223 150.711 49.9432 150.673 49.9432Z" fill="#BC01FD"/>
<path d="M145.576 49.9432H145.245C145.206 49.9432 145.171 49.9223 145.152 49.8884C145.133 49.8546 145.133 49.8128 145.152 49.779L147.459 45.7002C147.478 45.6664 147.513 45.6455 147.551 45.6455C147.59 45.6455 147.625 45.6664 147.644 45.7002L149.702 49.3379C149.745 49.4207 149.724 49.465 149.672 49.4952C149.633 49.5187 149.566 49.5224 149.506 49.4275L147.551 45.9739L145.43 49.7242H145.576C145.635 49.7242 145.683 49.7733 145.683 49.8337C145.683 49.8941 145.635 49.9432 145.576 49.9432Z" fill="#BC01FD"/>
<path d="M150.266 50.6675H145.652C145.614 50.6675 145.578 50.6466 145.559 50.6127C145.54 50.5788 145.54 50.5371 145.559 50.5032L147.621 46.8577C147.651 46.8054 147.716 46.7874 147.767 46.8176C147.819 46.8478 147.836 46.9148 147.807 46.9672L145.838 50.4485H150.08L150.018 50.3229C149.988 50.2705 150.006 50.2035 150.057 50.1734C150.109 50.1433 150.174 50.1613 150.204 50.2137L150.359 50.5035C150.378 50.5373 150.378 50.5791 150.358 50.6129C150.339 50.6467 150.304 50.6675 150.266 50.6675Z" fill="#BC01FD"/>
</svg>
