<svg width="132" height="144" viewBox="0 0 132 144" fill="none" xmlns="http://www.w3.org/2000/svg">
<path d="M17.8728 98.3816C19.2613 96.3207 22.0588 95.7757 24.1199 97.1638L57.6902 119.779C55.2462 121.587 53.4025 124.159 52.5125 127.143L19.0906 104.628C17.0302 103.239 16.4847 100.442 17.8728 98.3816ZM125.894 58.7058C128.266 57.9645 130.79 59.2871 131.532 61.6589C132.273 64.0309 130.951 66.5544 128.579 67.2956L107.44 73.9011L77.3269 122.459C75.4558 120.069 72.8363 118.294 69.8211 117.486L100.676 67.7341L101.558 66.3103L103.158 65.8113L125.894 58.7058Z" fill="black"/>
<circle cx="65.6579" cy="129.79" r="9.21053" stroke="black" stroke-width="10"/>
<path d="M43.8801 1.94067C44.3853 0.893007 45.6744 0.495696 46.6817 1.07724L109.416 37.2969C110.42 37.8763 110.722 39.1848 110.075 40.146L62.4552 110.863C61.8681 111.735 60.7065 112.004 59.7962 111.478L7.64049 81.3659C6.7338 80.8425 6.38426 79.7083 6.83896 78.7653L43.8801 1.94067Z" fill="url(#paint0_linear_403_1208)"/>
<path d="M67.8402 30.3854C68.0096 30.4234 68.3337 30.5052 68.5616 30.5673C68.7894 30.6293 69.0981 30.7187 69.2489 30.7675C69.401 30.8189 69.7341 30.9441 69.9908 31.0478C70.2494 31.1522 70.5792 31.2934 70.728 31.3607C70.8762 31.4299 71.0873 31.5289 71.199 31.5857C71.3112 31.6407 71.5229 31.7505 71.6737 31.8312C71.8232 31.9093 72.1459 32.0971 72.3922 32.2441C72.6359 32.3924 72.9817 32.6135 73.1593 32.7352C73.337 32.8569 73.5788 33.0365 73.7013 33.131C73.8231 33.2275 74.0251 33.3979 74.1521 33.511C74.279 33.6241 74.4342 33.7681 74.4951 33.8291C74.5553 33.892 74.688 34.0326 74.7861 34.1423C74.8841 34.252 75.0328 34.4278 75.1148 34.5343C75.1968 34.6407 75.3256 34.8183 75.3999 34.9285C75.4742 35.0388 75.6343 35.3269 75.7527 35.567C75.873 35.8077 76.0035 36.1072 76.045 36.2319C76.0866 36.3566 76.1402 36.5343 76.1638 36.6232C76.1855 36.7114 76.2231 36.8922 76.2434 37.0225C76.2638 37.1528 76.2885 37.3719 76.2959 37.5085C76.3034 37.6451 76.3017 37.8787 76.2938 38.0292C76.2858 38.1798 76.2598 38.4285 76.2351 38.5841C76.2105 38.7396 76.1574 38.9984 76.1173 39.1615C76.0708 39.3437 75.9894 39.6036 75.8998 39.8436C75.8211 40.0576 75.7031 40.3434 75.6381 40.4789C75.573 40.6144 75.4583 40.8396 75.3836 40.9782C75.3089 41.1169 75.1235 41.4374 74.9715 41.6904C74.8196 41.9435 74.5054 42.461 74.273 42.8379C74.0406 43.2149 73.6581 43.8328 73.4232 44.2111C73.1882 44.5893 72.7665 45.2599 72.4878 45.7043C72.2071 46.148 71.7024 46.9438 71.3644 47.4745C71.0271 48.0034 70.4606 48.8805 70.1078 49.4233C69.7551 49.9661 69.2272 50.7733 68.9331 51.2188C68.6389 51.6643 68.115 52.4536 67.7693 52.9754C67.4217 53.4965 66.9345 54.2216 66.6879 54.5896C66.4395 54.9569 66.0166 55.5803 65.7482 55.9749C65.4779 56.3689 64.9591 57.1238 64.5948 57.6499C64.2305 58.176 63.6423 59.016 63.2883 59.5179C62.9343 60.0199 62.4079 60.7594 62.1183 61.166C61.8268 61.572 61.3595 62.2187 61.0777 62.6024C60.7958 62.9861 60.3569 63.5807 60.1002 63.9217C59.8434 64.2628 59.4612 64.7659 59.2508 65.0396C59.0404 65.3133 58.6987 65.7534 58.4915 66.0176C58.2824 66.2812 57.9401 66.7104 57.7291 66.9733L57.6497 67.071C57.4496 67.3174 57.2134 67.6082 57.0934 67.7568C56.8753 68.0216 56.8322 68.0666 56.7724 68.0784C56.7326 68.0883 56.6202 68.0972 56.5188 68.0991C56.4173 68.101 56.2376 68.0935 56.1175 68.0807C55.9974 68.0678 55.7875 68.0352 55.6489 68.0075C55.4717 67.9732 55.1964 67.893 54.7112 67.7355C54.3088 67.606 53.8718 67.4521 53.6562 67.3665C53.4547 67.2835 53.1673 67.163 53.0184 67.0957C52.8702 67.0265 52.6257 66.912 52.4737 66.8351C52.3229 66.7608 52.0426 66.6129 51.8546 66.509C51.6666 66.4051 51.3966 66.2458 51.2548 66.1574C51.1137 66.0672 50.8667 65.8965 50.7071 65.7788C50.548 65.6591 50.305 65.4642 50.1671 65.3453C50.0312 65.227 49.8292 65.0375 49.7183 64.9277C49.6074 64.8178 49.4453 64.6439 49.3549 64.5431C49.2645 64.4424 49.0973 64.239 48.9819 64.0915C48.8666 63.944 48.7218 63.744 48.6597 63.6485C48.5975 63.5531 48.4951 63.361 48.4298 63.224C48.3665 63.0877 48.2834 62.8574 48.2432 62.7161C48.2049 62.5755 48.1616 62.3544 48.1451 62.2254C48.1305 62.097 48.1193 61.9017 48.1182 61.7906C48.119 61.6802 48.1335 61.4787 48.151 61.3441C48.1686 61.2096 48.2049 61.0005 48.2301 60.8813C48.2624 60.7411 48.3328 60.5137 48.4347 60.2374C48.5224 60.0031 48.6829 59.604 48.7932 59.3475C48.9027 59.0929 49.0909 58.6627 49.2121 58.3929C49.3332 58.123 49.5736 57.6019 49.7456 57.2322C49.9177 56.8625 50.2482 56.1696 50.4782 55.6918C50.7102 55.2146 51.1096 54.4002 51.3673 53.8849C51.6249 53.3696 52.0211 52.584 52.2485 52.1393C52.474 51.694 52.8398 50.9854 53.0601 50.5617C53.2785 50.1374 53.607 49.5077 53.7912 49.1591C53.9728 48.8118 54.347 48.1039 54.6221 47.5881C54.8952 47.0716 55.3524 46.2193 55.6365 45.6959C55.9186 45.1718 56.4151 44.2604 56.7378 43.6734L56.7823 43.5924C57.1036 43.0078 57.5569 42.183 57.8165 41.7178C58.0863 41.23 58.5384 40.4249 58.8178 39.9276C59.0973 39.4303 59.4444 38.8154 59.5906 38.5604C59.7348 38.3047 60.1946 37.5022 60.6112 36.7767C61.0279 36.0512 61.6673 34.9454 62.0311 34.3191C62.3968 33.6934 62.9312 32.7778 63.2223 32.2844C63.5133 31.791 63.9286 31.0884 64.1462 30.7235C64.3619 30.3579 64.5538 30.0438 64.5705 30.0261C64.5918 30.0013 64.6772 29.9961 64.9359 30.0047C65.1221 30.0123 65.4373 30.0315 65.6383 30.0461C65.8386 30.0627 66.1885 30.1 66.4145 30.1295C66.6404 30.159 66.9845 30.2135 67.1784 30.2491C67.3722 30.2848 67.6707 30.3473 67.8402 30.3854Z" fill="black"/>
<path d="M45.747 69.7439C45.8833 69.7706 46.1116 69.824 46.2548 69.8616C46.3979 69.8991 46.6878 69.9949 46.9001 70.0709C47.1117 70.1488 47.412 70.2696 47.5674 70.3394C47.7229 70.4091 47.96 70.5237 48.0927 70.5922C48.2254 70.6607 48.4485 70.7856 48.5893 70.8676C48.7301 70.9497 48.9681 71.099 49.1201 71.1978C49.2714 71.2984 49.5161 71.4716 49.6635 71.5839C49.8109 71.6961 50.0341 71.8771 50.1587 71.9882C50.284 72.0973 50.4856 72.2861 50.6063 72.4087C50.727 72.5314 50.9038 72.7247 50.9981 72.8385C51.093 72.9503 51.2234 73.1128 51.287 73.1989C51.3512 73.2831 51.4533 73.4297 51.5149 73.5216C51.5765 73.6135 51.6822 73.7807 51.7481 73.8913C51.8132 74.0038 51.9328 74.2295 52.0108 74.3916C52.0887 74.5537 52.1985 74.8085 52.2525 74.9539C52.306 75.1012 52.3844 75.3303 52.4234 75.4642C52.4625 75.598 52.5213 75.8291 52.5539 75.9759C52.5864 76.1226 52.6336 76.3756 52.6565 76.5385C52.6794 76.7014 52.7095 76.9616 52.721 77.1207C52.7326 77.2797 52.7422 77.5631 52.7395 77.7519C52.7387 77.9413 52.7263 78.2086 52.7153 78.3472C52.7025 78.485 52.68 78.6951 52.6629 78.8143C52.6457 78.9335 52.61 79.1391 52.582 79.2719C52.5559 79.4053 52.4891 79.678 52.4338 79.8792C52.3627 80.1332 52.2896 80.3498 52.1921 80.5949C52.1141 80.7884 52.0019 81.0458 51.9418 81.1677C51.8835 81.2903 51.7873 81.4754 51.7286 81.5806C51.6699 81.6858 51.5122 81.9472 51.3764 82.1621C51.2406 82.377 51.0414 82.6739 50.9329 82.8205C50.8226 82.9664 50.6552 83.1814 50.5572 83.297C50.4592 83.4126 50.2678 83.6238 50.1272 83.766C49.9884 83.9088 49.7673 84.1207 49.6339 84.2351C49.5005 84.3496 49.3008 84.5106 49.1912 84.5921C49.0815 84.6736 48.8923 84.8036 48.7732 84.8819C48.6541 84.9602 48.4129 85.1008 48.2361 85.1941C48.0593 85.2874 47.805 85.4105 47.6704 85.4663C47.5351 85.5241 47.3179 85.6059 47.1865 85.6521C47.0551 85.6982 46.8387 85.7652 46.7036 85.8036C46.5685 85.842 46.3283 85.8988 46.166 85.9302C46.0032 85.9636 45.7453 86.0037 45.5883 86.0196C45.4307 86.0375 45.1889 86.055 45.0485 86.0593C44.9081 86.0636 44.6773 86.0611 44.5338 86.0557C44.3903 86.0503 44.1648 86.0324 44.0315 86.0154C43.8976 86.0003 43.695 85.9707 43.5801 85.9491C43.4147 85.9213 43.1859 85.8505 42.4734 85.6098C41.7797 85.3755 41.5283 85.2842 41.368 85.2042C41.2541 85.1485 41.0447 85.039 40.9027 84.9608C40.7606 84.8827 40.4741 84.7083 40.265 84.5731C40.0559 84.4378 39.7703 84.2422 39.6329 84.1376C39.4937 84.0324 39.2674 83.8482 39.1283 83.7301C38.9899 83.6101 38.7626 83.3976 38.6244 83.2582C38.4861 83.1189 38.2868 82.8985 38.1788 82.7694C38.0701 82.6422 37.9217 82.452 37.8476 82.3472C37.7728 82.2444 37.6521 82.0657 37.5812 81.9512C37.5097 81.8387 37.3881 81.6252 37.3087 81.4799C37.2294 81.3345 37.115 81.0933 37.054 80.9434C36.993 80.7935 36.91 80.578 36.8708 80.4635C36.8315 80.3489 36.7694 80.134 36.7293 79.9846C36.691 79.836 36.6397 79.6139 36.6151 79.4935C36.5923 79.3738 36.5544 79.1433 36.5352 78.9816C36.5142 78.8194 36.4908 78.5895 36.4833 78.4684C36.4738 78.3467 36.4698 78.0781 36.472 77.872C36.4761 77.6665 36.4954 77.3476 36.5151 77.1646C36.5367 76.9822 36.5709 76.7373 36.5937 76.62C36.6165 76.5027 36.6566 76.3029 36.6864 76.1772C36.7143 76.0508 36.8101 75.7298 36.9003 75.4628C36.9898 75.1978 37.1129 74.8708 37.1712 74.7354C37.2315 74.6006 37.3389 74.3761 37.41 74.2341C37.4811 74.0922 37.6308 73.8173 37.7404 73.6237C37.8519 73.4308 38.0192 73.1597 38.1124 73.021C38.205 72.8841 38.3616 72.6698 38.4603 72.5458C38.5584 72.4238 38.6929 72.2623 38.7576 72.1893C38.8223 72.1163 38.9502 71.9807 39.0429 71.887C39.1356 71.7933 39.273 71.6608 39.349 71.5917C39.4231 71.5219 39.605 71.3699 39.7517 71.2535C39.8965 71.1365 40.1387 70.9618 40.2877 70.8635C40.4368 70.7651 40.6672 70.6253 40.8021 70.5501C40.9363 70.4769 41.1627 70.3616 41.3076 70.2941C41.4525 70.2267 41.6844 70.1261 41.8241 70.0742C41.9637 70.0222 42.2132 69.9384 42.3806 69.8915C42.5481 69.8446 42.777 69.784 42.8886 69.7591C43.0001 69.7343 43.1972 69.6996 43.3258 69.6805C43.4543 69.6614 43.6608 69.6363 43.7867 69.625C43.912 69.6156 44.143 69.6052 44.2992 69.6041C44.4554 69.603 44.6949 69.6106 44.8308 69.6198C44.966 69.631 45.1719 69.651 45.2888 69.6668C45.4056 69.6825 45.6107 69.7173 45.747 69.7439Z" fill="#EF811A"/>
<defs>
<linearGradient id="paint0_linear_403_1208" x1="78.0439" y1="19.1842" x2="33.5175" y2="96.3061" gradientUnits="userSpaceOnUse">
<stop stop-color="#EBFB6B"/>
<stop offset="1" stop-color="#C8E000"/>
</linearGradient>
</defs>
</svg>
