<svg width="549" height="146" viewBox="0 0 549 146" fill="none" xmlns="http://www.w3.org/2000/svg">
<path d="M191.61 127.11C188.67 128.837 184.89 129.7 180.27 129.7C175.65 129.7 171.753 128.137 168.58 125.01C165.407 121.837 163.82 117.473 163.82 111.92C163.82 106.32 165.337 101.817 168.37 98.41C171.45 95.0033 175.323 93.3 179.99 93.3C184.657 93.3 188.25 94.49 190.77 96.87C193.337 99.25 194.62 102.143 194.62 105.55C194.62 113.11 190.28 116.89 181.6 116.89H176.77C176.77 118.29 177.143 119.27 177.89 119.83C178.683 120.343 179.827 120.6 181.32 120.6C184.587 120.6 187.69 119.853 190.63 118.36C190.677 118.313 190.887 118.64 191.26 119.34C192.38 121.347 192.94 123.05 192.94 124.45C192.94 125.803 192.497 126.69 191.61 127.11ZM182.86 106.88C182.86 104.92 181.903 103.94 179.99 103.94C179.103 103.94 178.333 104.22 177.68 104.78C177.073 105.293 176.77 106.063 176.77 107.09V109.26H180.55C182.09 109.26 182.86 108.467 182.86 106.88ZM213.823 128.58C213.823 128.907 212.143 129.07 208.783 129.07C204.116 128.93 201.783 128.673 201.783 128.3V105.62H199.963C198.75 105.62 197.956 104.593 197.583 102.54C197.49 101.933 197.443 101.327 197.443 100.72C197.443 99.2733 197.723 97.8267 198.283 96.38C199.123 94.3267 200.43 93.3 202.203 93.3C203.976 93.3 205.563 93.72 206.963 94.56C208.363 95.4 209.296 96.24 209.763 97.08C212.703 94.56 216.203 93.3 220.263 93.3C224.323 93.3 227.263 94.3967 229.083 96.59C230.903 98.7833 231.813 102.377 231.813 107.37V128.37C231.813 128.93 229.806 129.21 225.793 129.21C221.826 129.21 219.843 128.93 219.843 128.37V108.14C219.843 105.807 219.026 104.64 217.393 104.64C216.926 104.64 216.273 104.85 215.433 105.27C214.593 105.643 214.056 105.923 213.823 106.11V128.58ZM253.848 128.58C253.848 129.14 251.888 129.42 247.968 129.42C243.301 129.233 240.968 128.93 240.968 128.51V103.73H237.398C236.464 103.73 235.998 102.12 235.998 98.9C235.998 98.06 236.068 97.0333 236.208 95.82C236.394 94.6067 236.744 94 237.258 94H240.968V87.84C240.968 86.9067 242.928 86.44 246.848 86.44C250.814 86.44 252.798 86.8133 252.798 87.56V92.04L252.868 94H258.818C259.611 94 260.008 95.6333 260.008 98.9C260.008 102.167 259.611 103.8 258.818 103.8H253.848V128.58ZM268.069 90.29C267.182 90.0567 266.342 89.2633 265.549 87.91C264.802 86.5567 264.429 85.67 264.429 85.25C264.429 84.83 264.499 84.55 264.639 84.41C267.579 81.47 270.612 80 273.739 80C275.186 80 276.819 80.4433 278.639 81.33C280.459 82.17 281.859 82.59 282.839 82.59C284.566 82.5433 286.176 81.6333 287.669 79.86C287.762 79.8133 287.879 79.79 288.019 79.79C288.579 79.79 289.349 80.4433 290.329 81.75C291.309 83.0567 291.799 83.9433 291.799 84.41C291.799 85.7633 290.702 87.1867 288.509 88.68C287.016 89.7067 285.592 90.22 284.239 90.22C284.052 90.22 283.889 90.22 283.749 90.22C281.976 90.22 280.016 89.7533 277.869 88.82C275.722 87.8867 274.392 87.42 273.879 87.42C273.412 87.42 273.016 87.4667 272.689 87.56C272.362 87.6533 272.059 87.7467 271.779 87.84C271.546 87.8867 271.242 88.0267 270.869 88.26C270.542 88.4933 270.286 88.68 270.099 88.82C269.912 88.9133 269.586 89.1467 269.119 89.52C268.652 89.8933 268.302 90.15 268.069 90.29ZM267.929 103.59C266.622 101.257 265.969 99.3667 265.969 97.92C265.969 96.4267 266.366 95.47 267.159 95.05C269.819 93.8833 273.459 93.3 278.079 93.3C282.746 93.3 286.036 94.3967 287.949 96.59C289.862 98.7367 290.819 101.933 290.819 106.18V117.24H293.199C293.992 117.24 294.599 117.707 295.019 118.64C295.486 119.573 295.719 120.857 295.719 122.49C295.719 124.123 295.299 125.733 294.459 127.32C293.666 128.907 292.569 129.7 291.169 129.7C288.649 129.7 286.619 129.023 285.079 127.67C284.379 127.11 283.842 126.433 283.469 125.64C281.322 128.347 277.986 129.7 273.459 129.7C270.052 129.7 267.182 128.487 264.849 126.06C262.516 123.633 261.349 120.763 261.349 117.45C261.349 109.843 265.899 106.04 274.999 106.04H278.849V105.34C278.849 104.127 278.639 103.357 278.219 103.03C277.846 102.657 276.936 102.47 275.489 102.47C273.716 102.47 271.196 102.843 267.929 103.59ZM273.529 116.47C273.529 117.497 273.809 118.29 274.369 118.85C274.929 119.363 275.629 119.62 276.469 119.62C277.356 119.62 278.149 119.27 278.849 118.57V113.18H276.889C274.649 113.18 273.529 114.277 273.529 116.47ZM302.691 124.87C299.798 121.65 298.351 117.193 298.351 111.5C298.351 105.807 299.798 101.35 302.691 98.13C305.631 94.91 309.575 93.3 314.521 93.3C319.468 93.3 323.388 94.91 326.281 98.13C329.175 101.35 330.621 105.807 330.621 111.5C330.621 117.193 329.175 121.65 326.281 124.87C323.388 128.09 319.468 129.7 314.521 129.7C309.575 129.7 305.631 128.09 302.691 124.87ZM314.521 104.99C311.908 104.99 310.601 107.137 310.601 111.43C310.601 115.723 311.908 117.87 314.521 117.87C317.181 117.87 318.511 115.723 318.511 111.43C318.511 107.137 317.181 104.99 314.521 104.99ZM363.813 141.74C363.813 142.067 361.807 142.23 357.793 142.23C353.827 142.23 351.843 142.067 351.843 141.74V105.69H349.463C348.343 105.69 347.573 104.663 347.153 102.61C347.013 101.957 346.943 101.117 346.943 100.09C346.943 99.0633 347.27 97.85 347.923 96.45C348.857 94.3967 350.35 93.37 352.403 93.37C353.757 93.37 354.993 93.6967 356.113 94.35C357.28 94.9567 358.073 95.54 358.493 96.1C358.96 96.6133 359.193 96.9167 359.193 97.01C362.32 94.5833 365.703 93.37 369.343 93.37C372.983 93.37 376.11 94.7933 378.723 97.64C381.337 100.44 382.643 104.803 382.643 110.73C382.643 116.61 381.337 121.183 378.723 124.45C376.11 127.67 372.797 129.28 368.783 129.28C366.963 129.28 365.307 129.187 363.813 129V141.74ZM366.683 105.62C365.89 105.62 365.12 105.877 364.373 106.39V118.78C365.167 118.873 365.797 118.92 366.263 118.92C366.777 118.92 367.173 118.92 367.453 118.92C369.367 118.733 370.323 116.283 370.323 111.57C370.323 107.603 369.11 105.62 366.683 105.62ZM402.921 128.93C402.921 129.257 400.798 129.42 396.551 129.42C392.305 129.327 390.181 129.14 390.181 128.86V105.62H388.291C387.545 105.62 386.938 105.177 386.471 104.29C386.051 103.357 385.841 102.213 385.841 100.86C385.841 95.82 387.335 93.3 390.321 93.3C392.421 93.3 394.171 93.9533 395.571 95.26C396.971 96.52 397.671 97.9667 397.671 99.6C398.651 97.6867 399.958 96.17 401.591 95.05C403.271 93.8833 404.975 93.3 406.701 93.3C409.408 93.3 411.041 94 411.601 95.4C411.741 95.7733 411.811 96.3333 411.811 97.08C411.811 97.78 411.578 99.0633 411.111 100.93C410.691 102.797 410.248 104.15 409.781 104.99C409.315 105.83 409.035 106.25 408.941 106.25C408.848 106.25 408.405 106.087 407.611 105.76C406.865 105.387 406.188 105.2 405.581 105.2C403.808 105.2 402.921 106.6 402.921 109.4V128.93ZM418.355 124.87C415.462 121.65 414.015 117.193 414.015 111.5C414.015 105.807 415.462 101.35 418.355 98.13C421.295 94.91 425.239 93.3 430.185 93.3C435.132 93.3 439.052 94.91 441.945 98.13C444.839 101.35 446.285 105.807 446.285 111.5C446.285 117.193 444.839 121.65 441.945 124.87C439.052 128.09 435.132 129.7 430.185 129.7C425.239 129.7 421.295 128.09 418.355 124.87ZM430.185 104.99C427.572 104.99 426.265 107.137 426.265 111.43C426.265 115.723 427.572 117.87 430.185 117.87C432.845 117.87 434.175 115.723 434.175 111.43C434.175 107.137 432.845 104.99 430.185 104.99ZM465.864 128.58C465.864 128.907 464.184 129.07 460.824 129.07C456.157 128.93 453.824 128.673 453.824 128.3V105.62H452.004C450.791 105.62 449.997 104.593 449.624 102.54C449.531 101.933 449.484 101.327 449.484 100.72C449.484 99.2733 449.764 97.8267 450.324 96.38C451.164 94.3267 452.471 93.3 454.244 93.3C456.017 93.3 457.604 93.72 459.004 94.56C460.404 95.4 461.337 96.24 461.804 97.08C464.744 94.56 468.244 93.3 472.304 93.3C476.364 93.3 479.304 94.3967 481.124 96.59C482.944 98.7833 483.854 102.377 483.854 107.37V128.37C483.854 128.93 481.847 129.21 477.834 129.21C473.867 129.21 471.884 128.93 471.884 128.37V108.14C471.884 105.807 471.067 104.64 469.434 104.64C468.967 104.64 468.314 104.85 467.474 105.27C466.634 105.643 466.097 105.923 465.864 106.11V128.58ZM505.889 128.58C505.889 129.14 503.929 129.42 500.009 129.42C495.342 129.233 493.009 128.93 493.009 128.51V103.73H489.439C488.505 103.73 488.039 102.12 488.039 98.9C488.039 98.06 488.109 97.0333 488.249 95.82C488.435 94.6067 488.785 94 489.299 94H493.009V87.84C493.009 86.9067 494.969 86.44 498.889 86.44C502.855 86.44 504.839 86.8133 504.839 87.56V92.04L504.909 94H510.859C511.652 94 512.049 95.6333 512.049 98.9C512.049 102.167 511.652 103.8 510.859 103.8H505.889V128.58ZM518.57 124.87C515.677 121.65 514.23 117.193 514.23 111.5C514.23 105.807 515.677 101.35 518.57 98.13C521.51 94.91 525.453 93.3 530.4 93.3C535.347 93.3 539.267 94.91 542.16 98.13C545.053 101.35 546.5 105.807 546.5 111.5C546.5 117.193 545.053 121.65 542.16 124.87C539.267 128.09 535.347 129.7 530.4 129.7C525.453 129.7 521.51 128.09 518.57 124.87ZM530.4 104.99C527.787 104.99 526.48 107.137 526.48 111.43C526.48 115.723 527.787 117.87 530.4 117.87C533.06 117.87 534.39 115.723 534.39 111.43C534.39 107.137 533.06 104.99 530.4 104.99Z" fill="#BED501"/>
<path d="M179.722 23.6558C182.124 23.6558 184.263 24.2271 186.138 25.3696C188.013 26.5122 189.375 28.021 190.225 29.896C190.327 30.1011 190.378 30.3208 190.378 30.5552C190.378 30.98 190.225 31.3462 189.917 31.6538C189.609 31.9614 189.243 32.1152 188.818 32.1152C188.54 32.1152 188.254 32.0273 187.961 31.8516C187.683 31.6611 187.485 31.4341 187.368 31.1704C186.768 29.8228 185.779 28.7607 184.402 27.9844C183.04 27.1934 181.479 26.7979 179.722 26.7979C178.784 26.7979 177.81 26.915 176.799 27.1494C175.803 27.3691 174.873 27.7061 174.009 28.1602C173.159 28.6143 172.471 29.1929 171.943 29.896C171.416 30.5845 171.152 31.3901 171.152 32.313C171.152 33.3823 171.504 34.2539 172.207 34.9277C172.91 35.5869 173.804 36.1069 174.888 36.4878C175.986 36.854 177.129 37.1396 178.315 37.3447C179.517 37.5352 180.608 37.6963 181.589 37.8281C182.761 37.9893 183.926 38.2383 185.083 38.5752C186.255 38.8975 187.317 39.3589 188.269 39.9595C189.221 40.5454 189.983 41.3071 190.554 42.2446C191.14 43.1821 191.433 44.332 191.433 45.6943C191.433 47.1885 191.074 48.4922 190.356 49.6055C189.639 50.7041 188.694 51.6196 187.522 52.3521C186.365 53.0698 185.098 53.6118 183.721 53.978C182.358 54.3296 181.025 54.5054 179.722 54.5054C177.012 54.5054 174.573 53.8901 172.405 52.6597C170.237 51.4292 168.691 49.752 167.769 47.6279C167.681 47.3936 167.637 47.1812 167.637 46.9907C167.637 46.5659 167.791 46.1997 168.098 45.8921C168.406 45.5845 168.772 45.4307 169.197 45.4307C169.49 45.4307 169.775 45.5259 170.054 45.7163C170.347 45.9067 170.544 46.1338 170.647 46.3975C171.335 47.9648 172.485 49.1953 174.097 50.0889C175.723 50.9824 177.598 51.4292 179.722 51.4292C180.659 51.4292 181.626 51.3193 182.622 51.0996C183.633 50.8652 184.57 50.521 185.435 50.0669C186.299 49.5981 186.995 49.0049 187.522 48.2871C188.064 47.5547 188.335 46.6904 188.335 45.6943C188.335 44.5225 187.954 43.6216 187.192 42.9917C186.445 42.3472 185.522 41.8784 184.424 41.5854C183.325 41.2778 182.241 41.0581 181.172 40.9263C179.736 40.7212 178.25 40.4648 176.711 40.1572C175.188 39.8496 173.767 39.4028 172.449 38.8169C171.13 38.231 170.061 37.418 169.241 36.3779C168.42 35.3232 168.01 33.9609 168.01 32.291C168.01 30.8848 168.362 29.647 169.065 28.5776C169.768 27.4937 170.691 26.5928 171.833 25.875C172.991 25.1426 174.258 24.5933 175.635 24.2271C177.012 23.8462 178.374 23.6558 179.722 23.6558ZM195.379 25.0181C195.379 24.6372 195.554 24.3076 195.906 24.0293C196.257 23.7363 196.587 23.5898 196.895 23.5898C197.407 23.6045 197.839 23.7656 198.191 24.0732C198.543 24.3662 198.718 24.7544 198.718 25.2378V36.9053H216.253V25.2378C216.253 24.7837 216.406 24.3955 216.714 24.0732C217.036 23.751 217.424 23.5898 217.879 23.5898C218.347 23.5898 218.743 23.751 219.065 24.0732C219.387 24.3955 219.548 24.791 219.548 25.2598V52.6816C219.548 53.1357 219.38 53.5239 219.043 53.8462C218.721 54.1685 218.333 54.3296 217.879 54.3296C217.424 54.3296 217.036 54.1685 216.714 53.8462C216.406 53.5239 216.253 53.1357 216.253 52.6816V40.2012H198.718V52.7476C198.718 53.2017 198.557 53.5898 198.235 53.9121C197.927 54.2344 197.546 54.3955 197.092 54.3955C196.638 54.3955 196.235 54.2344 195.884 53.9121C195.547 53.5752 195.379 53.1797 195.379 52.7256V25.0181ZM237.666 23.5459C239.82 23.5459 241.79 23.9414 243.577 24.7324C245.379 25.5234 246.931 26.6294 248.235 28.0503C249.539 29.4712 250.542 31.1265 251.245 33.0161C251.963 34.8911 252.322 36.9199 252.322 39.1025C252.322 42.0176 251.707 44.6396 250.476 46.9688C249.246 49.2832 247.532 51.1143 245.335 52.4619C243.137 53.8096 240.581 54.4834 237.666 54.4834C234.707 54.4834 232.129 53.8169 229.932 52.4839C227.735 51.1362 226.035 49.3052 224.834 46.9907C223.633 44.6763 223.032 42.0469 223.032 39.1025C223.032 36.9639 223.391 34.957 224.109 33.082C224.827 31.1924 225.838 29.5371 227.141 28.1162C228.46 26.6807 230.012 25.5601 231.8 24.7544C233.587 23.9487 235.542 23.5459 237.666 23.5459ZM237.666 26.9077C235.381 26.9077 233.389 27.4424 231.69 28.5117C229.99 29.5664 228.672 31.0166 227.735 32.8623C226.797 34.6934 226.328 36.7734 226.328 39.1025C226.328 40.7139 226.614 42.2446 227.185 43.6948C227.771 45.1304 228.577 46.4121 229.602 47.54C230.642 48.6533 231.843 49.5322 233.206 50.1768C234.583 50.8213 236.07 51.1436 237.666 51.1436C239.248 51.1436 240.728 50.8066 242.105 50.1328C243.496 49.459 244.712 48.5508 245.752 47.4082C246.807 46.2656 247.627 44.9766 248.213 43.541C248.799 42.1055 249.092 40.626 249.092 39.1025C249.092 36.6855 248.587 34.5615 247.576 32.7305C246.58 30.8994 245.217 29.4712 243.489 28.4458C241.775 27.4204 239.834 26.9077 237.666 26.9077ZM257.52 54.3296C257.066 54.3296 256.678 54.1685 256.355 53.8462C256.033 53.5239 255.872 53.1357 255.872 52.6816V52.6597L255.828 25.2598C255.828 24.9668 255.974 24.6226 256.267 24.2271C256.56 23.8315 256.956 23.6265 257.454 23.6118L264.375 23.5679C266.47 23.5679 268.345 23.9048 270 24.5786C271.656 25.2524 272.967 26.2778 273.933 27.6548C274.9 29.0171 275.384 30.7456 275.384 32.8403C275.384 35.2573 274.878 37.2056 273.867 38.6851C272.857 40.1499 271.45 41.2266 269.649 41.915C267.862 42.5889 265.789 42.9624 263.43 43.0356L259.146 43.1235L259.168 52.6597V52.6816C259.168 53.1357 259.007 53.5239 258.684 53.8462C258.362 54.1685 257.974 54.3296 257.52 54.3296ZM272.088 32.8623C272.088 30.709 271.363 29.1782 269.912 28.27C268.462 27.3472 266.565 26.8857 264.221 26.8857H259.124L259.146 39.8276L263.365 39.7397C265.122 39.6958 266.653 39.4688 267.957 39.0586C269.261 38.6484 270.271 37.9526 270.989 36.9712C271.721 35.9751 272.088 34.6055 272.088 32.8623ZM280.559 54.3296C280.105 54.3296 279.717 54.1685 279.395 53.8462C279.073 53.5239 278.912 53.1357 278.912 52.6816V52.6597L278.868 25.2598C278.868 24.9668 279.014 24.6226 279.307 24.2271C279.6 23.8315 279.996 23.6265 280.494 23.6118L287.415 23.5679C289.51 23.5679 291.385 23.9048 293.04 24.5786C294.695 25.2524 296.006 26.2778 296.973 27.6548C297.94 29.0171 298.423 30.7456 298.423 32.8403C298.423 35.2573 297.918 37.2056 296.907 38.6851C295.896 40.1499 294.49 41.2266 292.688 41.915C290.901 42.5889 288.829 42.9624 286.47 43.0356L282.185 43.1235L282.207 52.6597V52.6816C282.207 53.1357 282.046 53.5239 281.724 53.8462C281.402 54.1685 281.014 54.3296 280.559 54.3296ZM295.127 32.8623C295.127 30.709 294.402 29.1782 292.952 28.27C291.502 27.3472 289.605 26.8857 287.261 26.8857H282.163L282.185 39.8276L286.404 39.7397C288.162 39.6958 289.693 39.4688 290.996 39.0586C292.3 38.6484 293.311 37.9526 294.029 36.9712C294.761 35.9751 295.127 34.6055 295.127 32.8623ZM303.577 54.4614C303.123 54.4614 302.735 54.3003 302.413 53.978C302.09 53.6558 301.929 53.2676 301.929 52.8135V52.7915L301.907 25.1938V25.1719C301.907 24.7471 302.061 24.3662 302.369 24.0293C302.691 23.6924 303.05 23.5239 303.445 23.5239C303.987 23.5239 304.412 23.6851 304.72 24.0073C305.042 24.3149 305.203 24.7031 305.203 25.1719V25.1938L305.225 52.7915V52.8135C305.225 53.2676 305.064 53.6558 304.742 53.978C304.419 54.3003 304.031 54.4614 303.577 54.4614ZM309.171 25.1938C309.171 24.7251 309.332 24.3369 309.654 24.0293C309.991 23.707 310.401 23.5459 310.884 23.5459C311.397 23.5459 311.815 23.7656 312.137 24.2051L329.715 47.8477V25.2598C329.715 24.8057 329.876 24.4175 330.198 24.0952C330.521 23.7729 330.909 23.6118 331.363 23.6118C331.817 23.6118 332.205 23.7729 332.527 24.0952C332.85 24.4175 333.011 24.8057 333.011 25.2598V25.2817L332.989 52.7915C332.989 53.2603 332.82 53.6558 332.483 53.978C332.161 54.2856 331.758 54.4395 331.275 54.4395C330.777 54.4395 330.359 54.2197 330.023 53.7803L312.466 30.1597V52.7695C312.466 53.2236 312.305 53.6118 311.983 53.9341C311.661 54.2563 311.273 54.4175 310.818 54.4175C310.364 54.4175 309.976 54.2563 309.654 53.9341C309.332 53.6118 309.171 53.2236 309.171 52.7695V25.1938ZM336.517 39.3442C336.517 37.2056 336.883 35.1841 337.615 33.2798C338.363 31.3755 339.417 29.6909 340.779 28.2261C342.156 26.7612 343.79 25.6113 345.679 24.7764C347.569 23.9268 349.656 23.502 351.942 23.502C354.08 23.502 356.007 23.7876 357.72 24.3589C359.434 24.9302 361.046 25.7578 362.554 26.8418C363.038 27.1641 363.279 27.6182 363.279 28.2041C363.279 28.6582 363.118 29.0464 362.796 29.3687C362.474 29.6909 362.086 29.8521 361.632 29.8521C361.265 29.8521 360.943 29.7495 360.665 29.5444C359.478 28.7095 358.138 28.0503 356.644 27.5669C355.15 27.0688 353.619 26.8198 352.051 26.8198C349.678 26.8198 347.562 27.3838 345.701 28.5117C343.856 29.625 342.405 31.1265 341.351 33.0161C340.296 34.8911 339.769 36.9712 339.769 39.2563C339.769 41.6001 340.274 43.6582 341.285 45.4307C342.31 47.1885 343.724 48.5581 345.526 49.5396C347.327 50.521 349.415 51.0117 351.788 51.0117C353.165 51.0117 354.52 50.8579 355.853 50.5503C357.2 50.228 358.409 49.8765 359.478 49.4956L359.412 41.2559H352.161C351.707 41.2559 351.319 41.0947 350.997 40.7725C350.675 40.4502 350.513 40.062 350.513 39.6079C350.513 39.1538 350.675 38.7656 350.997 38.4434C351.319 38.1211 351.707 37.96 352.161 37.96H361.06C361.514 37.96 361.903 38.1211 362.225 38.4434C362.547 38.751 362.708 39.1318 362.708 39.5859L362.796 50.6162V50.6382C362.796 50.9458 362.694 51.2461 362.488 51.5391C362.298 51.832 362.056 52.0371 361.763 52.1543C360.386 52.7109 358.863 53.2163 357.193 53.6704C355.523 54.1099 353.773 54.3296 351.942 54.3296C348.953 54.3296 346.295 53.707 343.966 52.4619C341.651 51.2021 339.827 49.4517 338.494 47.2104C337.176 44.9546 336.517 42.3325 336.517 39.3442ZM375.301 25.3916C375.301 25.04 375.462 24.7031 375.785 24.3809C376.121 24.0586 376.473 23.8975 376.839 23.8975C377.645 23.8975 378.187 24.2271 378.465 24.8862L389.627 48.7705L399.647 24.6445C399.94 23.9414 400.489 23.5898 401.295 23.5898C401.676 23.5898 402.027 23.751 402.35 24.0732C402.672 24.3809 402.833 24.7178 402.833 25.084C402.833 25.4209 402.796 25.6846 402.723 25.875L391.253 53.6045C391.151 53.8535 390.953 54.0879 390.66 54.3076C390.367 54.542 390.052 54.6592 389.715 54.6592C389.027 54.6592 388.529 54.3296 388.221 53.6704L375.455 26.2266C375.352 26.0215 375.301 25.7432 375.301 25.3916ZM406.91 54.4614C406.456 54.4614 406.068 54.3003 405.746 53.978C405.423 53.6558 405.262 53.2676 405.262 52.8135V52.7915L405.24 25.1938V25.1719C405.24 24.7471 405.394 24.3662 405.702 24.0293C406.024 23.6924 406.383 23.5239 406.778 23.5239C407.32 23.5239 407.745 23.6851 408.053 24.0073C408.375 24.3149 408.536 24.7031 408.536 25.1719V25.1938L408.558 52.7915V52.8135C408.558 53.2676 408.397 53.6558 408.075 53.978C407.752 54.3003 407.364 54.4614 406.91 54.4614ZM435.004 52.9673C435.004 53.3921 434.842 53.7583 434.52 54.0659C434.212 54.3735 433.898 54.5273 433.575 54.5273C433.282 54.5273 433.011 54.4541 432.762 54.3076C432.513 54.1758 432.33 54.0732 432.213 54C430.924 53.0771 429.796 52.0005 428.829 50.77C427.877 49.5396 427.071 48.2139 426.412 46.793C425.797 45.4453 425.145 44.3833 424.457 43.6069C423.783 42.8159 422.97 42.252 422.018 41.915C421.066 41.5635 419.857 41.3804 418.392 41.3657L415.843 41.3438L415.865 52.6157V52.6597C415.865 53.0991 415.697 53.4873 415.36 53.8242C415.038 54.1465 414.657 54.3076 414.217 54.3076C413.763 54.3076 413.375 54.1465 413.053 53.8242C412.731 53.4873 412.569 53.0918 412.569 52.6377L412.504 25.1719C412.504 24.7031 412.665 24.3149 412.987 24.0073C413.309 23.6997 413.69 23.5386 414.129 23.5239L419.974 23.502H420.48C422.955 23.502 425.138 23.8242 427.027 24.4688C428.917 25.1133 430.397 26.1094 431.466 27.457C432.535 28.79 433.07 30.5039 433.07 32.5986C433.07 34.0635 432.762 35.3525 432.147 36.4658C431.532 37.5645 430.726 38.4873 429.73 39.2344C428.734 39.9814 427.657 40.5381 426.5 40.9043C427.159 41.5635 427.811 42.5156 428.456 43.7607C429.305 45.3867 430.148 46.8516 430.983 48.1553C431.817 49.459 432.923 50.6089 434.3 51.605C434.769 51.9419 435.004 52.396 435.004 52.9673ZM420.589 26.7979H415.799L415.843 38.3774C415.917 38.3628 416.012 38.3555 416.129 38.3555L420.633 38.3115C423.329 38.2822 425.533 37.8281 427.247 36.9492C428.961 36.0557 429.818 34.5688 429.818 32.4888C429.818 31.0532 429.4 29.9253 428.566 29.105C427.731 28.27 426.61 27.6768 425.204 27.3252C423.812 26.9736 422.274 26.7979 420.589 26.7979ZM436.51 25.2817C436.51 24.813 436.671 24.4102 436.993 24.0732C437.33 23.7363 437.726 23.5679 438.18 23.5679H460.174C460.629 23.5679 461.017 23.7217 461.339 24.0293C461.661 24.3223 461.822 24.6958 461.822 25.1499C461.822 25.604 461.661 26.0068 461.339 26.3584C461.017 26.6953 460.621 26.8638 460.153 26.8638H450.792V52.7256C450.792 53.1797 450.624 53.5679 450.287 53.8901C449.95 54.2124 449.554 54.3735 449.1 54.3735C448.646 54.3735 448.265 54.2124 447.958 53.8901C447.65 53.5679 447.496 53.1797 447.496 52.7256V26.8638H438.158C437.704 26.8638 437.316 26.7173 436.993 26.4243C436.671 26.1167 436.51 25.7358 436.51 25.2817ZM464.208 25.3916C464.208 24.9668 464.362 24.5859 464.669 24.249C464.992 23.9121 465.35 23.7437 465.746 23.7437C466.903 23.7437 467.489 24.293 467.504 25.3916L467.658 40.311C467.672 42.4937 467.972 44.4126 468.558 46.0679C469.144 47.7231 470.067 49.0122 471.327 49.9351C472.601 50.8579 474.264 51.3193 476.315 51.3193C478.585 51.3193 480.402 50.8579 481.764 49.9351C483.126 49.0122 484.115 47.7451 484.73 46.1338C485.346 44.5225 485.653 42.6914 485.653 40.6406L485.609 25.3696V25.3477C485.609 24.8936 485.763 24.5054 486.071 24.1831C486.393 23.8608 486.781 23.6997 487.235 23.6997C487.689 23.6997 488.077 23.8608 488.4 24.1831C488.737 24.5054 488.905 24.8936 488.905 25.3477V25.3696L488.949 40.6187C488.949 44.9839 487.909 48.4043 485.829 50.8799C483.763 53.3555 480.621 54.5933 476.403 54.5933C473.707 54.5933 471.473 53.9927 469.701 52.7915C467.929 51.5757 466.603 49.8984 465.724 47.7598C464.845 45.6064 464.391 43.1309 464.362 40.333L464.208 25.4136V25.3916ZM492.872 54.5054C492.506 54.5054 492.155 54.3442 491.818 54.022C491.496 53.6997 491.334 53.3628 491.334 53.0112C491.334 52.6597 491.386 52.3813 491.488 52.1763L503.551 24.6006C503.654 24.3809 503.844 24.1611 504.122 23.9414C504.415 23.7217 504.701 23.6118 504.979 23.6118C505.77 23.6118 506.305 23.9414 506.583 24.6006L518.668 52.1323C518.756 52.3228 518.8 52.5352 518.8 52.7695C518.8 53.1797 518.661 53.5679 518.383 53.9341C518.119 54.2856 517.775 54.4614 517.35 54.4614C516.486 54.4614 515.914 54.1245 515.636 53.4507L511.22 43.3652H499.003L494.498 53.4946C494.22 54.1685 493.678 54.5054 492.872 54.5054ZM505.067 29.3906L500.431 40.0693H509.769L505.067 29.3906ZM522.899 53.978C522.445 53.978 522.057 53.8169 521.735 53.4946C521.413 53.1724 521.251 52.7842 521.251 52.3301L521.186 25.3257V25.3037C521.186 24.8496 521.347 24.4614 521.669 24.1392C521.991 23.8169 522.379 23.6558 522.833 23.6558C523.288 23.6558 523.676 23.8169 523.998 24.1392C524.32 24.4614 524.481 24.8496 524.481 25.3037V25.3257L524.547 50.6821H541.752C542.206 50.6821 542.594 50.8433 542.917 51.1655C543.239 51.4878 543.4 51.876 543.4 52.3301C543.4 52.7842 543.239 53.1724 542.917 53.4946C542.594 53.8169 542.206 53.978 541.752 53.978H522.899Z" fill="white"/>
<path d="M17.8734 98.3817C19.262 96.3208 22.0594 95.7755 24.1205 97.1639L57.6898 119.779C55.2463 121.587 53.4032 124.159 52.5131 127.142L19.0912 104.628C17.0304 103.239 16.4852 100.443 17.8734 98.3817ZM125.895 58.7059C128.267 57.9648 130.791 59.2871 131.533 61.659C132.274 64.031 130.951 66.5544 128.579 67.2957L107.441 73.9012L77.3275 122.459C75.4565 120.069 72.8368 118.295 69.8217 117.486L100.676 67.7342L101.559 66.3104L103.159 65.8113L125.895 58.7059Z" fill="white"/>
<circle cx="65.6579" cy="129.79" r="9.21053" stroke="white" stroke-width="10"/>
<path d="M43.8801 1.94067C44.3853 0.893007 45.6744 0.495696 46.6817 1.07724L109.416 37.2969C110.42 37.8763 110.722 39.1848 110.075 40.146L62.4552 110.863C61.8681 111.735 60.7065 112.004 59.7962 111.478L7.64049 81.3659C6.7338 80.8425 6.38426 79.7083 6.83896 78.7653L43.8801 1.94067Z" fill="url(#paint0_linear_403_1209)"/>
<path d="M67.8402 30.3854C68.0096 30.4234 68.3337 30.5052 68.5616 30.5673C68.7894 30.6293 69.0981 30.7187 69.2489 30.7675C69.401 30.8189 69.7341 30.9441 69.9908 31.0478C70.2494 31.1522 70.5792 31.2934 70.728 31.3607C70.8762 31.4299 71.0873 31.5289 71.199 31.5857C71.3112 31.6407 71.5229 31.7505 71.6737 31.8312C71.8232 31.9093 72.1459 32.0971 72.3922 32.2441C72.6359 32.3924 72.9817 32.6135 73.1593 32.7352C73.337 32.8569 73.5788 33.0365 73.7013 33.131C73.8231 33.2275 74.0251 33.3979 74.1521 33.511C74.279 33.6241 74.4342 33.7681 74.4951 33.8291C74.5553 33.892 74.688 34.0326 74.7861 34.1423C74.8841 34.252 75.0328 34.4278 75.1148 34.5343C75.1968 34.6407 75.3256 34.8183 75.3999 34.9285C75.4742 35.0388 75.6343 35.3269 75.7527 35.567C75.873 35.8077 76.0035 36.1072 76.045 36.2319C76.0866 36.3566 76.1402 36.5343 76.1638 36.6232C76.1855 36.7114 76.2231 36.8922 76.2434 37.0225C76.2638 37.1528 76.2885 37.3719 76.2959 37.5085C76.3034 37.6451 76.3017 37.8787 76.2938 38.0292C76.2858 38.1798 76.2598 38.4285 76.2351 38.5841C76.2105 38.7396 76.1574 38.9984 76.1173 39.1615C76.0708 39.3437 75.9894 39.6036 75.8998 39.8436C75.8211 40.0576 75.7031 40.3434 75.6381 40.4789C75.573 40.6144 75.4583 40.8396 75.3836 40.9782C75.3089 41.1169 75.1235 41.4374 74.9715 41.6904C74.8196 41.9435 74.5054 42.461 74.273 42.8379C74.0406 43.2149 73.6581 43.8328 73.4232 44.2111C73.1882 44.5893 72.7665 45.2599 72.4878 45.7043C72.2071 46.148 71.7024 46.9438 71.3644 47.4745C71.0271 48.0034 70.4606 48.8805 70.1078 49.4233C69.7551 49.9661 69.2272 50.7733 68.9331 51.2188C68.6389 51.6643 68.115 52.4536 67.7693 52.9754C67.4217 53.4965 66.9345 54.2216 66.6879 54.5896C66.4395 54.9569 66.0166 55.5803 65.7482 55.9749C65.4779 56.3689 64.9591 57.1238 64.5948 57.6499C64.2305 58.176 63.6423 59.016 63.2883 59.5179C62.9343 60.0199 62.4079 60.7594 62.1183 61.166C61.8268 61.572 61.3595 62.2187 61.0777 62.6024C60.7958 62.9861 60.3569 63.5807 60.1002 63.9217C59.8434 64.2628 59.4612 64.7659 59.2508 65.0396C59.0404 65.3133 58.6987 65.7534 58.4915 66.0176C58.2824 66.2812 57.9401 66.7104 57.7291 66.9733L57.6497 67.071C57.4496 67.3174 57.2134 67.6082 57.0934 67.7568C56.8753 68.0216 56.8322 68.0666 56.7724 68.0784C56.7326 68.0883 56.6202 68.0972 56.5188 68.0991C56.4173 68.101 56.2376 68.0935 56.1175 68.0807C55.9974 68.0678 55.7875 68.0352 55.6489 68.0075C55.4717 67.9732 55.1964 67.893 54.7112 67.7355C54.3088 67.606 53.8718 67.4521 53.6562 67.3665C53.4547 67.2835 53.1673 67.163 53.0184 67.0957C52.8702 67.0265 52.6257 66.912 52.4737 66.8351C52.3229 66.7608 52.0426 66.6129 51.8546 66.509C51.6666 66.4051 51.3966 66.2458 51.2548 66.1574C51.1137 66.0672 50.8667 65.8965 50.7071 65.7788C50.548 65.6591 50.305 65.4642 50.1671 65.3453C50.0312 65.227 49.8292 65.0375 49.7183 64.9277C49.6074 64.8178 49.4453 64.6439 49.3549 64.5431C49.2645 64.4424 49.0973 64.239 48.9819 64.0915C48.8666 63.944 48.7218 63.744 48.6597 63.6485C48.5975 63.5531 48.4951 63.361 48.4298 63.224C48.3665 63.0877 48.2834 62.8574 48.2432 62.7161C48.2049 62.5755 48.1616 62.3544 48.1451 62.2254C48.1305 62.097 48.1193 61.9017 48.1182 61.7906C48.119 61.6802 48.1335 61.4787 48.151 61.3441C48.1686 61.2096 48.2049 61.0005 48.2301 60.8813C48.2624 60.7411 48.3328 60.5137 48.4347 60.2374C48.5224 60.0031 48.6829 59.604 48.7932 59.3475C48.9027 59.0929 49.0909 58.6627 49.2121 58.3929C49.3332 58.123 49.5736 57.6019 49.7456 57.2322C49.9177 56.8625 50.2482 56.1696 50.4782 55.6918C50.7102 55.2146 51.1096 54.4002 51.3673 53.8849C51.6249 53.3696 52.0211 52.584 52.2485 52.1393C52.474 51.694 52.8398 50.9854 53.0601 50.5617C53.2785 50.1374 53.607 49.5077 53.7912 49.1591C53.9728 48.8118 54.347 48.1039 54.6221 47.5881C54.8952 47.0716 55.3524 46.2193 55.6365 45.6959C55.9186 45.1718 56.4151 44.2604 56.7378 43.6734L56.7823 43.5924C57.1036 43.0078 57.5569 42.183 57.8165 41.7178C58.0863 41.23 58.5384 40.4249 58.8178 39.9276C59.0973 39.4303 59.4444 38.8154 59.5906 38.5604C59.7348 38.3047 60.1946 37.5022 60.6112 36.7767C61.0279 36.0512 61.6673 34.9454 62.0311 34.3191C62.3968 33.6934 62.9312 32.7778 63.2223 32.2844C63.5133 31.791 63.9286 31.0884 64.1462 30.7235C64.3619 30.3579 64.5538 30.0438 64.5705 30.0261C64.5918 30.0013 64.6772 29.9961 64.9359 30.0047C65.1221 30.0123 65.4373 30.0315 65.6383 30.0461C65.8386 30.0627 66.1885 30.1 66.4145 30.1295C66.6404 30.159 66.9845 30.2135 67.1784 30.2491C67.3722 30.2848 67.6707 30.3473 67.8402 30.3854Z" fill="black"/>
<path d="M45.747 69.7439C45.8833 69.7706 46.1116 69.824 46.2548 69.8616C46.3979 69.8991 46.6878 69.9949 46.9001 70.0709C47.1117 70.1488 47.412 70.2696 47.5674 70.3394C47.7229 70.4091 47.96 70.5237 48.0927 70.5922C48.2254 70.6607 48.4485 70.7856 48.5893 70.8676C48.7301 70.9497 48.9681 71.099 49.1201 71.1978C49.2714 71.2984 49.5161 71.4716 49.6635 71.5839C49.8109 71.6961 50.0341 71.8771 50.1587 71.9882C50.284 72.0973 50.4856 72.2861 50.6063 72.4087C50.727 72.5314 50.9038 72.7247 50.9981 72.8385C51.093 72.9503 51.2234 73.1128 51.287 73.1989C51.3512 73.2831 51.4533 73.4297 51.5149 73.5216C51.5765 73.6135 51.6822 73.7807 51.7481 73.8913C51.8132 74.0038 51.9328 74.2295 52.0108 74.3916C52.0887 74.5537 52.1985 74.8085 52.2525 74.9539C52.306 75.1012 52.3844 75.3303 52.4234 75.4642C52.4625 75.598 52.5213 75.8291 52.5539 75.9759C52.5864 76.1226 52.6336 76.3756 52.6565 76.5385C52.6794 76.7014 52.7095 76.9616 52.721 77.1207C52.7326 77.2797 52.7422 77.5631 52.7395 77.7519C52.7387 77.9413 52.7263 78.2086 52.7153 78.3472C52.7025 78.485 52.68 78.6951 52.6629 78.8143C52.6457 78.9335 52.61 79.1391 52.582 79.2719C52.5559 79.4053 52.4891 79.678 52.4338 79.8792C52.3627 80.1332 52.2896 80.3498 52.1921 80.5949C52.1141 80.7884 52.0019 81.0458 51.9418 81.1677C51.8835 81.2903 51.7873 81.4754 51.7286 81.5806C51.6699 81.6858 51.5122 81.9472 51.3764 82.1621C51.2406 82.377 51.0414 82.6739 50.9329 82.8205C50.8226 82.9664 50.6552 83.1814 50.5572 83.297C50.4592 83.4126 50.2678 83.6238 50.1272 83.766C49.9884 83.9088 49.7673 84.1207 49.6339 84.2351C49.5005 84.3496 49.3008 84.5106 49.1912 84.5921C49.0815 84.6736 48.8923 84.8036 48.7732 84.8819C48.6541 84.9602 48.4129 85.1008 48.2361 85.1941C48.0593 85.2874 47.805 85.4105 47.6704 85.4663C47.5351 85.5241 47.3179 85.6059 47.1865 85.6521C47.0551 85.6982 46.8387 85.7652 46.7036 85.8036C46.5685 85.842 46.3283 85.8988 46.166 85.9302C46.0032 85.9636 45.7453 86.0037 45.5883 86.0196C45.4307 86.0375 45.1889 86.055 45.0485 86.0593C44.9081 86.0636 44.6773 86.0611 44.5338 86.0557C44.3903 86.0503 44.1648 86.0324 44.0315 86.0154C43.8976 86.0003 43.695 85.9707 43.5801 85.9491C43.4147 85.9213 43.1859 85.8505 42.4734 85.6098C41.7797 85.3755 41.5283 85.2842 41.368 85.2042C41.2541 85.1485 41.0447 85.039 40.9027 84.9608C40.7606 84.8827 40.4741 84.7083 40.265 84.5731C40.0559 84.4378 39.7703 84.2422 39.6329 84.1376C39.4937 84.0324 39.2674 83.8482 39.1283 83.7301C38.9899 83.6101 38.7626 83.3976 38.6244 83.2582C38.4861 83.1189 38.2868 82.8985 38.1788 82.7694C38.0701 82.6422 37.9217 82.452 37.8476 82.3472C37.7728 82.2444 37.6521 82.0657 37.5812 81.9512C37.5097 81.8387 37.3881 81.6252 37.3087 81.4799C37.2294 81.3345 37.115 81.0933 37.054 80.9434C36.993 80.7935 36.91 80.578 36.8708 80.4635C36.8315 80.3489 36.7694 80.134 36.7293 79.9846C36.691 79.836 36.6397 79.6139 36.6151 79.4935C36.5923 79.3738 36.5544 79.1433 36.5352 78.9816C36.5142 78.8194 36.4908 78.5895 36.4833 78.4684C36.4738 78.3467 36.4698 78.0781 36.472 77.872C36.4761 77.6665 36.4954 77.3476 36.5151 77.1646C36.5367 76.9822 36.5709 76.7373 36.5937 76.62C36.6165 76.5027 36.6566 76.3029 36.6864 76.1772C36.7143 76.0508 36.8101 75.7298 36.9003 75.4628C36.9898 75.1978 37.1129 74.8708 37.1712 74.7354C37.2315 74.6006 37.3389 74.3761 37.41 74.2341C37.4811 74.0922 37.6308 73.8173 37.7404 73.6237C37.8519 73.4308 38.0192 73.1597 38.1124 73.021C38.205 72.8841 38.3616 72.6698 38.4603 72.5458C38.5584 72.4238 38.6929 72.2623 38.7576 72.1893C38.8223 72.1163 38.9502 71.9807 39.0429 71.887C39.1356 71.7933 39.273 71.6608 39.349 71.5917C39.4231 71.5219 39.605 71.3699 39.7517 71.2535C39.8965 71.1365 40.1387 70.9618 40.2877 70.8635C40.4368 70.7651 40.6672 70.6253 40.8021 70.5501C40.9363 70.4769 41.1627 70.3616 41.3076 70.2941C41.4525 70.2267 41.6844 70.1261 41.8241 70.0742C41.9637 70.0222 42.2132 69.9384 42.3806 69.8915C42.5481 69.8446 42.777 69.784 42.8886 69.7591C43.0001 69.7343 43.1972 69.6996 43.3258 69.6805C43.4543 69.6614 43.6608 69.6363 43.7867 69.625C43.912 69.6156 44.143 69.6052 44.2992 69.6041C44.4554 69.603 44.6949 69.6106 44.8308 69.6198C44.966 69.631 45.1719 69.651 45.2888 69.6668C45.4056 69.6825 45.6107 69.7173 45.747 69.7439Z" fill="#EF811A"/>
<defs>
<linearGradient id="paint0_linear_403_1209" x1="78.0439" y1="19.1842" x2="33.5175" y2="96.3061" gradientUnits="userSpaceOnUse">
<stop stop-color="#EBFB6B"/>
<stop offset="1" stop-color="#C8E000"/>
</linearGradient>
</defs>
</svg>
