<svg width="800" height="800" viewBox="0 0 800 800" fill="none" xmlns="http://www.w3.org/2000/svg">
<g clip-path="url(#clip0_27_1708)">
<path d="M450.403 44.5752C452.494 44.4899 456.522 44.4311 459.368 44.4427C462.214 44.4544 466.086 44.5317 467.994 44.6294C469.925 44.753 474.192 45.1721 477.503 45.5788C480.839 45.9871 485.119 46.6018 487.061 46.9209C489.003 47.2643 491.768 47.7578 493.245 48.0715C494.724 48.3609 497.531 48.9788 499.537 49.4481C501.521 49.8916 505.863 51.0704 509.189 52.0138C512.489 52.9798 517.203 54.4746 519.651 55.3374C522.098 56.2002 525.473 57.5363 527.194 58.2551C528.913 58.9983 531.796 60.3515 533.626 61.2722C535.457 62.193 537.712 63.3843 538.611 63.9045C539.509 64.449 541.492 65.6716 542.975 66.6432C544.459 67.6148 546.738 69.1973 548.025 70.1806C549.312 71.1639 551.365 72.8294 552.573 73.8807C553.782 74.9321 556.544 77.7874 558.671 80.2125C560.822 82.6391 563.276 85.7181 564.148 87.0402C565.02 88.3622 566.199 90.264 566.751 91.2246C567.279 92.1837 568.28 94.1715 568.924 95.625C569.567 97.0785 570.537 99.5513 571.051 101.118C571.564 102.685 572.273 105.409 572.65 107.186C573.027 108.964 573.499 111.94 573.697 113.828C573.895 115.716 574.085 118.894 574.127 120.917C574.154 123.184 574.018 126.462 573.723 129.536C573.474 132.272 572.992 135.966 572.658 137.747C572.323 139.528 571.69 142.507 571.253 144.354C570.816 146.201 569.657 150.51 568.677 153.929C567.698 157.348 565.655 164.352 564.125 169.466C562.595 174.579 560.071 182.964 558.516 188.1C556.96 193.236 554.143 202.358 552.284 208.4C550.401 214.44 547.008 225.278 544.73 232.51C542.452 239.718 538.594 251.696 536.181 259.114C533.768 266.533 530.141 277.575 528.106 283.679C526.072 289.782 522.434 300.605 520.038 307.756C517.617 314.907 514.207 324.867 512.485 329.919C510.739 334.97 507.761 343.546 505.867 348.976C503.949 354.406 500.265 364.811 497.666 372.072C495.066 379.332 490.839 390.945 488.284 397.892C485.729 404.839 481.907 415.089 479.805 420.726C477.677 426.361 474.256 435.346 472.171 440.692C470.087 446.037 466.833 454.328 464.908 459.099C462.983 463.87 460.103 470.918 458.507 474.761C456.912 478.603 454.307 484.792 452.719 488.514C451.107 492.234 448.461 498.298 446.825 502.016L446.199 503.416C444.64 506.905 442.802 511.018 441.869 513.12C440.156 516.882 439.795 517.541 439.136 517.864C438.704 518.104 437.423 518.558 436.248 518.896C435.073 519.235 432.957 519.709 431.519 519.933C430.082 520.158 427.537 520.433 425.836 520.544C423.667 520.697 420.212 520.622 414.073 520.302C408.985 520.05 403.418 519.62 400.641 519.297C398.037 518.96 394.315 518.453 392.372 518.134C390.431 517.791 387.228 517.221 385.218 516.8C383.231 516.405 379.507 515.558 376.994 514.934C374.482 514.311 370.842 513.299 368.916 512.713C366.992 512.103 363.585 510.887 361.359 510.014C359.134 509.116 355.697 507.606 353.722 506.651C351.77 505.699 348.828 504.122 347.195 503.19C345.561 502.258 343.131 500.738 341.765 499.847C340.399 498.956 337.817 497.111 336.015 495.754C334.212 494.397 331.903 492.52 330.882 491.602C329.861 490.685 328.069 488.768 326.882 487.377C325.72 485.988 324.034 483.567 323.125 482.048C322.241 480.53 321.047 478.092 320.453 476.641C319.883 475.192 319.143 472.954 318.784 471.664C318.449 470.377 317.989 467.985 317.773 466.364C317.558 464.743 317.328 462.196 317.25 460.73C317.189 458.997 317.299 456.131 317.624 452.597C317.914 449.596 318.538 444.449 319.021 441.119C319.502 437.814 320.351 432.219 320.919 428.7C321.488 425.182 322.66 418.365 323.51 413.525C324.36 408.685 326.046 399.588 327.233 393.309C328.445 387.031 330.554 376.306 331.946 369.503C333.339 362.701 335.5 352.32 336.76 346.435C337.995 340.548 340.044 331.158 341.287 325.539C342.505 319.919 344.365 311.564 345.422 306.932C346.453 302.323 348.601 292.915 350.194 286.053C351.762 279.189 354.426 267.841 356.1 260.862C357.749 253.882 360.686 241.724 362.611 233.884L362.876 232.807C364.793 225 367.498 213.981 369.068 207.755C370.688 201.236 373.439 190.454 375.141 183.793C376.844 177.133 378.966 168.892 379.872 165.468C380.754 162.042 383.603 151.267 386.189 141.521C388.776 131.776 392.77 116.91 395.052 108.485C397.357 100.061 400.723 87.7356 402.572 81.0844C404.42 74.4332 407.063 64.9595 408.458 60.0325C409.829 55.104 411.083 50.8498 411.222 50.5909C411.392 50.2365 412.37 49.9094 415.409 49.2029C417.6 48.71 421.329 47.9503 423.714 47.4941C426.098 47.0622 430.287 46.4049 433.009 46.0434C435.732 45.6819 439.907 45.2429 442.275 45.0535C444.642 44.8641 448.312 44.6606 450.403 44.5752Z" fill="currentColor"/>
<path d="M315.99 571.641C317.66 571.525 320.484 571.435 322.268 571.426C324.051 571.417 327.724 571.627 330.432 571.85C333.138 572.097 337.011 572.566 339.038 572.893C341.065 573.22 344.183 573.814 345.941 574.198C347.7 574.582 350.687 575.34 352.581 575.856C354.475 576.371 357.712 577.368 359.789 578.043C361.864 578.743 365.253 579.995 367.319 580.843C369.385 581.69 372.547 583.1 374.345 584.004C376.143 584.884 379.079 586.452 380.866 587.504C382.654 588.555 385.316 590.254 386.768 591.284C388.221 592.289 390.246 593.775 391.255 594.579C392.265 595.359 393.911 596.746 394.915 597.624C395.919 598.502 397.67 600.118 398.782 601.2C399.891 602.307 401.988 604.561 403.4 606.205C404.813 607.849 406.885 610.472 407.968 611.996C409.05 613.544 410.678 615.966 411.549 617.403C412.421 618.839 413.827 621.346 414.664 622.953C415.5 624.56 416.839 627.357 417.614 629.182C418.388 631.007 419.55 633.942 420.18 635.757C420.811 637.573 421.806 640.842 422.364 643.047C422.946 645.254 423.635 648.405 423.94 650.052C424.22 651.697 424.613 654.213 424.786 655.654C424.958 657.095 425.184 659.6 425.272 661.233C425.384 662.867 425.457 666.25 425.44 668.764C425.406 671.942 425.23 674.692 424.859 677.849C424.555 680.345 424.052 683.691 423.732 685.298C423.436 686.906 422.894 689.362 422.539 690.769C422.184 692.176 421.162 695.711 420.253 698.636C419.343 701.561 417.949 705.639 417.144 707.683C416.315 709.726 415.037 712.751 414.257 714.402C413.476 716.054 411.908 719.109 410.714 721.203C409.544 723.298 407.631 726.455 406.435 728.203C405.239 729.951 403.417 732.448 402.395 733.738C401.373 735.029 399.576 737.133 398.434 738.416C397.291 739.699 394.922 742.087 393.155 743.725C391.388 745.362 388.812 747.589 387.419 748.659C386.024 749.753 383.751 751.383 382.365 752.33C380.98 753.277 378.67 754.732 377.217 755.6C375.764 756.469 373.145 757.879 371.354 758.751C369.562 759.647 366.686 760.918 364.908 761.593C363.129 762.293 360.369 763.251 358.748 763.739C357.127 764.227 354.433 764.917 352.746 765.303C351.059 765.688 348.377 766.182 346.773 766.4C345.167 766.642 342.716 766.929 341.311 767.037C339.3 767.228 336.416 767.118 327.37 766.539C318.564 765.976 315.354 765.696 313.237 765.265C311.738 764.972 308.959 764.35 307.062 763.883C305.164 763.417 301.286 762.281 298.43 761.359C295.574 760.436 291.639 759.05 289.714 758.261C287.765 757.471 284.556 756.033 282.569 755.092C280.583 754.126 277.275 752.361 275.231 751.17C273.187 749.979 270.179 748.036 268.519 746.87C266.858 745.728 264.537 743.977 263.347 742.988C262.156 742.024 260.193 740.321 259.011 739.21C257.828 738.123 255.746 736.017 254.369 734.573C252.992 733.129 250.908 730.678 249.731 729.123C248.554 727.568 246.915 725.318 246.101 724.107C245.287 722.896 243.893 720.588 242.96 718.975C242.051 717.364 240.761 714.939 240.099 713.614C239.461 712.291 238.3 709.727 237.573 707.905C236.823 706.082 235.833 703.479 235.367 702.093C234.878 700.705 233.993 697.591 233.376 695.185C232.783 692.78 232.013 689.007 231.671 686.816C231.353 684.626 230.988 681.668 230.888 680.232C230.787 678.795 230.63 676.344 230.586 674.788C230.517 673.23 230.63 669.194 230.847 665.805C231.062 662.441 231.475 658.251 231.732 656.492C232.013 654.735 232.563 651.786 232.948 649.913C233.333 648.039 234.218 644.372 234.89 641.777C235.586 639.183 236.689 635.506 237.341 633.6C237.991 631.718 239.146 628.735 239.908 626.984C240.669 625.257 241.732 622.958 242.257 621.907C242.782 620.855 243.848 618.877 244.635 617.497C245.422 616.118 246.608 614.147 247.277 613.105C247.922 612.061 249.565 609.725 250.91 607.913C252.231 606.099 254.505 603.31 255.933 601.7C257.361 600.09 259.607 597.744 260.943 596.449C262.277 595.178 264.552 593.129 266.029 591.892C267.505 590.655 269.891 588.761 271.355 587.721C272.819 586.68 275.461 584.926 277.264 583.858C279.067 582.79 281.543 581.37 282.764 580.733C283.985 580.096 286.17 579.077 287.608 578.454C289.045 577.831 291.369 576.895 292.8 576.37C294.23 575.87 296.885 575.029 298.7 574.529C300.515 574.028 303.328 573.37 304.938 573.054C306.547 572.762 309.006 572.352 310.415 572.171C311.824 571.99 314.32 571.756 315.99 571.641Z" fill="currentColor"/>
</g>
<defs>
<clipPath id="clip0_27_1708">
<rect width="800" height="800" fill="currentColor"/>
</clipPath>
</defs>
</svg>
