<svg width="800" height="800" viewBox="0 0 800 800" fill="none" xmlns="http://www.w3.org/2000/svg">
<path d="M719.505 324.014L683 543L646.495 324.014C645.62 318.719 645.908 313.297 647.339 308.124C648.77 302.951 651.311 298.152 654.784 294.059C658.258 289.966 662.581 286.678 667.453 284.423C672.326 282.168 677.631 281 683 281C688.369 281 693.674 282.168 698.547 284.423C703.419 286.678 707.742 289.966 711.216 294.059C714.689 298.152 717.23 302.951 718.661 308.124C720.092 313.297 720.38 318.719 719.505 324.014Z" fill="white"/>
<path d="M683.5 733C699.792 733 713 719.792 713 703.5C713 687.208 699.792 674 683.5 674C667.208 674 654 687.208 654 703.5C654 719.792 667.208 733 683.5 733Z" fill="white"/>
<path d="M430.157 49.0088C462.391 49.0088 493.368 53.2358 523.087 61.6906C552.806 70.1454 580.696 81.9141 606.758 96.9955C632.819 112.077 656.595 130.473 678.085 152.181C680.243 154.361 682.367 156.563 684.461 158.782C680.104 158.349 675.719 158.128 671.322 158.128C656.564 158.128 641.941 160.589 628.048 165.375C624.803 162.644 621.479 159.959 618.075 157.322C615.56 158.236 612.473 159.494 608.815 161.093C605.158 162.693 601.499 164.75 597.842 167.263C594.184 169.777 591.327 172.519 589.269 175.49C587.212 178.46 585.955 181.545 585.498 184.744L586.704 188.566C581.158 193.149 575.978 198.185 571.226 203.634L570.417 204.571C566.482 205.57 562.48 206.161 558.408 206.338C553.15 206.566 547.662 206.566 541.947 206.338C536.232 206.109 530.745 207.138 525.487 209.424L520 197.769L525.145 177.888L519.314 169.32L578.639 150.81C576.125 144.412 572.009 139.613 566.294 136.414C560.579 133.215 554.292 131.615 547.434 131.615V128.187L566.636 125.103C545.376 114.592 523.315 106.593 500.454 101.109C477.593 95.6246 454.161 92.8822 430.157 92.8822C410.268 92.8822 390.607 94.8256 371.175 98.7101C351.743 102.595 332.996 108.193 314.935 115.505C296.875 122.818 279.387 131.959 262.47 142.927C245.553 153.896 230.121 166.234 216.176 179.945C222.12 179.945 226.692 181.431 229.893 184.402C233.093 187.372 236.066 190.686 238.809 194.342C241.552 197.997 244.41 201.311 247.381 204.281C250.353 207.252 254.354 208.851 259.383 209.08L264.87 204.967L264.184 197.426L275.501 181.316L266.585 155.951C267.728 155.265 269.443 154.124 271.728 152.525C274.014 150.925 275.958 150.125 277.559 150.125C284.417 150.125 289.674 150.468 293.332 151.154C296.989 151.839 300.19 153.095 302.934 154.923C305.677 156.751 308.078 159.379 310.136 162.806C312.193 166.234 315.393 170.576 319.736 175.832L332.082 166.234C334.368 167.148 338.026 168.634 343.055 170.691C348.085 172.748 353.228 175.261 358.486 178.232C363.744 181.203 368.203 184.287 371.861 187.486C375.518 190.685 377.461 193.656 377.69 196.398C377.69 199.826 376.433 202.568 373.918 204.625C371.404 206.681 368.088 208.394 363.973 209.766C359.858 211.137 355.629 212.166 351.285 212.851C346.942 213.537 342.598 214.451 338.254 215.593C333.911 216.736 330.596 217.877 328.31 219.02C326.024 220.162 324.652 222.105 324.195 224.848L344.083 231.359C339.511 235.244 334.596 238.787 329.338 241.986C324.08 245.185 318.593 248.155 312.878 250.897L314.249 256.725L282.702 269.065V278.662L280.301 279.69L282.016 267.693L280.644 267.35C279.044 267.35 278.129 267.693 277.901 268.379C277.672 269.064 277.559 269.864 277.559 270.778C277.559 271.692 277.787 272.606 278.245 273.52C278.702 274.434 278.815 275.119 278.587 275.576L274.129 273.178L274.815 274.549C274.816 275.234 275.158 276.263 275.843 277.633C276.529 279.004 277.444 280.26 278.587 281.403C279.73 282.545 280.644 283.688 281.33 284.831C282.016 285.973 282.473 286.545 282.702 286.545C282.702 287.231 282.245 287.916 281.33 288.602C280.416 289.287 279.273 289.744 277.901 289.973C276.529 290.201 275.615 290.544 275.157 291C274.7 291.457 274.7 291.572 275.157 291.344C278.358 291.344 279.044 291.573 277.215 292.03C275.386 292.487 272.529 293.629 268.643 295.457C264.756 297.285 261.212 299.913 258.011 303.34C254.811 306.768 252.982 311.796 252.524 318.422C252.524 322.307 252.639 326.077 252.868 329.733C253.097 333.389 252.982 337.161 252.524 341.045C249.324 332.362 244.524 325.735 238.123 321.165C231.722 316.594 223.949 314.309 214.804 314.309L200.059 315.68L207.26 320.479C203.374 320.022 199.373 319.565 195.258 319.108C191.143 318.651 186.914 318.536 182.571 318.764C178.227 318.993 174.34 319.907 170.911 321.506C167.482 323.106 164.053 325.506 160.623 328.706L158.566 344.13C158.566 351.442 160.166 357.384 163.367 361.954C166.567 366.524 172.168 368.923 180.169 369.151C187.028 369.151 193.772 368.124 200.401 366.067C207.031 364.01 213.546 361.61 219.947 358.868C217.89 363.895 215.605 368.694 213.09 373.264C210.576 377.835 208.747 382.862 207.604 388.347L212.061 390.403C217.547 386.747 222.577 386.175 227.149 388.688C231.722 391.202 236.179 394.859 240.523 399.657C244.866 404.456 249.324 409.369 253.896 414.396C258.468 419.423 263.385 423.079 268.643 425.364L256.983 431.534L229.549 416.11C229.778 416.567 230.006 417.595 230.235 419.195C230.464 420.794 230.35 421.137 229.893 420.224L217.548 399.315C210.232 399.087 202.459 397.944 194.229 395.888C185.999 393.831 177.654 391.089 169.196 387.661C160.737 384.233 152.85 380.462 145.535 376.349C138.22 372.236 131.475 367.895 125.303 363.325L122.902 400.001C122.902 427.879 126.675 455.071 134.219 481.578C141.763 508.085 152.394 532.993 166.11 556.301C179.827 579.609 196.629 600.86 216.518 620.055C236.407 639.25 258.469 655.589 282.702 669.071C281.559 664.272 281.444 659.473 282.358 654.674C283.273 649.876 284.416 645.076 285.787 640.278C287.159 635.479 288.646 630.681 290.246 625.883C291.846 621.084 292.646 616.17 292.646 611.143C292.646 603.831 291.503 596.176 289.217 588.178C286.931 580.18 284.187 572.068 280.986 563.842C277.786 555.615 274.243 547.503 270.357 539.506C266.47 531.508 263.384 523.966 261.098 516.883C258.812 509.799 256.983 503.173 255.611 497.003C254.24 490.834 254.926 485.462 257.669 480.892L252.524 478.494C253.896 475.295 255.725 472.21 258.011 469.239C260.297 466.269 262.699 463.298 265.213 460.327C267.728 457.357 269.671 454.157 271.042 450.73C272.414 447.302 273.215 443.874 273.444 440.446C273.444 438.162 272.986 435.762 272.072 433.249C271.157 430.735 270.356 428.335 269.671 426.05L276.873 427.765C280.759 418.853 286.016 412.796 292.646 409.597C299.275 406.398 307.62 404.685 317.679 404.456C318.822 404.456 321.223 404.913 324.881 405.827C328.081 406.627 331.457 407.688 335.008 409.013L338.073 410.181C341.623 411.505 344.998 412.568 348.198 413.368C351.856 414.282 354.6 415.196 356.428 416.11C356.429 417.71 357.343 418.737 359.172 419.195C361.001 419.652 362.03 420.452 362.259 421.595L361.573 424.337C362.259 424.566 363.86 425.365 366.374 426.736C368.889 428.107 371.631 429.822 374.603 431.878C377.575 433.935 380.205 435.763 382.491 437.362C384.777 438.962 386.377 440.218 387.292 441.132C391.407 441.132 397.008 442.503 404.094 445.245C411.181 447.987 418.955 451.415 427.413 455.529C435.872 459.642 444.216 464.554 452.446 470.267C460.676 475.98 468.448 481.693 475.763 487.406C483.079 493.118 488.681 498.83 492.568 504.543C496.454 510.255 498.74 515.283 499.426 519.625L487.767 531.965C488.681 543.619 487.88 552.531 485.365 558.701C482.851 564.87 478.964 570.012 473.706 574.125C468.448 578.238 462.39 581.666 455.532 584.408C448.673 587.15 441.243 591.035 433.242 596.062C433.242 600.632 432.099 605.545 429.813 610.801C427.527 616.056 424.67 621.084 421.241 625.883C417.811 630.681 413.696 634.68 408.895 637.879C404.094 641.078 399.293 642.678 394.492 642.678L380.09 631.709C380.547 632.166 380.547 632.966 380.09 634.108C379.632 635.25 379.062 635.479 378.376 634.793C380.662 639.135 381.233 644.163 380.09 649.875C378.946 655.588 377.004 661.415 374.261 667.356C371.517 673.297 368.432 678.897 365.002 684.153C361.573 689.408 358.486 693.864 355.743 697.52C368.088 700.719 380.434 703.118 392.779 704.718C405.123 706.317 417.583 707.118 430.157 707.118C456.218 707.118 481.708 703.803 506.627 697.177C527.615 691.595 547.63 684.067 566.673 674.595C556.342 690.972 549.753 709.942 548.104 730.309C540.056 733.223 531.832 735.892 523.429 738.309C493.253 746.993 462.162 751.22 430.157 750.991C397.923 750.991 366.945 746.764 337.226 738.309C307.507 729.855 279.616 718.086 253.554 703.005C227.492 687.923 203.716 669.527 182.227 647.819C160.738 626.111 142.449 602.46 127.361 576.867C112.272 551.274 100.383 523.395 91.6962 493.232C83.0091 463.069 78.7802 431.992 79.0088 400.001C79.0088 367.781 83.2378 336.818 91.6962 307.112C100.155 277.405 111.929 249.526 127.017 223.476C142.105 197.426 160.509 173.661 182.227 152.181C203.945 130.701 227.606 112.421 253.21 97.339C278.815 82.2574 306.706 70.374 336.882 61.6906C367.059 53.0072 398.151 48.7803 430.157 49.0088ZM544.551 251.323C544.299 252.129 544.053 252.937 543.817 253.749L543.324 255.486C538.186 274.052 537.153 293.514 540.295 312.52C540.302 312.558 540.308 312.598 540.315 312.636L554.803 399.557C551.433 398.197 548.061 396.632 544.691 394.858C540.347 392.573 536.46 390.06 533.031 387.317C529.602 384.575 527.888 381.948 527.888 379.434L528.574 378.405C527.431 377.034 525.944 375.778 524.115 374.636C522.286 373.493 520.572 372.35 518.972 371.208C517.372 370.065 515.885 368.809 514.513 367.438C513.142 366.067 512.571 364.467 512.799 362.639L516.571 359.554L508.684 358.526L505.941 348.243C506.398 349.385 507.426 349.842 509.026 349.614C510.627 349.385 511.885 348.928 512.799 348.243L500.454 341.731L509.026 319.793C505.826 307.911 505.026 298.77 506.627 292.372C508.227 285.974 511.313 280.719 515.885 276.606C520.457 272.492 525.487 268.379 530.974 264.266C535.424 260.929 539.949 256.614 544.551 251.323ZM295.389 367.095C304.762 367.095 313.335 368.694 321.108 371.893C317.907 373.036 314.706 373.95 311.506 374.636C308.306 375.321 304.991 375.778 301.562 376.007C296.99 376.007 292.874 375.55 289.217 374.636C290.36 372.808 291.503 371.665 292.646 371.208C293.789 370.751 294.703 369.38 295.389 367.095ZM249.095 351.671C252.067 351.671 255.383 352.128 259.041 353.042C262.698 353.956 266.357 355.212 270.014 356.811C273.672 358.411 277.329 359.897 280.986 361.268C284.644 362.639 287.96 364.01 290.932 365.381L285.445 366.067C283.616 366.296 281.672 366.409 279.615 366.409C275.729 366.409 272.185 365.838 268.985 364.696C265.784 363.553 262.812 362.067 260.069 360.239C257.326 358.411 254.582 357.04 251.839 356.126C249.096 355.212 246.581 354.526 244.296 354.069C242.01 354.069 239.952 354.526 238.123 355.44C236.294 356.354 234.465 357.384 232.636 358.526C232.636 357.612 231.835 357.155 230.235 357.155C231.835 355.555 234.807 354.298 239.151 353.384C243.494 352.47 246.809 351.899 249.095 351.671ZM702.686 261.204C703.223 261.771 703.745 262.355 704.252 262.952C704.505 263.251 704.755 263.552 705 263.857C704.755 263.552 704.504 263.251 704.25 262.952C703.744 262.355 703.221 261.773 702.685 261.205L701.87 260.366C702.146 260.641 702.418 260.92 702.686 261.204ZM547.825 242.05C547.535 242.785 547.252 243.523 546.974 244.264L546.748 243.357L547.825 242.05Z" fill="white"/>
</svg>
