<svg width="800" height="800" viewBox="0 0 800 800" fill="none" xmlns="http://www.w3.org/2000/svg">
<path d="M676.166 355.371C693.364 408.377 694.973 465.209 680.802 519.103C666.631 572.998 637.275 621.687 596.229 659.378C555.182 697.069 504.172 722.176 449.268 731.711C394.363 741.246 337.875 734.808 286.524 713.162C235.173 691.517 191.12 655.576 159.608 609.615C128.095 563.654 110.449 509.608 108.769 453.907C107.089 398.206 121.445 343.194 150.13 295.417C178.814 247.64 220.62 209.109 270.573 184.408" stroke="white" stroke-width="70" stroke-linecap="round" stroke-linejoin="round"/>
<path d="M270.282 348.1C254.087 369.657 243.544 394.923 239.613 421.597C235.682 448.271 238.488 475.505 247.776 500.818C257.063 526.13 272.536 548.716 292.786 566.518C313.036 584.32 337.418 596.772 363.712 602.74C390.005 608.708 417.374 608.001 443.325 600.685C469.275 593.369 492.983 579.676 512.287 560.853C531.592 542.03 545.88 518.676 553.849 492.918C561.818 467.161 563.215 439.818 557.914 413.382" stroke="white" stroke-width="70" stroke-linecap="round" stroke-linejoin="round"/>
<path d="M397.53 328.184L424.556 48L552.572 75.8006L460.364 341.83L397.53 328.184ZM344.395 462.428L367.515 355.968L476.152 379.56L453.033 486.02L344.395 462.428Z" stroke="white"  stroke-width="70" stroke-linecap="round" stroke-linejoin="round"/>
</svg>
